<svg xmlns="http://www.w3.org/2000/svg" xmlns:xlink="http://www.w3.org/1999/xlink" width="202.074" height="59.852" viewBox="0 0 202.074 59.852"><defs><linearGradient id="a" x1="-0.086" y1="0.5" x2="1" y2="0.5" gradientUnits="objectBoundingBox"><stop offset="0" stop-color="#c21c12"/><stop offset="0.485" stop-color="#d1532d"/><stop offset="1" stop-color="#d8683b"/></linearGradient></defs><g transform="translate(-973 -907)"><g transform="translate(207 72)"><rect width="202.074" height="59.852" rx="29.926" transform="translate(968.074 894.852) rotate(180)" fill="url(#a)"/><g transform="translate(713.558 -153.762)"><path d="M91.6,1012.377l1.162-.163q4.331-.607,6.542,1.637l.21,1.5q.447,3.184-1.9,3.513a13.014,13.014,0,0,0-3.738.014q-12.276,1.719-15.235,14.046l-.105,1.729.071.5q.354,2.526,3.789,2.7a24.827,24.827,0,0,0,5.582-.27l3-.422.047.339-.679.095.022.162q.393-.055.934.544l.161-.022.07.5-1.8.434.024.162.322-.045-.182,1.047.323-.045.047.339-.323.044.024.163a.59.59,0,0,1,.754.569l.339-.048-.2-.136-.022-.162.153-.2,1-.141.049.34.184.139-.137.2-.5.07.022.163.37.294.5-.071-.185-.155-.024-.161.479-.233.523.093q.212,1.5-11.472,3.14-7.371,1.032-11.366-5.725l-.3-2.181q-1.087-7.747,8.2-18.006A23.838,23.838,0,0,1,91.6,1012.377Zm-.2,25.4,1-.141.048.34-1,.141Z" fill="#fff"/></g><g transform="translate(713.558 -153.762)"><path d="M117.832,1006.459l.179-.025q1.7-.238,3.894,2.793l.205.153.112.8q.108.77-2.391,1.686l.023.16q4.64,4.35,5.24,8.624l.115.823q1.483,10.593-7.217,14.9a21.176,21.176,0,0,1-5.037,1.546l-1.9.265q-8.016,1.124-12.689-6.578-.516-.037-1.093-2.857l-.164-1.162q-1.113-7.944,9.5-16.036Q113.413,1007.078,117.832,1006.459Zm-14.141,21.72.023.161q.4,2.844,4.072,2.768l1.378-.193q5.563-.78,9.429-7.834a15.412,15.412,0,0,0,.4-4.58,7.571,7.571,0,0,0-.891-2.721l.093-.505q-.812-2.4-1.026-2.375-4.968,1.391-10.781,8.207Q103.262,1025.119,103.691,1028.179Z" fill="#fff"/></g><g transform="translate(713.558 -153.762)"><path d="M137.493,1002.5l.948-.133q4.365.939,4.711,3.409-.828,1.9-6.086,19.187l-.957,2.415,9.785-2.027,1.293-.019.948-.132.046.322-.466.065.067.483.949-.133.046.323-1.483,1.01.455.9.948-.133,1.634,1.249q.062.43-9.149,3.053-3.86,1.359-10.444,4.235l-.161.023q-.877.123-3.382-2.135l-.022-.16.141-.167-.184-.138-.223-1.591q-.114-.807,1.163-2.117a164.052,164.052,0,0,0,7.523-25.08l-.229-.461Q136.1,1002.693,137.493,1002.5Z" fill="#fff"/><path d="M161.046,999.2l.947-.132q4.367.939,4.711,3.407-.826,1.905-6.086,19.188l-.957,2.414,9.785-2.027,1.293-.017.949-.133.046.322-.466.065.067.483.948-.133.046.323-1.482,1.01.455.9.948-.132,1.634,1.248q.062.43-9.149,3.052-3.861,1.362-10.444,4.236l-.161.022q-.878.123-3.383-2.134l-.021-.161.14-.166-.183-.138-.223-1.592q-.114-.805,1.162-2.115a164.03,164.03,0,0,0,7.524-25.081l-.229-.461Q159.649,999.393,161.046,999.2Z" fill="#fff"/></g><g transform="translate(713.558 -153.762)"><path d="M188.444,997.809q4.311-.6,5.636,1.819.871,2.2,2.606,8.829l.183.138q.238,1.046.6.994l4.729-1.282.042.3.161-.022,2.377-.48.04.287-1.013.45.022.163,1.056-.148,1.033-.31.042.3a7.2,7.2,0,0,1-2.311.945l.042.3.729-.265c.72.106,1.094.259,1.123.463l.746-.27q3.02-.332,3.092.188l-.141.166,1.1.156.043.3q-1.891,1.344-8.174,2.99l-2.638.825q3.021,7.384,3.406,10.121l.083.59-.382.53-.161.023a1.641,1.641,0,0,1-1.1-.323l.066.467-.3.043-.043-.3-.423.371-.655-.384-1.418.819-1.385-1.028q-.921-1.11-3.5-8.576l-.143.02q-9.117,3.941-8.91,5.408a29.822,29.822,0,0,0-2.963,5.158q-.867,1.362-1.493,1.451l-.411-.711-.123.164-.142.019c-.659-.272-1.02-.63-1.081-1.07l-.123.163-.3.042-.043-.3c-.418.059-.858-.183-1.324-.726q-.608.086-.651-.219l-.148-1.055q-.235-1.683,2.835-6.071a87.061,87.061,0,0,1,3.981-7.782l3.853-9.734.615-3.169A2.5,2.5,0,0,1,188.444,997.809Zm.846,14.768.021.142q2.464-1.017,2.432-1.252l-.785-2.353Q190.571,1009.351,189.29,1012.577Zm13.633-4.519.3-.043.042.3-.3.043Zm.309,1.034.02.142.3-.043-.02-.142Z" fill="#fff"/></g><g transform="translate(713.558 -153.762)"><path d="M221.5,993.193l1.933-.271q9-1.262,12.354,3.54a3.343,3.343,0,0,1,1.1,1.982l.023.161q.378,2.7-6.633,6.694l.022.16q3.978,2.616,4.2,4.173l.135.968q.55,3.917-22.738,15.043l-3.27,1.278-.2-.136.156-.185-.068-.484c-.547.078-.837.01-.867-.2l-.252-.622,1.539-.872-.024-.162-.16.023-2.066.618-.045-.323c.736-.212,1.09-.425,1.059-.64l-.161.022-.921.457-.184-.138-.16.022-.944.3-.162.022-.021-.161.254-.528-.023-.16-.161.022-.783.273-.184-.138-.021-.16a4.4,4.4,0,0,1,2.392-1.667l-.546-1.565q.892-3.519,8.775-19.656-3.044.426-4.27-1.044-.651-.089-1.607-2.092-.273-1.949,6.926-3.433Zm-5.891,23.7.022.162q7.881-3.915,11-7.144l-3.06.429q-5.976.839-5.817,1.965Zm6.4-14.232a67.97,67.97,0,0,0,7.757-4.535q-.069-.483-3.79.039l-2.254.316Q221.929,1002.091,222.009,1002.663Z" fill="#fff"/></g></g></g></svg>