<svg xmlns="http://www.w3.org/2000/svg" xmlns:xlink="http://www.w3.org/1999/xlink" width="82" height="82" viewBox="0 0 82 82"><defs><linearGradient id="a" y1="0.5" x2="1" y2="0.5" gradientUnits="objectBoundingBox"><stop offset="0" stop-color="#d3683b"/><stop offset="0.439" stop-color="#cc532d"/><stop offset="1" stop-color="#bd1d12"/></linearGradient></defs><g transform="translate(342 -1604)"><g transform="translate(0 188)"><g transform="translate(167)"><path d="M0,0H41A41,41,0,0,1,82,41v0A41,41,0,0,1,41,82H0a0,0,0,0,1,0,0V0A0,0,0,0,1,0,0Z" transform="translate(-509 1416)" fill="#fff"/><g transform="translate(-564 1260)"><circle cx="35.542" cy="35.542" r="35.542" transform="translate(61.202 161.482)" fill="url(#a)"/><g transform="translate(-20.672 -2221.893)"><path d="M131.5,2423.611l-.057-.1.054-.1a1.2,1.2,0,0,1,.07-.127,2.841,2.841,0,0,0,.052-3.612.533.533,0,0,1,.044-.7,2.688,2.688,0,0,0,.558-1.936,2.877,2.877,0,0,0-3.007-2.686c-1.14-.007-2.28-.006-3.422,0h-1.713c-.1,0-.2-.006-.313-.013l-.448-.022.164-.441c.04-.107.074-.2.112-.293.09-.228.185-.456.278-.683.191-.462.387-.939.555-1.415a6.885,6.885,0,0,0,.418-3.448,5.078,5.078,0,0,0-4.705-4.2c-.656-.032-.945.2-1.082.862l-.207,1.013c-.167.821-.332,1.641-.516,2.458a4.963,4.963,0,0,1-2.409,3.521c-1.051.576-2.108,1.141-3.171,1.709l-1.5.8-.11-.166c-.922-1.376-1.566-1.777-2.871-1.783q-1.326-.006-2.653,0-1.657,0-3.317,0c-.676,0-.99.314-.99.982q0,9.257,0,18.514a.856.856,0,0,0,.958.972c2.045,0,4.088.009,6.13,0a2.764,2.764,0,0,0,2.087-.878.752.752,0,0,1,.879-.207,19.755,19.755,0,0,0,5.4.99c3.378.086,6.728.087,10.463.087a2.863,2.863,0,0,0,2.823-2.2,3.031,3.031,0,0,0-.092-1.772l-.058-.182.172-.082a3.536,3.536,0,0,0,2.038-1.931A3.8,3.8,0,0,0,131.5,2423.611Zm-21.828,5.929c0,1.055-.47,1.526-1.524,1.526h-5.165v-17.016l.113-.062a.331.331,0,0,1,.19-.073l1.167-.005c1.336,0,2.672-.011,4.009,0a1.213,1.213,0,0,1,1.206,1.2c0,.077,0,.155,0,.232Zm17.72-9.377q.512.006,1.024,0h.687a1.608,1.608,0,0,1,1.159.425,1.17,1.17,0,0,1,.328.859,1.326,1.326,0,0,1-1.477,1.253h-.719c-.354,0-.714,0-1.072,0a.842.842,0,0,0-.918.808.765.765,0,0,0,.218.555,1.007,1.007,0,0,0,.72.277c.38.005.757,0,1.132,0h.619a1.589,1.589,0,0,1,1.162.419,1.169,1.169,0,0,1,.335.854c-.007.754-.585,1.243-1.473,1.247h-.62c-.377,0-.754,0-1.131,0a.883.883,0,0,0-.962.79c-.03.455.313.8.874.873a1.267,1.267,0,1,1-.135,2.531h-.008l-2.342-.008c-2.5,0-5.078-.012-7.616-.066a21.727,21.727,0,0,1-5.45-.972.535.535,0,0,1-.4-.614v-.058l0-7.808c0-1.658,0-3.318-.008-4.976a.759.759,0,0,1,.448-.75q1.181-.63,2.353-1.271,1.221-.663,2.445-1.32a6.721,6.721,0,0,0,3.426-4.883c.12-.569.244-1.136.37-1.713l.231-1.065.224.062a3.4,3.4,0,0,1,2.421,3.669,14.36,14.36,0,0,1-.675,2.444c-.154.453-.345.9-.529,1.325-.122.285-.244.571-.357.859a.6.6,0,0,1-.607.427l-.054,0c-.326-.018-.652-.01-.978,0-.579.011-.953.347-.951.819a.853.853,0,0,0,.91.822q2.678,0,5.357,0h3.8a1.31,1.31,0,0,1,1.436,1.249,1.179,1.179,0,0,1-.334.861,1.5,1.5,0,0,1-1.079.409h-.809c-.327,0-.655,0-.983,0a.882.882,0,0,0-.981.836C126.4,2419.827,126.8,2420.157,127.39,2420.163Z" fill="#fff"/><path d="M120.127,2400.38a.832.832,0,0,0,.831.884h.011a.817.817,0,0,0,.818-.868c.017-.706.017-1.4,0-2.06a.838.838,0,0,0-.824-.87h-.007a.841.841,0,0,0-.827.86c-.011.235-.009.471-.006.707l0,.32,0,.291C120.121,2399.889,120.119,2400.134,120.127,2400.38Z" fill="#fff"/><path d="M115.249,2400.171a1.335,1.335,0,0,0-.38-.207c-.033-.012-.063-.025-.091-.037-.457.035-.7.178-.835.487a.767.767,0,0,0,.145.9c.54.562,1.023,1.048,1.478,1.484a.829.829,0,0,0,1.189.006.842.842,0,0,0-.022-1.165C116.268,2401.158,115.77,2400.647,115.249,2400.171Z" fill="#fff"/><path d="M128.012,2400.942c.014-.032.027-.061.04-.088-.036-.573-.257-.747-.494-.848a.9.9,0,0,0-.352-.078.767.767,0,0,0-.546.24c-.486.466-.96.944-1.431,1.423a.856.856,0,0,0-.064,1.221.841.841,0,0,0,1.22-.044l.12-.116c.425-.413.864-.84,1.264-1.285A1.6,1.6,0,0,0,128.012,2400.942Z" fill="#fff"/><path d="M106.315,2426.872a.835.835,0,0,0-.808.828.8.8,0,0,0,.808.821h0a.839.839,0,0,0,.83-.8.829.829,0,0,0-.248-.59A.728.728,0,0,0,106.315,2426.872Z" fill="#fff"/></g></g></g></g></g></svg>