<svg xmlns="http://www.w3.org/2000/svg" xmlns:xlink="http://www.w3.org/1999/xlink" width="82" height="82" viewBox="0 0 82 82"><defs><linearGradient id="a" y1="0.5" x2="1" y2="0.5" gradientUnits="objectBoundingBox"><stop offset="0" stop-color="#d3683b"/><stop offset="0.439" stop-color="#cc532d"/><stop offset="1" stop-color="#bd1d12"/></linearGradient></defs><g transform="translate(342 -1510)"><g transform="translate(0 94)"><g transform="translate(167)"><path d="M0,0H41A41,41,0,0,1,82,41v0A41,41,0,0,1,41,82H0a0,0,0,0,1,0,0V0A0,0,0,0,1,0,0Z" transform="translate(-509 1416)" fill="#fff"/><g transform="translate(-564 1260)"><circle cx="35.542" cy="35.542" r="35.542" transform="translate(61.202 161.482)" fill="url(#a)"/><g transform="translate(-20.432 -2128.979)"><path d="M115.022,2307.718a15.849,15.849,0,0,1-4.93,3.026,21.031,21.031,0,0,1-5.7,1.158,3.965,3.965,0,0,0-3.651,3.919l0,.206c-.036,1.469-.072,2.987-.068,4.48a41.3,41.3,0,0,0,.852,8.93,20.223,20.223,0,0,0,4.984,9.778,23.738,23.738,0,0,0,9.889,6.1,2.369,2.369,0,0,0,1.589.009,24.166,24.166,0,0,0,9.35-5.533,20.438,20.438,0,0,0,5.727-11.227,40.406,40.406,0,0,0,.605-8.86l0-1.208c0-.87.007-1.741-.007-2.611a4,4,0,0,0-3.679-3.99l-.617-.061c-.559-.054-1.136-.111-1.7-.2a15.5,15.5,0,0,1-7.136-2.98c-.389-.3-.766-.624-1.13-.937-.24-.206-.48-.413-.723-.613a2.334,2.334,0,0,0-1.481-.547,2.192,2.192,0,0,0-1.216.37,6.526,6.526,0,0,0-.784.646Zm1.072,1.512.534-.429c.391-.312.7-.412,1.137,0a17.01,17.01,0,0,0,8.423,4.466c1.115.232,2.275.359,3.4.481a2.135,2.135,0,0,1,2.181,2.291c.012.96.009,1.92.006,2.879l0,1.244a33.671,33.671,0,0,1-1.173,10.475,17.982,17.982,0,0,1-8.006,10.457,26.018,26.018,0,0,1-4.985,2.353,1.344,1.344,0,0,1-.432.075.9.9,0,0,1-.3-.047,22.514,22.514,0,0,1-8.427-4.976,18.137,18.137,0,0,1-4.963-8.954,37.145,37.145,0,0,1-.924-9.012c0-1.438.029-2.9.054-4.312l0-.166a2.094,2.094,0,0,1,2.169-2.294,18.19,18.19,0,0,0,8.5-2.461A27.718,27.718,0,0,0,116.094,2309.23Z" fill="#fff"/><path d="M117.218,2316.415h-.026a9.573,9.573,0,0,0-9.585,9.565,9.342,9.342,0,0,0,2.713,6.692,9.652,9.652,0,0,0,6.861,2.923h.077a9.415,9.415,0,0,0,6.653-2.764,9.592,9.592,0,0,0-6.693-16.417Zm-.009,17.282h-.025a7.715,7.715,0,0,1-7.68-7.714,7.71,7.71,0,0,1,7.68-7.671h.023a7.693,7.693,0,0,1,0,15.385Z" fill="#fff"/><path d="M120.027,2325.919c.486-.484.973-.969,1.451-1.461a.963.963,0,0,0,.135-1.2.9.9,0,0,0-1.056-.378,1.57,1.57,0,0,0-.53.367c-1.124,1.118-2.241,2.241-3.38,3.387l-1.177,1.185-.515-.52c-.273-.277-.528-.536-.787-.792a1.042,1.042,0,0,0-.735-.366.865.865,0,0,0-.18.019.935.935,0,0,0-.738.629,1.015,1.015,0,0,0,.265,1c.47.5.97.994,1.454,1.47l.426.42a.99.99,0,0,0,1.615-.014q1.177-1.173,2.349-2.349Z" fill="#fff"/></g></g></g></g></g></svg>