<svg xmlns="http://www.w3.org/2000/svg" xmlns:xlink="http://www.w3.org/1999/xlink" width="82" height="82" viewBox="0 0 82 82"><defs><linearGradient id="a" y1="0.5" x2="1" y2="0.5" gradientUnits="objectBoundingBox"><stop offset="0" stop-color="#d3683b"/><stop offset="0.439" stop-color="#cc532d"/><stop offset="1" stop-color="#bd1d12"/></linearGradient></defs><g transform="translate(342 -1416)"><g transform="translate(167)"><path d="M0,0H41A41,41,0,0,1,82,41v0A41,41,0,0,1,41,82H0a0,0,0,0,1,0,0V0A0,0,0,0,1,0,0Z" transform="translate(-509 1416)" fill="#fff"/><g transform="translate(-564 1260)"><circle cx="35.542" cy="35.542" r="35.542" transform="translate(61.202 161.482)" fill="url(#a)"/><g transform="translate(-20.672 -2033.755)"><path d="M131.553,2229.164a2.625,2.625,0,0,0,.52-2.9,2.707,2.707,0,0,0-2.224-1.832c-1.74-.277-3.6-.545-6.038-.873a.924.924,0,0,1-.8-.565q-.93-1.919-1.879-3.827l-.755-1.53a2.894,2.894,0,0,0-5.266-.023q-1.344,2.715-2.675,5.435a.824.824,0,0,1-.7.5c-1.642.225-3.281.463-4.921.7l-1.12.163a2.788,2.788,0,0,0-1.611.79,2.879,2.879,0,0,0-.88,2.058,3.162,3.162,0,0,0,1.019,2.232l1.493,1.455q1.392,1.358,2.789,2.709a.727.727,0,0,1,.231.737c-.31,1.746-.606,3.5-.9,5.244l-.13.768a2.789,2.789,0,0,0,.382,2.072,2.927,2.927,0,0,0,3.985.946c1.6-.838,3.416-1.789,5.163-2.729a.96.96,0,0,1,1.016,0c1.862,1,3.6,1.921,5.319,2.8a2.73,2.73,0,0,0,3.058-.226,2.763,2.763,0,0,0,1.133-2.888q-.117-.713-.232-1.426c-.21-1.308-.428-2.661-.707-3.976a1.7,1.7,0,0,1,.619-1.809C128.944,2231.8,130.286,2230.481,131.553,2229.164Zm-1.971-1.284c-1.627,1.611-3.256,3.2-4.84,4.723a1.359,1.359,0,0,0-.435,1.324c.3,1.667.581,3.337.867,5.007l.265,1.547a2.906,2.906,0,0,1,.049.333.655.655,0,0,1-.224.61.51.51,0,0,1-.3.092.861.861,0,0,1-.327-.072c-.162-.07-.317-.153-.473-.236l-1.654-.869c-1.3-.678-2.637-1.379-3.946-2.086a1.544,1.544,0,0,0-1.627,0c-1.355.734-2.743,1.459-4.085,2.162l-1.56.816c-.141.075-.282.149-.427.211a.578.578,0,0,1-.868-.634v-.016l.85-4.99c.109-.635.217-1.269.334-1.9a1.286,1.286,0,0,0-.4-1.252q-1.672-1.616-3.334-3.244L106,2227.987c-.018-.017-.038-.034-.057-.049a.522.522,0,0,1-.157-.177c-.017-.036-.038-.074-.059-.114-.1-.181-.2-.368-.127-.532a.857.857,0,0,1,.6-.421c.551-.1,1.115-.174,1.66-.247l.76-.1c.449-.064.9-.131,1.346-.2.96-.142,1.951-.29,2.93-.414a1.527,1.527,0,0,0,1.279-.949c.859-1.779,1.82-3.723,2.937-5.942.109-.215.373-.52.621-.525h.008c.251,0,.522.306.626.514.811,1.608,1.876,3.733,2.917,5.9a1.621,1.621,0,0,0,1.379,1.006c2.169.282,4.322.6,6.52.941.24.036.614.194.695.436A.918.918,0,0,1,129.582,2227.88Z" fill="#fff"/><path d="M136.293,2235.8c-.734-.249-1.472-.486-2.21-.723l-.272-.088a2.589,2.589,0,0,0-.271-.066l-.048-.011h-.007a1.209,1.209,0,0,0-1.2.919,1.115,1.115,0,0,0,.743,1.327c.861.309,1.735.595,2.6.851a1.12,1.12,0,0,0,1.466-.785A1.141,1.141,0,0,0,136.293,2235.8Z" fill="#fff"/><path d="M98.351,2237.1a1.263,1.263,0,0,0,1.407.96c.23-.081.479-.165.741-.254.706-.239,1.506-.511,2.274-.848a.747.747,0,0,0,.394-.436,1.258,1.258,0,0,0-.05-.945,1.188,1.188,0,0,0-1.028-.67.846.846,0,0,0-.242.034c-.969.29-1.915.6-2.81.914A1.13,1.13,0,0,0,98.351,2237.1Z" fill="#fff"/><path d="M130.008,2213.982a1.223,1.223,0,0,0-.4-.07,1.134,1.134,0,0,0-.913.469c-.5.662-.979,1.33-1.507,2.073a1.159,1.159,0,1,0,1.869,1.357l.088-.117c.455-.613.926-1.248,1.365-1.886a2.413,2.413,0,0,0,.233-.5c.029-.073.057-.148.088-.221A1.319,1.319,0,0,0,130.008,2213.982Z" fill="#fff"/><path d="M118.9,2247.054a1.177,1.177,0,0,0-1.147-1.146h-.016a1.171,1.171,0,0,0-1.155,1.157c-.017.855-.017,1.749,0,2.654a1.143,1.143,0,0,0,1.157,1.153h.006a1.162,1.162,0,0,0,1.156-1.166c.009-.3.007-.6,0-.893l0-.412c0-.147,0-.295,0-.443C118.91,2247.656,118.913,2247.354,118.9,2247.054Z" fill="#fff"/><path d="M104.867,2215.634c.5.743,1.063,1.522,1.735,2.382a1.072,1.072,0,0,0,1.224.29,1.243,1.243,0,0,0,.768-1.164.941.941,0,0,1-.022-.093.969.969,0,0,0-.122-.348l-.022-.031c-.553-.8-1.125-1.622-1.735-2.389a1.033,1.033,0,0,0-.814-.371,1.148,1.148,0,0,0-.683.222A1.11,1.11,0,0,0,104.867,2215.634Z" fill="#fff"/></g></g></g></g></svg>