<svg xmlns="http://www.w3.org/2000/svg" xmlns:xlink="http://www.w3.org/1999/xlink" width="202.074" height="59.852" viewBox="0 0 202.074 59.852"><defs><linearGradient id="a" x1="-0.086" y1="0.5" x2="1" y2="0.5" gradientUnits="objectBoundingBox"><stop offset="0" stop-color="#c21c12"/><stop offset="0.485" stop-color="#d1532d"/><stop offset="1" stop-color="#d8683b"/></linearGradient></defs><g transform="translate(-973 -740)"><rect width="202.074" height="59.852" rx="29.926" transform="translate(1175.074 799.852) rotate(180)" fill="url(#a)"/><g transform="translate(921.194 -103.176)"><path d="M117.9,861.321q5.6-.783,8.333,2.957l1.532,3.907q.35,2.5-12.727,11.507-6.859,4.155-7.059,4.948-.835,2.25-1.157,2.3a5.753,5.753,0,0,0-1.178,2.136l-.322.045.022.16-.184-.137-.16.023q-.339.046-.671,2.246l-.321.045.183.139.022.16q-.5.07-1.889,4.223-.211,2-1.662,2.2l-.045-.32-.16.023-.622.25-.2-.135-.161.022-.461.228-.367-.277-.278.368-1.306-1.131-.045-.322q-.227-1.611,2.638-10.586l-.5-.093.138-.185-.021-.16-.9-.549-.638.254-.391-.438.139-.184-.024-.161q-.964.135-1.033-.347a38.312,38.312,0,0,1,5.776-4.6l2.312-7.075-.162.023q-1.93.27-4.242-3.2l-.2-1.449q1.091-1.867,6.416-3.69Q109.359,863.342,117.9,861.321Zm-7.214,13.216.16-.023a48.351,48.351,0,0,0,8.858-7.351l-.022-.161-.16.022q-6.586,1.178-6.483,1.911Z" fill="#fff"/><path d="M136.886,857.8l.947-.132q4.364.939,4.711,3.409-.83,1.9-6.087,19.186l-.957,2.415,9.786-2.027,1.293-.019.948-.132.045.322-.464.065.067.483.948-.133.046.323-1.482,1.01.455.9.947-.133,1.635,1.249q.062.429-9.151,3.052-3.858,1.36-10.443,4.237l-.16.022q-.878.123-3.383-2.135l-.021-.161.14-.167-.183-.138-.223-1.591q-.114-.805,1.162-2.117a163.921,163.921,0,0,0,7.524-25.08l-.229-.461Q135.489,858,136.886,857.8Z" fill="#fff"/><path d="M163.384,854.892q4.313-.6,5.637,1.818.873,2.2,2.605,8.83l.184.139c.158.7.355,1.025.594.991l4.728-1.281.043.3.16-.023,2.378-.478.04.286-1.014.451.024.161,1.056-.147,1.032-.31.043.3a7.149,7.149,0,0,1-2.313.944l.043.3.729-.267q1.08.16,1.123.464l.748-.269q3.018-.332,3.09.188l-.141.165,1.1.156.042.3q-1.892,1.343-8.174,2.988l-2.639.826q3.024,7.384,3.406,10.122l.083.589-.381.53-.162.022a1.626,1.626,0,0,1-1.1-.32l.064.466-.3.042-.042-.3-.423.37-.656-.383-1.417.82-1.385-1.029q-.923-1.111-3.5-8.576l-.144.021q-9.117,3.939-8.911,5.407a29.878,29.878,0,0,0-2.962,5.158c-.579.907-1.076,1.392-1.493,1.45l-.41-.71-.123.163-.143.021q-.988-.41-1.081-1.071l-.123.164-.3.043-.043-.3q-.625.089-1.324-.726-.609.086-.65-.219l-.149-1.055q-.235-1.683,2.834-6.072,1.182-2.775,3.982-7.782l3.854-9.735.614-3.168A2.5,2.5,0,0,1,163.384,854.892Zm.847,14.767.02.143q2.464-1.02,2.433-1.253L165.9,866.2Q165.511,866.434,164.231,869.659Zm13.632-4.518.3-.043.043.3-.305.043Zm.31,1.032.02.144.3-.043-.02-.144Z" fill="#fff"/><path d="M207.857,847.972l.662-.093q1.215-.17,3.433,1.854l.093.661q-17.076,22.005-19.391,23.57.091.662-.731.776.073.52-3.047,4.423a9.443,9.443,0,0,0-2.378,4.51l-.8.277a2.274,2.274,0,0,1-1.72-.434l-.275.386q-.37-.951-1.945-.732l-1.328-1.145-.048-.34q-.355-2.541,10.349-14.293,2.805-3.8,2.748-4.216-7.1-5.352-7.7-9.612l-.137-.984a3.564,3.564,0,0,1,2.655-1.357l.645-.09q3.022-.423,5.222,3.939.231,1.645,3.249,4.05,1.452-1.355,7.167-9.524A7.086,7.086,0,0,1,207.857,847.972Z" fill="#fff"/></g></g></svg>