<svg xmlns="http://www.w3.org/2000/svg" xmlns:xlink="http://www.w3.org/1999/xlink" width="202.074" height="59.852" viewBox="0 0 202.074 59.852"><defs><linearGradient id="a" x1="-0.086" y1="0.5" x2="1" y2="0.5" gradientUnits="objectBoundingBox"><stop offset="0" stop-color="#c21c12"/><stop offset="0.485" stop-color="#d1532d"/><stop offset="1" stop-color="#d8683b"/></linearGradient></defs><g transform="translate(-51.806 -1138.316)"><rect width="202.074" height="59.852" rx="29.926" transform="translate(253.88 1198.168) rotate(180)" fill="url(#a)"/><g transform="translate(0 1)"><path d="M110.819,1157.065l.339-.047a3.514,3.514,0,0,1,2.167.882l.184.138.161-.022-.068.683.442,1.982q.1,2.7-1.452,2.922l-1,.14q-6.513.912-15.67,6.775l.045.322.161-.022q12.235-.693,13.778,1.462a2.518,2.518,0,0,1,1.492,2.181q.319,5.538-.557,5.66a33.02,33.02,0,0,1-7.691,5.657q-6.523,3.3-18.057,7.967l-.184-.139-.024-.179,1.095-.646-.048-.34-1.777.595-.025-.177q-.052-.378.752-.617l-.045-.323-.5.07-.048-.339.341-.048-.022-.161-1.05-.2.138-.183-.071-.5c-.44.061-.684-.073-.731-.408l-.139.183-.34.047-.022-.161.139-.183-.023-.161-.322.046q-.048-.341-.549-.27l-.022-.161q-.119-.842,12.818-6.558,8.511-4.35,9.742-5.6-14.283,1.055-14.574-1.022a3.549,3.549,0,0,1-2.106-2.915,7.885,7.885,0,0,1,1.375-4.772Q99.869,1158.6,110.819,1157.065ZM85.2,1190.847l.023.161.34-.048-.023-.161Z" fill="#fff"/><path d="M121.415,1154.908q2.417-.337,5.768,3.279.2,1.413-1.7,6.221l-1.035,3.557.34-.047,9.84-4.115a63.838,63.838,0,0,1,3.443-10.718l1.612-.736q1.867-.205,5.134,2.528l.139,1q.171,1.2-2.455,6.82a11.9,11.9,0,0,0-.525,3.668l.57.431.047.34-1.863,1.282q.07.5-.592.594l.023.161.186.156.023.161c-.191.028-.312.384-.361,1.073q-.429.06-.922,2.007l-.162.022-.184-.137-.177.025q.2,1.395-1.432,1.9l.187.158.047.339a.448.448,0,0,0-.431.572l-.34.047-.068.686.183.138.049.34-.162.023-.524-.093.071.5-.161.023.184.139.024.178a7.594,7.594,0,0,0-1.256,4.445,4.181,4.181,0,0,1-.7,2.305l-.179.024-.184-.137-.161.023-.431.57q-.046-.341-1.913-.242l-.274-.656-.137.2-.16.023a2.091,2.091,0,0,1-.689-1.273q-.439-3.15,1.625-9.113l.541-2.118-.161.022-11.459,4.67c-.167.719-.346,1.089-.537,1.116l-.185-.156-.18.024a15.4,15.4,0,0,0-1.617,5.518l-1.693,3.667-.179.025-.048-.339-.592.593-2.461-.513a.75.75,0,0,0-.959-.723l-.14-1q-.269-1.913,2.329-9.028l.044-.864c-.35-.059-.564-.371-.643-.931l-.187-1.342q2.586-1.84,2.76-3.471l2.333-8.864-.183-.138-.022-.161,1.034-3.556Z" fill="#fff"/><path d="M152.97,1149.971q4.311-.6,5.636,1.819.873,2.2,2.6,8.83l.184.139q.237,1.042.594.991l4.729-1.282.042.3.161-.022,2.378-.479.04.286-1.014.452.024.161,1.055-.148,1.033-.309.043.3a7.174,7.174,0,0,1-2.313.945l.043.3.729-.265q1.08.157,1.123.463l.747-.27q3.018-.331,3.091.189l-.141.165,1.1.156.043.3q-1.893,1.341-8.174,2.988l-2.639.826q3.022,7.384,3.406,10.122l.083.59-.381.528-.162.023a1.631,1.631,0,0,1-1.1-.321l.065.466-.3.042-.043-.3-.423.37-.655-.383-1.418.819-1.385-1.028q-.921-1.111-3.5-8.576l-.144.02q-9.115,3.939-8.91,5.408a29.842,29.842,0,0,0-2.963,5.158q-.867,1.36-1.493,1.45l-.409-.71-.124.163-.143.019q-.988-.406-1.08-1.07l-.124.164-.3.043-.043-.3q-.626.087-1.324-.726c-.4.057-.622-.017-.65-.22l-.148-1.055q-.235-1.683,2.834-6.072,1.181-2.773,3.982-7.781l3.853-9.734.615-3.169A2.5,2.5,0,0,1,152.97,1149.971Zm.847,14.767.019.145q2.466-1.022,2.433-1.254l-.785-2.353Q155.1,1161.513,153.817,1164.738Zm13.632-4.518.3-.043.043.3-.305.043Zm.309,1.033.021.143.3-.043-.02-.143Z" fill="#fff"/><path d="M182.217,1144.614l1.4-.2q10.431-1.462,13.27,5.128l.294.925.065.466q.288,2.056-8.4,8.162,3.733,9.6,4.286,13.538l.184.139.02.144-.094.505.357,1.374-.139.182-.3.043q-.087-.625-.41-.581c.044.311-.036.48-.238.509l-.322.045-.166-.142-.161.023q-.146.658-.377.69l-.811-.05-.259.366c-.144-.516-.444-.741-.9-.677a86.963,86.963,0,0,1-6.226-12.792l-6.684,3.326q-.659,2.336-1.208,2.705l-.051.81-.465.065.386-1.805-.024-.162-.161.023-.547,1.828.369.277q-.591.082-1.888,3.584-.213.048-.645,2.171-.322.043-1.12,3.331l-.161.023q-.1-.717-1.732-1.036l-.259.366c-.03-.215-.207-.3-.528-.255l-.444.226a1.3,1.3,0,0,0-1.06-.8l-.068-.482q-.528-3.775,5.645-22.08-3.585-1.763-3.776-3.12l-.107-.77q.009-.84,5.367-3.616Q174.737,1145.661,182.217,1144.614Zm-3.267,13.009.323-.045q8.795-5.319,10.465-7.98l-.022-.16-3.133.293-.3.042q-5.922.831-5.727,2.225A33.314,33.314,0,0,1,178.95,1157.623Z" fill="#fff"/><path d="M215.354,1141.085a.543.543,0,0,0,.693.523l.042.3-.465.064.024.161q.768-.106.811.2l.023.16-.609.085c.044.31.369.424.978.338l.043.3-.465.066.019.142,1.843-.257,1.5.573-.139.184.02.143c.513-.072.785,0,.814.213q.079.556-5.519,2.015-1.932.268-7.052,3.177l-1.225,3.619.16-.022a23.345,23.345,0,0,1,4.694-1.132l.369.423-.442.227.019.143c.824-.115,1.249-.073,1.279.13l-.725.43.02.143.3-.043-.078.486c.072.512.535.868,1.39,1.063l.019.144-.12.181.02.144c.512-.072.785,0,.815.213l.02.143q.066.467-9.336,3.807-1.2.168-2.431,5.049l10.8-3.393.043.3.161-.023.746-.268c.2.494.5.716.878.662l.065.464a1.08,1.08,0,0,0-.705.574l-.321.045.02.144.93-.131.045.321-.769.108.18.12.023.163-.141.165q2.272-.32,2.56.424l-.121.183q.783,0,.835.356-1.239,1.067-8.894,3.582-9,2.848-8.825,4.065a2.364,2.364,0,0,1-1.186,1.57l-.161.023-1.019-.643-.323.045-.747.271c-.037-.262-.579-.45-1.628-.556l-.445.208-.182-.12-.022-.162.1-.488-.3.042-.139.183-.143.021-.183-.138-.02-.144q.632-4.74,7.746-27.391-.216-1.54,1.888-2.143l6.017-.68Z" fill="#fff"/></g></g></svg>