<svg xmlns="http://www.w3.org/2000/svg" xmlns:xlink="http://www.w3.org/1999/xlink" width="60.315" height="55.221" viewBox="0 0 60.315 55.221"><defs><linearGradient id="a" x1="0.063" y1="0.215" x2="0.946" y2="0.813" gradientUnits="objectBoundingBox"><stop offset="0" stop-color="#d4683b"/><stop offset="0.489" stop-color="#cd532d"/><stop offset="1" stop-color="#be1d12"/></linearGradient></defs><g transform="translate(1098 -1968.271)"><g transform="translate(-610.167 1726.194)"><path d="M-480.3,294.867c-5.532-5.725,1.336-29.648,5.133-38.588,5.961-14.035,20.4-21.64,37.748-3.693h0c17.4,18,9.286,31.538-4.521,37.646C-450.574,294.051-474.375,301-480.3,294.867Z" fill="url(#a)"/><path d="M-479.377,246.4a8.436,8.436,0,0,1,8.459,8.337,8.435,8.435,0,0,1-8.466,8.33,8.432,8.432,0,0,1-8.449-8.328A8.433,8.433,0,0,1-479.377,246.4Z" fill="#bff707"/><path d="M-480.12,258.356l-3.46-2.727,1.238-1.571,1.99,1.569,3.733-4.139,1.485,1.34Z"/></g><g transform="translate(-610.167 1183.725)"><path d="M-455.555,802.526h11a1.76,1.76,0,0,1,1.85,1.485,2.227,2.227,0,0,1,.025.4q0,6.919,0,13.839a1.767,1.767,0,0,1-1.883,1.88c-2.324,0-4.649.007-6.973-.005-.276,0-.353.074-.34.344.022.473.015.947,0,1.421a.3.3,0,0,0,.243.343c1.892.65,3.781,1.311,5.671,1.968.581.2.825.574.67,1.027s-.574.61-1.153.407c-2.606-.909-5.215-1.812-7.817-2.733a3.71,3.71,0,0,0-2.567-.005c-2.619.927-5.244,1.834-7.867,2.749-.051.018-.1.037-.153.052a.753.753,0,0,1-.973-.474.754.754,0,0,1,.5-.961c1.07-.376,2.143-.745,3.215-1.117.844-.294,1.684-.6,2.534-.873a.415.415,0,0,0,.34-.5c-.024-.454-.018-.911,0-1.367.008-.228-.072-.283-.29-.283-2.333.007-4.666,0-7,.007a1.875,1.875,0,0,1-1.228-.382,1.706,1.706,0,0,1-.674-1.372q-.006-7.055,0-14.107a1.738,1.738,0,0,1,1.716-1.742c.527-.017,1.055-.005,1.582-.005Zm-.006,1.514h-10.885c-.44,0-.479.039-.479.468q0,6.81,0,13.62c0,.453.036.49.486.49h21.771c.439,0,.479-.04.479-.471v-13.62c0-.454-.034-.487-.487-.487Zm2.152,17.586v-1.474h-4.3v1.474A5.05,5.05,0,0,1-453.409,821.626Z" fill="#fff"/><path d="M-454.664,814.624a.77.77,0,0,1-.862.253.732.732,0,0,1-.506-.691c-.013-.3,0-.607-.006-.911q-.014-2.785-.027-5.571a.747.747,0,0,1,.43-.74.648.648,0,0,1,.793.111.972.972,0,0,1,.275.578c.029,2.169.035,4.339.034,6.508A1.5,1.5,0,0,1-454.664,814.624Z" fill="#fff"/><path d="M-459.013,811.512a.768.768,0,0,1-.252-.861.731.731,0,0,1,.691-.506c.3-.014.607-.005.91-.007q2.785-.012,5.571-.026a.747.747,0,0,1,.741.43.646.646,0,0,1-.112.792.959.959,0,0,1-.578.275c-2.169.029-4.338.036-6.508.035A1.481,1.481,0,0,1-459.013,811.512Z" fill="#fff"/></g></g></svg>