<svg xmlns="http://www.w3.org/2000/svg" xmlns:xlink="http://www.w3.org/1999/xlink" width="60.315" height="55.221" viewBox="0 0 60.315 55.221"><defs><linearGradient id="a" x1="0.063" y1="0.215" x2="0.946" y2="0.813" gradientUnits="objectBoundingBox"><stop offset="0" stop-color="#d4683b"/><stop offset="0.489" stop-color="#cd532d"/><stop offset="1" stop-color="#be1d12"/></linearGradient></defs><g transform="translate(1098 -1502.037)"><g transform="translate(-610.167 1259.959)"><path d="M-480.3,294.867c-5.532-5.725,1.336-29.648,5.133-38.588,5.961-14.035,20.4-21.64,37.748-3.693h0c17.4,18,9.286,31.538-4.521,37.646C-450.574,294.051-474.375,301-480.3,294.867Z" fill="url(#a)"/><path d="M-479.377,246.4a8.436,8.436,0,0,1,8.459,8.337,8.435,8.435,0,0,1-8.466,8.33,8.432,8.432,0,0,1-8.449-8.328A8.433,8.433,0,0,1-479.377,246.4Z" fill="#bff707"/><path d="M-480.12,258.356l-3.46-2.727,1.238-1.571,1.99,1.569,3.733-4.139,1.485,1.34Z"/></g><g transform="translate(-696.167 1184.725)"><g transform="translate(85)"><path d="M-440,355.252h-29.141a.781.781,0,0,0-.9.891q0,1.7,0,3.394a.8.8,0,0,0,.912.914q14.605,0,29.208,0a.8.8,0,0,0,.915-.911q0-1.648,0-3.3C-439,355.512-439.26,355.252-440,355.252Zm-.545,3.642h-27.944v-2.079h27.944Z" fill="#fff"/><path d="M-458.1,353.264c-.543,0-1.086.005-1.629,0a.933.933,0,0,1-1.012-.917.928.928,0,0,1,1-.925q1.66-.009,3.322,0a.919.919,0,0,1,.993.932.926.926,0,0,1-.984.911c-.022,0-.044,0-.066,0Z" fill="#fff"/><path d="M-450.928,338.576c-.543,0-1.086,0-1.629,0a.952.952,0,0,1-1.029-.908.95.95,0,0,1,1.033-.935q1.646-.006,3.29,0a.923.923,0,0,1,1.005.922.926.926,0,0,1-1.009.919C-449.821,338.58-450.375,338.576-450.928,338.576Z" fill="#fff"/><path d="M-450.942,353.264c-.543,0-1.086.005-1.629,0a.948.948,0,0,1-1.015-.921.946.946,0,0,1,1.014-.921q1.662-.008,3.323,0a.922.922,0,0,1,.991.9.923.923,0,0,1-.99.937C-449.813,353.27-450.378,353.264-450.942,353.264Z" fill="#fff"/><path d="M-465.27,338.576c-.544,0-1.087.005-1.631,0a.93.93,0,0,1-1-.932.924.924,0,0,1,.989-.909q1.665-.01,3.329,0a.915.915,0,0,1,.994.931.921.921,0,0,1-.984.912h-1.7Z" fill="#fff"/><path d="M-465.257,353.264c-.544,0-1.088,0-1.632,0a.93.93,0,0,1-1.012-.92.929.929,0,0,1,1.009-.922q1.648-.008,3.3,0a.917.917,0,0,1,1.007.919.923.923,0,0,1-1,.924h-1.664Z" fill="#fff"/><path d="M-443.753,338.576c-.554,0-1.109.005-1.664,0a.931.931,0,0,1-1-.931.926.926,0,0,1,.989-.91q1.663-.009,3.328,0a.917.917,0,0,1,1,.93.916.916,0,0,1-.984.911C-442.643,338.582-443.2,338.576-443.753,338.576Z" fill="#fff"/><path d="M-443.747,353.264c-.554,0-1.109.005-1.664,0a.935.935,0,0,1-1.008-.926.933.933,0,0,1,1.016-.916q1.649-.008,3.3,0a.918.918,0,0,1,1,.925.926.926,0,0,1-1.011.918h-1.632Z" fill="#fff"/><path d="M-450.93,342.25c-.554,0-1.107,0-1.661,0a.948.948,0,0,1-.994-.941.93.93,0,0,1,1-.893q1.661-.006,3.322,0a.915.915,0,0,1,1,.916.936.936,0,0,1-1.011.919C-449.823,342.253-450.377,342.25-450.93,342.25Z" fill="#fff"/><path d="M-450.915,349.582c-.564,0-1.129.005-1.693,0a.929.929,0,0,1-.978-.918.945.945,0,0,1,.987-.916q1.677-.009,3.354,0a.928.928,0,0,1,.987.941.916.916,0,0,1-1,.893C-449.807,349.586-450.361,349.582-450.915,349.582Z" fill="#fff"/><path d="M-443.749,334.894c-.565,0-1.131,0-1.7,0a.915.915,0,0,1-.973-.919.932.932,0,0,1,.985-.915q1.68-.008,3.361,0a.917.917,0,0,1,.968.926.906.906,0,0,1-.981.908C-442.64,334.9-443.194,334.894-443.749,334.894Z" fill="#fff"/><path d="M-450.928,344.082c.565,0,1.131-.005,1.7,0a.92.92,0,0,1,.975.921.92.92,0,0,1-.987.908q-1.682.008-3.362,0a.933.933,0,0,1-.98-.921.938.938,0,0,1,.993-.908C-452.038,344.078-451.483,344.082-450.928,344.082Z" fill="#fff"/><path d="M-458.071,349.582c-.565,0-1.129.005-1.694,0a.915.915,0,0,1-.977-.912.933.933,0,0,1,.975-.922q1.692-.009,3.386,0a.921.921,0,0,1,.958.935.9.9,0,0,1-.955.9C-456.943,349.588-457.507,349.582-458.071,349.582Z" fill="#fff"/><path d="M-443.768,349.582c-.554,0-1.109,0-1.664,0a.919.919,0,0,1-.987-.906.93.93,0,0,1,.973-.928q1.68-.009,3.36,0a.92.92,0,0,1,.982.913.908.908,0,0,1-.967.922h-1.7Z" fill="#fff"/><path d="M-443.771,340.413c.565,0,1.131,0,1.7,0a.9.9,0,0,1,.971.917.919.919,0,0,1-.979.917q-1.68.009-3.36,0a.931.931,0,0,1-.976-.925.918.918,0,0,1,.984-.909C-444.88,340.409-444.326,340.413-443.771,340.413Z" fill="#fff"/><path d="M-465.243,334.894c-.555,0-1.11,0-1.664,0a.919.919,0,0,1-.994-.9.933.933,0,0,1,1-.936q1.664-.006,3.328,0a.919.919,0,0,1,.988.938.906.906,0,0,1-.991.9C-464.134,334.9-464.689,334.894-465.243,334.894Z" fill="#fff"/><path d="M-443.713,344.082c.543,0,1.087,0,1.63,0a.913.913,0,0,1,.98.911.91.91,0,0,1-.973.918q-1.679.008-3.359,0a.922.922,0,0,1-.984-.911.923.923,0,0,1,.977-.918C-444.866,344.078-444.29,344.082-443.713,344.082Z" fill="#fff"/><path d="M-465.231,349.582c-.566,0-1.131.005-1.7,0a.915.915,0,0,1-.973-.919.93.93,0,0,1,.984-.915q1.68-.008,3.36,0a.915.915,0,0,1,.968.926.9.9,0,0,1-.978.908C-464.122,349.586-464.677,349.582-465.231,349.582Z" fill="#fff"/><path d="M-465.25,340.413c.566,0,1.131,0,1.7,0a.9.9,0,0,1,.964.889.912.912,0,0,1-.95.944q-1.7.012-3.392,0a.928.928,0,0,1-.97-.93.917.917,0,0,1,.988-.9C-466.359,340.409-465.8,340.413-465.25,340.413Z" fill="#fff"/><path d="M-465.238,329.393c.554,0,1.109,0,1.663,0a.911.911,0,0,1,.986.9.912.912,0,0,1-.994.927q-1.663,0-3.327,0a.922.922,0,0,1-.991-.9.925.925,0,0,1,1-.927C-466.347,329.39-465.792,329.393-465.238,329.393Z" fill="#fff"/><path d="M-465.236,345.913c-.554,0-1.108,0-1.663,0a.925.925,0,0,1-1-.924.922.922,0,0,1,.989-.9q1.68-.006,3.359,0a.9.9,0,0,1,.964.924.908.908,0,0,1-.951.906h-1.7Z" fill="#fff"/><path d="M-458.076,344.082c.554,0,1.109,0,1.664,0a.919.919,0,0,1,.99.9.919.919,0,0,1-1,.927q-1.665.006-3.328,0a.925.925,0,0,1-.993-.9.927.927,0,0,1,1-.926C-459.186,344.079-458.631,344.082-458.076,344.082Z" fill="#fff"/></g></g></g></svg>