<svg xmlns="http://www.w3.org/2000/svg" xmlns:xlink="http://www.w3.org/1999/xlink" width="60.315" height="55.221" viewBox="0 0 60.315 55.221"><defs><linearGradient id="a" x1="0.063" y1="0.215" x2="0.946" y2="0.813" gradientUnits="objectBoundingBox"><stop offset="0" stop-color="#d4683b"/><stop offset="0.489" stop-color="#cd532d"/><stop offset="1" stop-color="#be1d12"/></linearGradient></defs><g transform="translate(1098 -1502.037)"><g transform="translate(-610.167 1259.959)"><path d="M-480.3,294.867c-5.532-5.725,1.336-29.648,5.133-38.588,5.961-14.035,20.4-21.64,37.748-3.693h0c17.4,18,9.286,31.538-4.521,37.646C-450.574,294.051-474.375,301-480.3,294.867Z" fill="url(#a)"/><path d="M-479.377,246.4a8.436,8.436,0,0,1,8.459,8.337,8.435,8.435,0,0,1-8.466,8.33,8.432,8.432,0,0,1-8.449-8.328A8.433,8.433,0,0,1-479.377,246.4Z" fill="#bff707"/><path d="M-480.12,258.356l-3.46-2.727,1.238-1.571,1.99,1.569,3.733-4.139,1.485,1.34Z"/></g><g transform="translate(-610.167 1112.491)"><path d="M-440.936,405.545h-28.539c-.736,0-1,.259-1,.994v23.113c0,.738.259,1,.991,1h28.539c.736,0,1-.26,1-.995V406.544C-439.944,405.8-440.2,405.545-440.936,405.545Zm-.535,23.586h-27.473V407.075h27.473Z" fill="#fff"/><path d="M-461.938,418.878a.78.78,0,0,0,.86-.877q0-2.312,0-4.622a.778.778,0,0,0-.86-.876c-.214-.006-.426,0-.653,0l-.488,0v-.535c0-.274,0-.535,0-.8,0-.086,0-.173,0-.259a4.588,4.588,0,0,0-.039-.741.721.721,0,0,0-.77-.588.751.751,0,0,0-.688.7c-.01.155-.009.312-.008.469V412.5h-1.024c-.729,0-.987.258-.987.974q0,2.215,0,4.43c0,.717.258.972.988.974h1.023v2q0,2.459,0,4.919a.76.76,0,0,0,.745.82.777.777,0,0,0,.757-.823c0-.059,0-.118,0-.177v-6.736h.484C-462.365,418.882-462.151,418.884-461.938,418.878Zm-3.122-1.536v-3.311h2.467v3.311Z" fill="#fff"/><path d="M-453.283,423.693a.756.756,0,0,0,.824-.84q.006-2.343,0-4.687a.761.761,0,0,0-.848-.847c-.215-.006-.43,0-.659,0l-.492,0v-2.131q0-2.373,0-4.744a.773.773,0,0,0-.435-.783.71.71,0,0,0-.693.023.851.851,0,0,0-.373.736q0,2.385,0,4.767v2.132l-.5,0c-.23,0-.444,0-.659,0a.762.762,0,0,0-.842.855q0,2.326,0,4.655a.768.768,0,0,0,.864.865c.214.006.43,0,.657,0h.478v.992c0,.381,0,.762,0,1.144a.756.756,0,0,0,.746.783h.005a.758.758,0,0,0,.747-.792c.005-.183,0-.365,0-.548V423.7l.486,0C-453.733,423.7-453.507,423.7-453.283,423.693Zm-.7-1.523h-2.448v-3.321h2.448Z" fill="#fff"/><path d="M-443.821,415.776a.776.776,0,0,0-.867-.868l-.123,0c-.2,0-.4-.005-.606,0a.4.4,0,0,1-.314-.093.421.421,0,0,1-.1-.318c.008-.431.006-.862.005-1.293l0-.406v-.707c0-.6,0-1.2-.009-1.794a.729.729,0,0,0-.694-.717.766.766,0,0,0-.773.6,1.8,1.8,0,0,0-.029.382v3.82c0,.082-.006.163-.012.254l-.016.266h-.463c-.227,0-.445,0-.664,0a.774.774,0,0,0-.845.855q0,2.328,0,4.656a.774.774,0,0,0,.866.868c.218,0,.437,0,.67,0h.464v4.456a.789.789,0,0,0,.413.776.708.708,0,0,0,.712,0,.8.8,0,0,0,.376-.706c.009-.939.007-1.879.006-2.818l0-1.707.515,0c.238,0,.46,0,.682,0a.762.762,0,0,0,.814-.8c.006-.127.005-.255,0-.382v-1.385C-443.817,417.739-443.816,416.758-443.821,415.776Zm-1.536,3.98h-2.453v-3.321h2.453Z" fill="#fff"/></g></g></svg>