<svg xmlns="http://www.w3.org/2000/svg" xmlns:xlink="http://www.w3.org/1999/xlink" width="60.315" height="55.221" viewBox="0 0 60.315 55.221"><defs><linearGradient id="a" x1="0.063" y1="0.215" x2="0.946" y2="0.813" gradientUnits="objectBoundingBox"><stop offset="0" stop-color="#d4683b"/><stop offset="0.489" stop-color="#cd532d"/><stop offset="1" stop-color="#be1d12"/></linearGradient></defs><g transform="translate(1098 -1502.037)"><g transform="translate(-610.167 1259.959)"><path d="M-480.3,294.867c-5.532-5.725,1.336-29.648,5.133-38.588,5.961-14.035,20.4-21.64,37.748-3.693h0c17.4,18,9.286,31.538-4.521,37.646C-450.574,294.051-474.375,301-480.3,294.867Z" fill="url(#a)"/><path d="M-479.377,246.4a8.436,8.436,0,0,1,8.459,8.337,8.435,8.435,0,0,1-8.466,8.33,8.432,8.432,0,0,1-8.449-8.328A8.433,8.433,0,0,1-479.377,246.4Z" fill="#bff707"/><path d="M-480.12,258.356l-3.46-2.727,1.238-1.571,1.99,1.569,3.733-4.139,1.485,1.34Z"/></g><g transform="translate(-611.167 795.491)"><path d="M-451.97,729.722h.355c1.716,0,3.432-.005,5.148,0a2.655,2.655,0,0,1,2.686,2.132,2.6,2.6,0,0,1-.257,1.767c-.041.079-.086.156-.142.259a2.639,2.639,0,0,1,1.275,2.283,2.615,2.615,0,0,1-1.281,2.276,2.7,2.7,0,0,1,.368,2.187,2.6,2.6,0,0,1-1.326,1.671,8.817,8.817,0,0,1,.3,1.262,2.6,2.6,0,0,1-2.5,2.814c-2.849,0-5.7.134-8.548-.1a23.742,23.742,0,0,1-6.379-1.461,2.245,2.245,0,0,0-.751-.14c-1.546-.013-3.092-.006-4.638-.007-.684,0-.962-.277-.962-.958V732.9c0-.665.279-.942.947-.942,1.555,0,3.11.005,4.664-.007a.912.912,0,0,0,.485-.161,21.339,21.339,0,0,0,3.987-3.482,7.649,7.649,0,0,0,1.435-2.4q.674-1.835,1.4-3.653a2.347,2.347,0,0,1,1.789-1.571,2.147,2.147,0,0,1,2.393,1.329,6.524,6.524,0,0,1,.288,2.514,28.453,28.453,0,0,1-.678,4.877C-451.933,729.493-451.945,729.581-451.97,729.722Zm-9.778,8.518q0,2.439,0,4.879c0,.13-.026.257.155.322a22,22,0,0,0,6.052,1.328c1.317.09,2.642.084,3.964.1s2.645,0,3.968,0a1.151,1.151,0,0,0,1.165-.7,1.118,1.118,0,0,0-.981-1.563c-.533-.066-.829-.368-.8-.817s.356-.712.895-.717c.349,0,.7.012,1.045-.012a1.119,1.119,0,0,0,1.035-1.208,1.173,1.173,0,0,0-1.132-1.049.735.735,0,0,1-.749-.8.771.771,0,0,1,.817-.718c.232-.007.464,0,.7,0a1.123,1.123,0,0,0,1.191-1.112,1.146,1.146,0,0,0-1.195-1.146c-.259-.005-.518.006-.777-.005a.744.744,0,0,1-.733-.712.753.753,0,0,1,.677-.794c.106-.013.214-.021.318-.043a1.127,1.127,0,0,0,.888-1.151,1.133,1.133,0,0,0-1.236-1.068q-3.1,0-6.192,0a2.211,2.211,0,0,1-.374-.021.745.745,0,0,1-.633-.875c.025-.167.066-.332.105-.5a27.311,27.311,0,0,0,.814-5.422,12.5,12.5,0,0,0-.145-1.755.541.541,0,0,0-.473-.481.611.611,0,0,0-.666.233,2.347,2.347,0,0,0-.3.531c-.456,1.174-.911,2.349-1.346,3.53a8.92,8.92,0,0,1-1.638,2.747,23.009,23.009,0,0,1-4.2,3.729.45.45,0,0,0-.219.415C-461.745,735.005-461.748,736.622-461.748,738.24Zm-5.328-4.748v9.626h3.784v-9.626Z" fill="#fff"/></g></g></svg>