<svg xmlns="http://www.w3.org/2000/svg" xmlns:xlink="http://www.w3.org/1999/xlink" width="60.315" height="55.221" viewBox="0 0 60.315 55.221"><defs><linearGradient id="a" x1="0.063" y1="0.215" x2="0.946" y2="0.813" gradientUnits="objectBoundingBox"><stop offset="0" stop-color="#d4683b"/><stop offset="0.489" stop-color="#cd532d"/><stop offset="1" stop-color="#be1d12"/></linearGradient></defs><g transform="translate(487.833 -242.077)"><path d="M-480.3,294.867c-5.532-5.725,1.336-29.648,5.133-38.588,5.961-14.035,20.4-21.64,37.748-3.693h0c17.4,18,9.286,31.538-4.521,37.646C-450.574,294.051-474.375,301-480.3,294.867Z" fill="url(#a)"/><path d="M-479.377,246.4a8.436,8.436,0,0,1,8.459,8.337,8.435,8.435,0,0,1-8.466,8.33,8.432,8.432,0,0,1-8.449-8.328A8.433,8.433,0,0,1-479.377,246.4Z" fill="#bff707"/><path d="M-480.12,258.356l-3.46-2.727,1.238-1.571,1.99,1.569,3.733-4.139,1.485,1.34Z"/><path d="M-469.505,267.544a.811.811,0,0,0-.237-.576.81.81,0,0,0-.576-.239h-.208a.815.815,0,0,0-.815.77c0,.014,0,.028,0,.042l-.01,8.418a.816.816,0,0,0,.814.816h.208a.8.8,0,0,0,.814-.813Z" fill="#fff"/><path d="M-438.668,267.54a.8.8,0,0,0-.239-.574.8.8,0,0,0-.577-.237h-.208a.814.814,0,0,0-.811.774.293.293,0,0,0,0,.042l.023,8.418a.815.815,0,0,0,.817.812h.208a.794.794,0,0,0,.811-.816Z" fill="#fff"/><path d="M-458.642,275.66l8.208.011h.573l6.352.008.009-7.793-22.787-.028-.01,7.793,6.58.008Zm-7.241-7.4,21.978.028-.009,6.983-5.946-.008h-.574l-8.208-.011h-1.075l-6.175-.008Z" fill="#fff"/><path d="M-443.01,276.18l-23.788-.029.011-8.793,23.787.029Zm-22.382-1.433,20.978.027.008-5.983-20.978-.027Z" fill="#fff"/><rect width="1.835" height="2.94" transform="translate(-456.401 264.069) rotate(-89.929)" fill="#fff"/><rect width="1.835" height="2.94" transform="translate(-446.888 264.081) rotate(-89.927)" fill="#fff"/><rect width="1.835" height="2.94" transform="translate(-465.915 264.057) rotate(-89.929)" fill="#fff"/><path d="M-451.932,279.581l13.161.017a3.486,3.486,0,0,0,3.483-3.474l.011-8.5a3.452,3.452,0,0,0-1.016-2.46,3.455,3.455,0,0,0-2.458-1.022l-32.36-.041a3.483,3.483,0,0,0-3.479,3.29c0,.061,0,.123-.005.184l-.01,8.5a3.481,3.481,0,0,0,3.473,3.482l13.248.017Zm-21.351-3.505.01-8.5a2.151,2.151,0,0,1,2.159-2.154l32.361.041a2.16,2.16,0,0,1,2.154,2.16l-.011,8.5c0,.039,0,.076,0,.114a2.159,2.159,0,0,1-2.156,2.04l-32.361-.041A2.158,2.158,0,0,1-473.283,276.076Z" fill="#fff"/><path d="M-438.767,279.748h0l-32.361-.041a3.632,3.632,0,0,1-3.623-3.632l.01-8.5c0-.065,0-.129.005-.191a3.627,3.627,0,0,1,3.623-3.433h.006l32.36.041a3.606,3.606,0,0,1,2.564,1.066,3.6,3.6,0,0,1,1.06,2.566l-.011,8.5A3.627,3.627,0,0,1-438.767,279.748Zm-32.35-15.494a3.327,3.327,0,0,0-3.324,3.148c0,.058,0,.119,0,.178l-.01,8.5a3.331,3.331,0,0,0,3.323,3.332l32.361.041,0,.15v-.15a3.328,3.328,0,0,0,3.329-3.326l.011-8.495a3.3,3.3,0,0,0-.972-2.354,3.308,3.308,0,0,0-2.352-.978Zm32.35,14.172-32.363-.041a2.289,2.289,0,0,1-1.629-.678,2.29,2.29,0,0,1-.674-1.631l.01-8.5a2.249,2.249,0,0,1,.659-1.615,2.3,2.3,0,0,1,1.648-.689h0l32.361.041a2.293,2.293,0,0,1,1.63.679,2.29,2.29,0,0,1,.674,1.631l-.011,8.5c0,.042,0,.081,0,.122A2.305,2.305,0,0,1-438.767,278.426Zm-32.349-13v.15a2,2,0,0,0-1.435.6,1.952,1.952,0,0,0-.572,1.4l-.01,8.5a1.992,1.992,0,0,0,.586,1.419,1.991,1.991,0,0,0,1.417.59l32.361.041a2.006,2.006,0,0,0,2.006-1.9c0-.035,0-.07,0-.106l.011-8.5a1.992,1.992,0,0,0-.587-1.419,2,2,0,0,0-1.418-.591l-32.361-.041Z" fill="#fff"/></g></svg>