<svg xmlns="http://www.w3.org/2000/svg" xmlns:xlink="http://www.w3.org/1999/xlink" width="60.315" height="55.221" viewBox="0 0 60.315 55.221"><defs><linearGradient id="a" x1="0.063" y1="0.215" x2="0.946" y2="0.813" gradientUnits="objectBoundingBox"><stop offset="0" stop-color="#d4683b"/><stop offset="0.489" stop-color="#cd532d"/><stop offset="1" stop-color="#be1d12"/></linearGradient></defs><g transform="translate(1098 -1502.037)"><g transform="translate(-610.167 1259.959)"><path d="M-480.3,294.867c-5.532-5.725,1.336-29.648,5.133-38.588,5.961-14.035,20.4-21.64,37.748-3.693h0c17.4,18,9.286,31.538-4.521,37.646C-450.574,294.051-474.375,301-480.3,294.867Z" fill="url(#a)"/><path d="M-479.377,246.4a8.436,8.436,0,0,1,8.459,8.337,8.435,8.435,0,0,1-8.466,8.33,8.432,8.432,0,0,1-8.449-8.328A8.433,8.433,0,0,1-479.377,246.4Z" fill="#bff707"/><path d="M-480.12,258.356l-3.46-2.727,1.238-1.571,1.99,1.569,3.733-4.139,1.485,1.34Z"/></g><g transform="translate(-611.167 871.194)"><path d="M-456.126,672.972h13.384c.637,0,.9-.257.9-.889v-16.1a3.281,3.281,0,0,0-3.378-3.388q-1.728-.008-3.451,0h-.005a.441.441,0,0,1-.467-.324c-.2-.535-.428-1.072-.666-1.595a.412.412,0,0,1,.1-.538c.236-.218.457-.447.664-.662a.7.7,0,0,0,0-1.069q-1.182-1.194-2.377-2.372a.7.7,0,0,0-1.048,0c-.268.253-.478.464-.66.663a.431.431,0,0,1-.567.1c-.545-.249-1.081-.472-1.593-.666a.41.41,0,0,1-.306-.452c.009-.333.008-.667,0-1a.7.7,0,0,0-.738-.741c-1.13-.007-2.259-.009-3.389,0a.692.692,0,0,0-.722.724c-.01.382-.009.7,0,1a.438.438,0,0,1-.323.476c-.51.194-1.031.413-1.593.669a.416.416,0,0,1-.541-.1c-.167-.183-.346-.357-.523-.532l-.094-.091a.731.731,0,0,0-1.157,0q-1.14,1.128-2.268,2.268a.733.733,0,0,0,.017,1.2c.173.173.352.341.515.495l.281.266-.253.647c-.188.478-.366.932-.552,1.382a.47.47,0,0,1-.377.246c-.192.011-.383.012-.576.008-.146,0-.291,0-.437,0a.7.7,0,0,0-.718.728q-.01,1.7,0,3.389a.714.714,0,0,0,.745.736c.314.008.629.009.94,0a.423.423,0,0,1,.455.3c.189.5.41,1.028.677,1.623a.392.392,0,0,1-.1.511c-.219.206-.443.431-.685.686a.694.694,0,0,0,0,1.045q1.178,1.2,2.372,2.378a.709.709,0,0,0,1.07,0l.063-.061c.187-.179.38-.364.549-.559a.489.489,0,0,1,.372-.2.634.634,0,0,1,.31.1,6.236,6.236,0,0,0,.687.322l.157.067a2.665,2.665,0,0,0,.286.094,1.07,1.07,0,0,1,.616.331,1.145,1.145,0,0,1,.091.737c-.008.092-.016.184-.015.271,0,.726.228.946.96.946h2.479v6.034C-457.011,672.721-456.763,672.972-456.126,672.972Zm10.868-18.916.139-.011a1.657,1.657,0,0,1,1.239.455,1.865,1.865,0,0,1,.6,1.368v.149h-1.976Zm-1.44-.018v1.112c0,.51,0,1.019,0,1.529a.7.7,0,0,0,.769.768c.6.005,1.2,0,1.8,0h.842v14.1h-12.29V654.038ZM-457.03,664.6h-2v-.406c0-.21,0-.417,0-.624a.738.738,0,0,0-.672-.849,8.082,8.082,0,0,1-2.569-1.073.743.743,0,0,0-1.075.121c-.143.142-.277.291-.407.435l-.28.306-1.495-1.488.116-.1.209-.188c.152-.136.312-.276.461-.427a.694.694,0,0,0,.111-1,8.238,8.238,0,0,1-1.11-2.653.706.706,0,0,0-.8-.619c-.215,0-.431,0-.652,0h-.426v-2.018h1.015a.754.754,0,0,0,.87-.687,8.166,8.166,0,0,1,1.08-2.568.7.7,0,0,0-.111-1.043c-.145-.142-.3-.274-.456-.406-.073-.062-.146-.125-.217-.188l-.121-.106,1.483-1.468.293.291c.146.148.3.3.455.453a.713.713,0,0,0,1.024.113,8.141,8.141,0,0,1,2.566-1.085.757.757,0,0,0,.7-.889v-1.056h2.017v.454c0,.232,0,.463,0,.7a.706.706,0,0,0,.606.776,8.268,8.268,0,0,1,2.683,1.121.689.689,0,0,0,.973-.112c.155-.153.3-.313.447-.471l.293-.318,1.475,1.506-.265.23c-.115.1-.242.207-.36.325-.506.5-.529.686-.164,1.316.18.31.341.631.512.971.081.162.165.328.254.5l.113.219h-.724c-.466,0-.892,0-1.317-.01-.177-.005-.311-.222-.348-.288a5.854,5.854,0,0,0-4.218-3.056,5.757,5.757,0,0,0-4.455,1.066,5.78,5.78,0,0,0-2.339,3.958,5.756,5.756,0,0,0,4.793,6.524,8.878,8.878,0,0,0,1.26.09c.2,0,.411.009.618.021l.143.008Zm-.395-5.178a4.34,4.34,0,0,1-.662.05,4.371,4.371,0,0,1-2.608-.867,4.333,4.333,0,0,1-1.724-2.871,4.552,4.552,0,0,1,.881-3.438,4.285,4.285,0,0,1,2.893-1.679,4.354,4.354,0,0,1,3.968,1.484c.032.035.062.073.109.134l.279.356H-456.1c-.672,0-.91.237-.91.9v.837q0,2.3,0,4.6A.423.423,0,0,1-457.425,659.422Z" fill="#fff"/><path d="M-445.284,662.336c.021-.557.021-1.149,0-1.759a.729.729,0,0,0-.278-.548.629.629,0,0,0-.515-.129c-.583.121-1.2.276-1.881.475a.624.624,0,0,0-.454.6.673.673,0,0,0,.355.678c.049.029.1.058.151.087l.222.125-1.882,2.814-.129-.135c-.108-.114-.211-.224-.311-.332-.213-.23-.416-.446-.626-.653a.689.689,0,0,0-1.021-.013c-.556.54-1.108,1.1-1.644,1.642l-.06.062a.669.669,0,0,0-.2.669.711.711,0,0,0,.49.523.714.714,0,0,0,.706-.188c.255-.244.5-.5.736-.756.107-.114.212-.227.318-.336l.083-.087.176.1a.352.352,0,0,1,.075.051l.374.373c.2.2.4.4.6.595a.806.806,0,0,0,.644.275.808.808,0,0,0,.571-.4q.588-.876,1.17-1.753l.744-1.117c.044-.066.09-.13.137-.2l.128-.178.323.137a.756.756,0,0,0,.69-.057A.7.7,0,0,0-445.284,662.336Z" fill="#fff"/></g></g></svg>