<svg xmlns="http://www.w3.org/2000/svg" xmlns:xlink="http://www.w3.org/1999/xlink" width="60.315" height="55.221" viewBox="0 0 60.315 55.221"><defs><linearGradient id="a" x1="0.063" y1="0.215" x2="0.946" y2="0.813" gradientUnits="objectBoundingBox"><stop offset="0" stop-color="#d4683b"/><stop offset="0.489" stop-color="#cd532d"/><stop offset="1" stop-color="#be1d12"/></linearGradient></defs><g transform="translate(1098 -1502.037)"><g transform="translate(-610.167 1259.959)"><path d="M-480.3,294.867c-5.532-5.725,1.336-29.648,5.133-38.588,5.961-14.035,20.4-21.64,37.748-3.693h0c17.4,18,9.286,31.538-4.521,37.646C-450.574,294.051-474.375,301-480.3,294.867Z" fill="url(#a)"/><path d="M-479.377,246.4a8.436,8.436,0,0,1,8.459,8.337,8.435,8.435,0,0,1-8.466,8.33,8.432,8.432,0,0,1-8.449-8.328A8.433,8.433,0,0,1-479.377,246.4Z" fill="#bff707"/><path d="M-480.12,258.356l-3.46-2.727,1.238-1.571,1.99,1.569,3.733-4.139,1.485,1.34Z"/></g><g transform="translate(-610.167 1028.491)"><path d="M-465.206,509.359q0,2.886,0,5.771a2.7,2.7,0,0,0,2.879,2.882q4.637,0,9.275,0h3.71a2.8,2.8,0,0,0,1.8-.572,2.842,2.842,0,0,0,1.062-2.395q-.006-8.909,0-17.819v-7.956c0-.085,0-.17,0-.254a2.693,2.693,0,0,0-2.793-2.671q-6.574-.017-13.151,0a2.713,2.713,0,0,0-1.708.56,2.815,2.815,0,0,0-1.076,2.388q.009,5.154,0,10.308v9.758Zm17.091,6.132a1,1,0,0,1-.9.9,3.167,3.167,0,0,1-.452.023h-12.719c-1.028,0-1.411-.381-1.411-1.405,0-.462,0-.923.006-1.385v-.347a.283.283,0,0,1,.023-.1l.05-.148h15.415v.15c0,.231,0,.459,0,.688C-448.1,514.4-448.091,514.951-448.115,515.491ZM-463.6,489.219a1.125,1.125,0,0,1,1.274-1.272l6.763,0h2.806q1.672,0,3.346,0c.915,0,1.325.407,1.33,1.314,0,.373,0,.746,0,1.129v.742h-3.258q-5.853,0-11.711.008h-.007a.581.581,0,0,1-.44-.136.551.551,0,0,1-.11-.426c.019-.295.014-.6.011-.893C-463.6,489.529-463.6,489.374-463.6,489.219Zm.513,3.5q5.538.012,11.076.008h3.407c.074,0,.15,0,.233.009l.271.013v18.627h-15.473l-.015-.253c-.006-.08-.012-.155-.012-.23v-2.715q0-7.465-.007-14.931C-463.607,492.869-463.461,492.72-463.087,492.72Z" fill="#fff"/><path d="M-455.823,496.942a5.264,5.264,0,0,0-5.254,5.212,5.155,5.155,0,0,0,1.513,3.7,5.212,5.212,0,0,0,3.723,1.561,5.246,5.246,0,0,0,5.235-5.228A5.245,5.245,0,0,0-455.823,496.942Zm2.775,8a3.92,3.92,0,0,1-2.794,1.16,3.938,3.938,0,0,1-3.929-3.914,3.907,3.907,0,0,1,1.15-2.794,3.9,3.9,0,0,1,2.774-1.148,3.951,3.951,0,0,1,3.941,3.915A3.9,3.9,0,0,1-453.048,504.946Z" fill="#fff"/><path d="M-454.957,514.126c-.283,0-.574-.006-.877-.006-.281,0-.573,0-.878.005a.605.605,0,0,0-.645.6.6.6,0,0,0,.637.589c.192.006.383,0,.573,0h1.2a.6.6,0,0,0,.625-.6A.594.594,0,0,0-454.957,514.126Z" fill="#fff"/><path d="M-457.8,502.763c.311.323.63.641.946.945a.655.655,0,0,0,.975.014c.693-.676,1.369-1.339,2.006-2.021a.961.961,0,0,0,.2-.573.569.569,0,0,0-.4-.536.619.619,0,0,0-.714.147c-.327.33-.65.665-1,1.029l-.6.626-.09-.113c-.054-.07-.1-.134-.145-.193a2.171,2.171,0,0,0-.223-.271.772.772,0,0,0-.531-.238.64.64,0,0,0-.462.2A.673.673,0,0,0-457.8,502.763Z" fill="#fff"/></g></g></svg>