<svg xmlns="http://www.w3.org/2000/svg" xmlns:xlink="http://www.w3.org/1999/xlink" width="60.315" height="55.221" viewBox="0 0 60.315 55.221"><defs><linearGradient id="a" x1="0.063" y1="0.215" x2="0.946" y2="0.813" gradientUnits="objectBoundingBox"><stop offset="0" stop-color="#d4683b"/><stop offset="0.489" stop-color="#cd532d"/><stop offset="1" stop-color="#be1d12"/></linearGradient></defs><g transform="translate(1098 -1502.037)"><g transform="translate(-610.167 1259.959)"><path d="M-480.3,294.867c-5.532-5.725,1.336-29.648,5.133-38.588,5.961-14.035,20.4-21.64,37.748-3.693h0c17.4,18,9.286,31.538-4.521,37.646C-450.574,294.051-474.375,301-480.3,294.867Z" fill="url(#a)"/><path d="M-479.377,246.4a8.436,8.436,0,0,1,8.459,8.337,8.435,8.435,0,0,1-8.466,8.33,8.432,8.432,0,0,1-8.449-8.328A8.433,8.433,0,0,1-479.377,246.4Z" fill="#bff707"/><path d="M-480.12,258.356l-3.46-2.727,1.238-1.571,1.99,1.569,3.733-4.139,1.485,1.34Z"/></g><g transform="translate(-611.167 948.829)"><path d="M-442.114,578.641q-.855-1.6-1.7-3.2A2.286,2.286,0,0,0-446,574.125h-.013c-2.156.008-4.314.005-6.471.006h-4.836c-2.147,0-4.291,0-6.437-.006h-.017a2.279,2.279,0,0,0-2.2,1.332c-.639,1.22-1.289,2.432-1.94,3.645l-.65,1.212a2.168,2.168,0,0,0,.341,2.724q5.8,6.355,11.608,12.706a3.057,3.057,0,0,0,.514.465,2.18,2.18,0,0,0,2.935-.454q1.027-1.122,2.052-2.246l3.95-4.324q2.825-3.093,5.646-6.187a2.155,2.155,0,0,0,.326-2.645Zm-4.44-2.93-3.392,4.637-3.39-4.637Zm-4.959,5.15h-6.758l3.377-4.624Zm-4.949-5.138-3.379,4.625-3.384-4.625Zm-8.226.657,3.281,4.486h-5.679Zm7.82,16.46-.093.21L-466.6,582.5l.452-.029c.094-.007.162-.012.229-.012h1.532q1.785,0,3.572,0h.011a.478.478,0,0,1,.527.341q1.4,4.041,2.819,8.076l.6,1.71A.322.322,0,0,1-456.868,592.84Zm2.117.173h-.287l-3.693-10.535h7.673Zm1.994-.038-.213-.12-.007-.144.176-.507q.306-.885.614-1.767l.615-1.755q1.02-2.9,2.031-5.811a.534.534,0,0,1,.577-.419h.009c1.269.01,2.537.01,3.8.007h1.268c.064,0,.129.005.215.01l.486.023Zm4.371-12.1,3.286-4.5,2.4,4.5Z" fill="#fff"/><path d="M-461.948,565.046a.84.84,0,0,0-.7.372.752.752,0,0,0-.057.714c.787,1.825,1.571,3.6,2.233,5.095a.76.76,0,0,0,1.014.426.781.781,0,0,0,.43-.429.791.791,0,0,0-.015-.613q-1.1-2.553-2.231-5.094A.756.756,0,0,0-461.948,565.046Z" fill="#fff"/><path d="M-448.536,565.566l-.636,1.452q-.78,1.774-1.55,3.553a1,1,0,0,0-.073.5.762.762,0,0,0,.667.642.79.79,0,0,0,.823-.5c.425-.954.843-1.91,1.262-2.867l.448-1.016c.173-.39.346-.782.508-1.176a.786.786,0,0,0-.067-.749.829.829,0,0,0-.7-.353h0A.792.792,0,0,0-448.536,565.566Z" fill="#fff"/><path d="M-455.673,570.856a.788.788,0,0,0,.77.856h.01a.739.739,0,0,0,.531-.209.914.914,0,0,0,.247-.659q0-2.454,0-4.907a.8.8,0,0,0-.771-.891h-.011a.727.727,0,0,0-.521.2.971.971,0,0,0-.256.7c0,.539,0,1.077,0,1.615v1.552Q-455.676,569.985-455.673,570.856Z" fill="#fff"/></g></g></svg>