<svg xmlns="http://www.w3.org/2000/svg" xmlns:xlink="http://www.w3.org/1999/xlink" width="701" height="106" viewBox="0 0 701 106"><defs><clipPath id="a"><rect width="701" height="105" transform="translate(2543 2204)" fill="#fff" stroke="#707070" stroke-width="1"/></clipPath><linearGradient id="b" x1="0.5" y1="-0.194" x2="0.5" y2="1.174" gradientUnits="objectBoundingBox"><stop offset="0" stop-color="#0003aa"/><stop offset="0.675" stop-color="#69306e"/><stop offset="0.783" stop-color="#72448f"/><stop offset="1" stop-color="#8a75dd"/></linearGradient></defs><g transform="translate(-2543 -2305)"><rect width="701" height="106" transform="translate(2543 2305)"/><g transform="translate(0 102)" clip-path="url(#a)"><path d="M700.758,2163.319H0V1983.755H700.758ZM559.556,1982.3H549.2v-7.562h10.36Zm0-9.1H549.2v-7.561h10.36Zm14.12,18.2H563.315v-7.561h10.361Zm0-9.1H563.315v-7.562h10.361Zm0-9.1H563.315v-7.561h10.361Zm0-9.1H563.315v-7.562h10.361Zm0-9.1H563.315v-7.562h10.361Zm0-9.1H563.315v-7.562h10.361Zm0-9.1H563.315v-7.562h10.361Zm0-9.1H563.315v-7.561h10.361Zm0-9.1H563.315v-7.561h10.361Zm0-9.1H563.315v-7.56h10.361ZM587.8,1991.4H577.435v-7.561H587.8Zm0-9.1H577.435v-7.562H587.8Zm0-9.1H577.435v-7.561H587.8Zm0-9.1H577.435v-7.562H587.8Zm14.118,27.293H591.557v-7.561h10.357Zm0-9.1H591.557v-7.562h10.357Zm0-9.1H591.557v-7.561h10.357Zm0-9.1H591.557v-7.562h10.357Zm0-9.1H591.557v-7.562h10.357Zm0-9.1H591.557v-7.562h10.357Zm0-9.1H591.557v-7.562h10.357Zm14.12,54.587H605.676v-7.561h10.358Zm0-9.1H605.676v-7.562h10.358Zm0-9.1H605.676v-7.561h10.358Zm0-9.1H605.676v-7.562h10.358Zm0-9.1H605.676v-7.562h10.358Zm0-9.1H605.676v-7.562h10.358Zm0-9.1H605.676v-7.562h10.358Zm0-9.1H605.676v-7.561h10.358Zm0-9.1H605.676v-7.561h10.358Zm14.123,72.783H619.8v-7.561h10.361Zm0-9.1H619.8v-7.562h10.361Zm0-9.1H619.8v-7.561h10.361Zm0-9.1H619.8v-7.562h10.361Zm14.119,27.293h-10.36v-7.561h10.36Zm0-9.1h-10.36v-7.562h10.36Zm0-9.1h-10.36v-7.561h10.36Zm0-9.1h-10.36v-7.562h10.36Zm0-9.1h-10.36v-7.562h10.36Zm0-9.1h-10.36v-7.562h10.36Zm0-9.1h-10.36v-7.562h10.36Zm0-9.1h-10.36v-7.561h10.36ZM658.4,1991.4H648.039v-7.561H658.4Zm0-9.1H648.039v-7.562H658.4Zm0-9.1H648.039v-7.561H658.4Zm0-9.1H648.039v-7.562H658.4Zm0-9.1H648.039v-7.562H658.4Zm0-9.1H648.039v-7.562H658.4Zm0-9.1H648.039v-7.562H658.4Zm0-9.1H648.039v-7.561H658.4Zm0-9.1H648.039v-7.561H658.4Zm0-9.1H648.039v-7.56H658.4Zm14.12,81.881H662.158v-7.561h10.358Zm0-9.1H662.158v-7.562h10.358Zm0-9.1H662.158v-7.561h10.358Zm0-9.1H662.158v-7.562h10.358Zm0-9.1H662.158v-7.562h10.358Zm14.122,36.391H676.277v-7.561h10.361Zm0-9.1H676.277v-7.562h10.361Zm0-9.1H676.277v-7.561h10.361Zm0-9.1H676.277v-7.562h10.361Zm0-9.1H676.277v-7.562h10.361Zm0-9.1H676.277v-7.562h10.361Zm0-9.1H676.277v-7.562h10.361Zm0-9.1H676.277v-7.561h10.361Zm14.12,63.685H690.4v-7.561h10.361Zm0-9.1H690.4v-7.562h10.361Zm0-9.1H690.4v-7.561h10.361Zm0-9.1H690.4v-7.562h10.361Zm0-9.1H690.4v-7.562h10.361Zm-296.643,36.318H393.754v-7.562h10.361Zm0-9.1H393.754v-7.562h10.361Zm0-9.1H393.754v-7.562h10.361Zm14.119,18.2h-10.36v-7.562h10.36Zm0-9.1h-10.36v-7.562h10.36Zm0-9.1h-10.36v-7.562h10.36Zm0-9.1h-10.36v-7.562h10.36Zm0-9.1h-10.36v-7.562h10.36Zm0-9.1h-10.36v-7.562h10.36Zm14.12,45.488H421.993v-7.562h10.361Zm0-9.1H421.993v-7.562h10.361Zm0-9.1H421.993v-7.562h10.361Zm0-9.1H421.993v-7.562h10.361Zm14.12,27.293H436.116v-7.562h10.358Zm0-9.1H436.116v-7.562h10.358Zm0-9.1H436.116v-7.562h10.358Zm0-9.1H436.116v-7.562h10.358Zm0-9.1H436.116v-7.562h10.358Zm0-9.1H436.116v-7.562h10.358Zm0-9.1H436.116v-7.561h10.358Zm14.12,54.587H450.236v-7.562h10.358Zm0-9.1H450.236v-7.562h10.358Zm0-9.1H450.236v-7.562h10.358Zm14.122,18.2h-10.36v-7.562h10.36Zm0-9.1h-10.36v-7.562h10.36Zm0-9.1h-10.36v-7.562h10.36Zm0-9.1h-10.36v-7.562h10.36Zm14.12,27.293H478.475v-7.562h10.361Zm0-9.1H478.475v-7.562h10.361Zm0-9.1H478.475v-7.562h10.361Zm0-9.1H478.475v-7.562h10.361Zm0-9.1H478.475v-7.562h10.361Zm0-9.1H478.475v-7.562h10.361Zm0-9.1H478.475v-7.561h10.361Zm0-9.1H478.475v-7.56h10.361Zm14.122,63.685H492.6v-7.562h10.361Zm0-9.1H492.6v-7.562h10.361Zm0-9.1H492.6v-7.562h10.361Zm0-9.1H492.6v-7.562h10.361Zm0-9.1H492.6v-7.562h10.361Zm0-9.1H492.6v-7.562h10.361Zm14.12,45.488H506.717v-7.562h10.361Zm0-9.1H506.717v-7.562h10.361Zm0-9.1H506.717v-7.562h10.361Zm0-9.1H506.717v-7.562h10.361Zm0-9.1H506.717v-7.562h10.361Zm14.12,36.391H520.837v-7.562H531.2Zm0-9.1H520.837v-7.562H531.2Zm0-9.1H520.837v-7.562H531.2Zm0-9.1H520.837v-7.562H531.2Zm0-9.1H520.837v-7.562H531.2Zm0-9.1H520.837v-7.562H531.2Zm0-9.1H520.837v-7.561H531.2Zm0-9.1H520.837v-7.56H531.2Zm14.119,63.685h-10.36v-7.562h10.36Zm0-9.1h-10.36v-7.562h10.36Zm0-9.1h-10.36v-7.562h10.36Zm0-9.1h-10.36v-7.562h10.36Zm0-9.1h-10.36v-7.562h10.36Zm-295.733,36.391H239.226v-7.562h10.358Zm14.12,0H253.345v-7.562H263.7Zm14.121,0h-10.36v-7.562h10.36Zm14.12,0H281.587v-7.562h10.358Zm14.12,0H295.706v-7.562h10.359Zm14.122,0H309.826v-7.562h10.361Zm14.12,0H323.946v-7.562h10.361Zm0-9.1H323.946v-7.561h10.361Zm14.119,9.1h-10.36v-7.562h10.36Zm14.123,0h-10.36v-7.562h10.36Zm0-9.1h-10.36v-7.561h10.36Zm14.12,9.1h-10.36v-7.562h10.36Zm0-9.1h-10.36v-7.561h10.36Zm0-9.1h-10.36v-7.563h10.36Zm14.119,18.2h-10.36v-7.562h10.36Zm0-9.1h-10.36v-7.561h10.36Zm0-9.1h-10.36v-7.563h10.36Zm0-9.1h-10.36v-7.563h10.36Z" transform="translate(2543 326.041)" fill="url(#b)"/></g></g></svg>