<svg xmlns="http://www.w3.org/2000/svg" xmlns:xlink="http://www.w3.org/1999/xlink" width="697" height="99" viewBox="0 0 697 99"><defs><clipPath id="a"><rect width="697" height="99" transform="translate(1623 1635)" fill="#fff" stroke="#707070" stroke-width="1"/></clipPath><linearGradient id="b" x1="0.5" y1="0.188" x2="0.5" y2="1.214" gradientUnits="objectBoundingBox"><stop offset="0.309" stop-color="#0003aa"/><stop offset="0.643" stop-color="#69306e"/><stop offset="0.723" stop-color="#72448f"/><stop offset="0.884" stop-color="#8a75dd"/></linearGradient></defs><g transform="translate(-1623 -1635)" clip-path="url(#a)"><path d="M696.61,2743.651H-.056V2534.212H696.61ZM554.627,2532.76H544.21V2525.2h10.417Zm0-9.1H544.21V2516.1h10.417Zm14.2,18.2H558.407V2534.3h10.418Zm0-9.1H558.407V2525.2h10.418Zm0-9.1H558.407V2516.1h10.418Zm0-9.1H558.407V2507h10.418Zm0-9.1H558.407V2497.9h10.418Zm0-9.1H558.407v-7.562h10.418Zm0-9.1H558.407v-7.562h10.418Zm0-9.1H558.407v-7.561h10.418Zm0-9.1H558.407v-7.56h10.418Zm0-9.1H558.407v-7.561h10.418Zm14.2,81.88H572.6V2534.3h10.418Zm0-9.1H572.6V2525.2h10.418Zm0-9.1H572.6V2516.1h10.418Zm0-9.1H572.6V2507h10.418Zm14.2,27.293H586.8V2534.3H597.22Zm0-9.1H586.8V2525.2H597.22Zm0-9.1H586.8V2516.1H597.22Zm0-9.1H586.8V2507H597.22Zm0-9.1H586.8V2497.9H597.22Zm0-9.1H586.8v-7.562H597.22Zm0-9.1H586.8v-7.562H597.22Zm14.2,54.587H601V2534.3h10.415Zm0-9.1H601V2525.2h10.415Zm0-9.1H601V2516.1h10.415Zm0-9.1H601V2507h10.415Zm0-9.1H601V2497.9h10.415Zm0-9.1H601v-7.562h10.415Zm0-9.1H601v-7.562h10.415Zm0-9.1H601v-7.561h10.415Zm0-9.1H601v-7.56h10.415Zm14.2,72.783H615.2V2534.3h10.418Zm0-9.1H615.2V2525.2h10.418Zm0-9.1H615.2V2516.1h10.418Zm0-9.1H615.2V2507h10.418Zm14.2,27.293H629.4V2534.3h10.417Zm0-9.1H629.4V2525.2h10.417Zm0-9.1H629.4V2516.1h10.417Zm0-9.1H629.4V2507h10.417Zm0-9.1H629.4V2497.9h10.417Zm0-9.1H629.4v-7.562h10.417Zm0-9.1H629.4v-7.562h10.417Zm0-9.1H629.4v-7.561h10.417Zm14.2,63.685H643.6V2534.3h10.415Zm0-9.1H643.6V2525.2h10.415Zm0-9.1H643.6V2516.1h10.415Zm0-9.1H643.6V2507h10.415Zm0-9.1H643.6V2497.9h10.415Zm0-9.1H643.6v-7.562h10.415Zm0-9.1H643.6v-7.562h10.415Zm0-9.1H643.6v-7.561h10.415Zm0-9.1H643.6v-7.56h10.415Zm0-9.1H643.6v-7.561h10.415Zm14.2,81.88H657.8V2534.3h10.416Zm0-9.1H657.8V2525.2h10.416Zm0-9.1H657.8V2516.1h10.416Zm0-9.1H657.8V2507h10.416Zm0-9.1H657.8V2497.9h10.416Zm14.2,36.391H671.995V2534.3h10.417Zm0-9.1H671.995V2525.2h10.417Zm0-9.1H671.995V2516.1h10.417Zm0-9.1H671.995V2507h10.417Zm0-9.1H671.995V2497.9h10.417Zm0-9.1H671.995v-7.562h10.417Zm0-9.1H671.995v-7.562h10.417Zm0-9.1H671.995v-7.561h10.417Zm14.2,63.685H686.193V2534.3H696.61Zm0-9.1H686.193V2525.2H696.61Zm0-9.1H686.193V2516.1H696.61Zm0-9.1H686.193V2507H696.61Zm0-9.1H686.193V2497.9H696.61Zm-298.284,36.318H387.908v-7.562h10.418Zm0-9.1H387.908v-7.562h10.418Zm0-9.1H387.908v-7.562h10.418Zm14.2,18.195H402.106v-7.562h10.417Zm0-9.1H402.106v-7.562h10.417Zm0-9.1H402.106v-7.562h10.417Zm0-9.1H402.106v-7.562h10.417Zm0-9.1H402.106v-7.562h10.417Zm0-9.1H402.106v-7.562h10.417Zm14.2,45.488H416.3v-7.562h10.419Zm0-9.1H416.3v-7.562h10.419Zm0-9.1H416.3v-7.562h10.419Zm0-9.1H416.3v-7.562h10.419Zm14.2,27.293H430.505v-7.562h10.414Zm0-9.1H430.505v-7.562h10.414Zm0-9.1H430.505v-7.562h10.414Zm0-9.1H430.505v-7.562h10.414Zm0-9.1H430.505v-7.562h10.414Zm0-9.1H430.505v-7.562h10.414Zm0-9.1H430.505v-7.561h10.414Zm14.2,54.587H444.7v-7.562h10.415Zm0-9.1H444.7v-7.562h10.415Zm0-9.1H444.7v-7.562h10.415Zm14.2,18.195H458.9v-7.562h10.418Zm0-9.1H458.9v-7.562h10.418Zm0-9.1H458.9v-7.562h10.418Zm0-9.1H458.9v-7.562h10.418Zm14.2,27.293H473.1v-7.562h10.418Zm0-9.1H473.1v-7.562h10.418Zm0-9.1H473.1v-7.562h10.418Zm0-9.1H473.1v-7.562h10.418Zm0-9.1H473.1v-7.562h10.418Zm0-9.1H473.1v-7.562h10.418Zm0-9.1H473.1v-7.561h10.418Zm0-9.1H473.1v-7.56h10.418Zm14.2,63.685H487.3v-7.562h10.418Zm0-9.1H487.3v-7.562h10.418Zm0-9.1H487.3v-7.562h10.418Zm0-9.1H487.3v-7.562h10.418Zm0-9.1H487.3v-7.562h10.418Zm0-9.1H487.3v-7.562h10.418Zm14.2,45.488H501.5v-7.562h10.418Zm0-9.1H501.5v-7.562h10.418Zm0-9.1H501.5v-7.562h10.418Zm0-9.1H501.5v-7.562h10.418Zm0-9.1H501.5v-7.562h10.418Zm14.2,36.391H515.694v-7.562h10.418Zm0-9.1H515.694v-7.562h10.418Zm0-9.1H515.694v-7.562h10.418Zm0-9.1H515.694v-7.562h10.418Zm0-9.1H515.694v-7.562h10.418Zm0-9.1H515.694v-7.562h10.418Zm0-9.1H515.694v-7.561h10.418Zm0-9.1H515.694v-7.56h10.418Zm14.2,63.685H529.892v-7.562H540.31Zm0-9.1H529.892v-7.562H540.31Zm0-9.1H529.892v-7.562H540.31Zm0-9.1H529.892v-7.562H540.31Zm0-9.1H529.892v-7.562H540.31Zm-297.37,36.391H232.524v-7.562H242.94Zm14.2,0H246.722v-7.562h10.416Zm14.2,0H260.92v-7.562h10.418Zm14.2,0H275.12v-7.562h10.416Zm14.2,0H289.318v-7.562h10.416Zm14.2,0H303.516v-7.562h10.418Zm14.2,0H317.714v-7.562h10.418Zm0-9.1H317.714v-7.561h10.418Zm14.2,9.1H331.912v-7.562h10.417Zm14.2,0H346.113v-7.562h10.418Zm0-9.1H346.113v-7.561h10.418Zm14.2,9.1H360.311v-7.562h10.417Zm0-9.1H360.311v-7.561h10.417Zm0-9.1H360.311v-7.563h10.417Zm14.2,18.195H374.508v-7.562h10.417Zm0-9.1H374.508v-7.561h10.417Zm0-9.1H374.508v-7.563h10.417Zm0-9.1H374.508v-7.563h10.417Z" transform="translate(1623.041 -799.416)" fill="url(#b)"/></g></svg>