<svg xmlns="http://www.w3.org/2000/svg" xmlns:xlink="http://www.w3.org/1999/xlink" width="23.17" height="23.172" viewBox="0 0 23.17 23.172"><defs><clipPath id="a"><rect width="23.17" height="23.172" transform="translate(0 0)" fill="none"/></clipPath></defs><g transform="translate(0 0)"><g clip-path="url(#a)"><path d="M22.443,0H.857A1.646,1.646,0,0,0,.671,0,.664.664,0,0,0,0,.695Q0,1.994,0,3.3a.683.683,0,0,0,.628.691,2.2,2.2,0,0,0,.261.009h.2V16.6c0,.688.222.909.913.909H9.8L4.5,21.867a1.34,1.34,0,0,0-.192.182.679.679,0,0,0,.857,1.027,2.86,2.86,0,0,0,.339-.252l5.4-4.442v.9q0,1.572,0,3.143a.735.735,0,0,0,.239.589.693.693,0,0,0,1.124-.614V18.378l4.172,3.434c.488.4.976.805,1.47,1.2a.7.7,0,0,0,.44.161.585.585,0,0,0,.073,0,.687.687,0,0,0,.368-1.2c-.086-.082-.179-.157-.271-.232L13.371,17.5h7.765c.726,0,.936-.21.936-.937V4.357a1.517,1.517,0,0,0-.015-.333,2.09,2.09,0,0,1,.371-.03l.076,0a.694.694,0,0,0,.663-.72q.008-1.273,0-2.547A.679.679,0,0,0,22.443,0M20.712,16.054c0,.037,0,.06,0,.074-.017,0-.044,0-.08,0q-9.049-.009-18.1,0H2.462a.669.669,0,0,1,0-.079q.01-4.879.006-9.76V4.011H20.706v2.44q0,4.8.006,9.6M1.361,1.406c0-.018,0-.031,0-.042a.408.408,0,0,1,.052,0c1.136.007,2.273.006,3.413.006H21.8c0,.027,0,.057,0,.085v.37c0,.253,0,.506,0,.792-.037,0-.074,0-.112,0H1.532c-.056,0-.118,0-.164,0,0-.047,0-.11,0-.169l0-.306c0-.245.006-.491-.007-.734" fill="#fff"/><path d="M11.586,10.288q-2.108,0-4.215,0c-.38,0-.555-.133-.57-.412a.4.4,0,0,1,.35-.459A1.655,1.655,0,0,1,7.458,9.4q4.125,0,8.25,0a1.561,1.561,0,0,1,.381.039.367.367,0,0,1,.281.382.376.376,0,0,1-.267.419,1.377,1.377,0,0,1-.379.047q-2.068,0-4.138,0" fill="#fff"/><path d="M13.25,10.539H7.37c-.682,0-.8-.407-.819-.648A.643.643,0,0,1,7.1,9.172a1.781,1.781,0,0,1,.334-.023h0c2.766,0,5.516,0,8.265,0a1.783,1.783,0,0,1,.443.046.612.612,0,0,1,.469.617.622.622,0,0,1-.447.666,1.553,1.553,0,0,1-.449.058q-1.237,0-2.474,0m-1.664-.5h.828q1.653,0,3.309,0A1.123,1.123,0,0,0,16.031,10c.042-.013.093-.027.089-.172,0-.124-.054-.138-.094-.147a1.322,1.322,0,0,0-.318-.031q-4.127,0-8.25,0a1.794,1.794,0,0,0-.262.014c-.105.02-.153.055-.146.2,0,.086.01.175.321.176Z" fill="#fff"/><path d="M11.611,6.794q2.121,0,4.241,0c.365,0,.528.15.518.451a.4.4,0,0,1-.353.409.934.934,0,0,1-.2.01H7.356c-.393,0-.574-.155-.555-.472A.37.37,0,0,1,7.165,6.8c.162-.014.325-.01.488-.01h3.958" fill="#fff"/><path d="M15.887,7.916H7.356a.834.834,0,0,1-.641-.221.662.662,0,0,1-.163-.515.617.617,0,0,1,.591-.624c.14-.012.28-.011.422-.011h5.258q1.513,0,3.029,0a.792.792,0,0,1,.6.207.66.66,0,0,1,.17.5.65.65,0,0,1-.549.645.881.881,0,0,1-.184.017M7.47,7.043c-.095,0-.19,0-.284.01s-.128.031-.135.155a.219.219,0,0,0,.028.144c.015.014.076.063.277.063h8.456c.082,0,.126,0,.154-.005.127-.027.151-.078.154-.173a.217.217,0,0,0-.03-.137c-.012-.013-.065-.055-.239-.055q-1.515,0-3.028,0H7.47" fill="#fff"/><path d="M11.558,12.886q-2.119,0-4.24,0c-.357,0-.516-.136-.518-.423a.4.4,0,0,1,.353-.434,1.08,1.08,0,0,1,.2-.01h8.455c.375,0,.548.134.557.42a.389.389,0,0,1-.392.442c-.2.012-.411.006-.616.006h-3.8" fill="#fff"/><path d="M15.668,13.137H7.317c-.664,0-.766-.421-.767-.671a.653.653,0,0,1,.558-.682,1.233,1.233,0,0,1,.218-.013h8.487c.683,0,.8.414.807.661a.635.635,0,0,1-.627.7c-.108.006-.216.008-.325.008m-4.11-.5h3.981c.142,0,.283,0,.423-.007.1-.006.163-.038.158-.183,0-.1-.005-.178-.307-.178H7.358a.769.769,0,0,0-.162.005c-.088.016-.147.054-.146.186,0,.106,0,.175.268.175q1.515,0,3.028,0Z" fill="#fff"/></g></g></svg>