<svg xmlns="http://www.w3.org/2000/svg" width="53.63" height="53.63" viewBox="0 0 53.63 53.63"><g transform="translate(-108.169 -2899.678)"><circle cx="26.815" cy="26.815" r="26.815" transform="translate(108.169 2899.678)"/><path d="M148.077,2923.923a2.425,2.425,0,0,0-.01-3.58q-3.5-3.509-7.005-7.007a2.425,2.425,0,0,0-3.579-.015q-5.575,5.561-11.139,11.133l-1.855,1.857a2.528,2.528,0,0,0-.793,1.9,2.152,2.152,0,0,0,.578,1.454c.565.6,1.158,1.192,1.731,1.765l1.286,1.29c1.358,1.363,2.761,2.772,4.152,4.147a2.415,2.415,0,0,0,3.666.021C139.576,2932.434,143.939,2928.07,148.077,2923.923Zm-8.263-9.556,7.488,7.463-.224.026-8.391.933Zm-13.706,12.524,12.156-12.156-.1.821c-.06.481-.122.978-.188,1.474l-.46,3.442q-.276,2.057-.549,4.113c-.117.879-.35,1.109-1.248,1.228q-2.706.361-5.412.727l-3.9.523c-.061.008-.122.01-.172.012l-.33.018Zm7.813.786-.948,8.508-7.5-7.513,8.463-1.132Zm.758,6.54c.052-.5.1-1.014.163-1.53s.117-1.026.177-1.539c.127-1.1.258-2.231.367-3.348a.5.5,0,0,1,.542-.53,2.763,2.763,0,0,0,1.572-.58,2.594,2.594,0,0,0,.92-1.955.456.456,0,0,1,.472-.492c1.679-.179,3.357-.368,5.035-.557l1.834-.206c.08-.008.16-.012.217-.014l.333-.018-11.733,11.724Z" fill="#fff"/><path d="M123.848,2933.8a1.166,1.166,0,0,0,.208-.359q.024-.055.045-.1a.769.769,0,0,0-.42-.739.837.837,0,0,0-.345-.081.681.681,0,0,0-.488.212c-.969.954-1.7,1.69-2.381,2.386a.709.709,0,0,0-.005,1.055.721.721,0,0,0,1.054-.032C122.464,2935.214,123.183,2934.491,123.848,2933.8Z" fill="#fff"/><path d="M126.245,2938.892l-.517.516c-.183.18-.372.366-.541.56a.665.665,0,0,0-.1.78.822.822,0,0,0,.757.43c.033-.02.071-.041.113-.063a1.983,1.983,0,0,0,.423-.285c.558-.536,1.112-1.094,1.649-1.634l.537-.541a.928.928,0,0,0,.3-.65.665.665,0,0,0-.205-.478.707.707,0,0,0-.5-.216.908.908,0,0,0-.628.293C127.1,2938.031,126.674,2938.462,126.245,2938.892Z" fill="#fff"/><path d="M121.668,2938.689l-.4.4-.249.247c-.195.192-.4.39-.583.595a.681.681,0,0,0-.127.8.8.8,0,0,0,.758.437l.1-.048a1.342,1.342,0,0,0,.362-.22c.729-.706,1.486-1.462,2.314-2.314a.981.981,0,0,0,.233-.448.688.688,0,0,0-.361-.746.712.712,0,0,0-.35-.093.791.791,0,0,0-.553.244C122.425,2937.925,122.046,2938.307,121.668,2938.689Z" fill="#fff"/></g></svg>