<svg xmlns="http://www.w3.org/2000/svg" xmlns:xlink="http://www.w3.org/1999/xlink" width="648" height="86" viewBox="0 0 648 86"><defs><linearGradient id="a" y1="0.5" x2="1" y2="0.5" gradientUnits="objectBoundingBox"><stop offset="0" stop-color="#d3683b"/><stop offset="0.473" stop-color="#cc532d"/><stop offset="1" stop-color="#bd1d12"/></linearGradient><linearGradient id="b" x1="72.499" y1="56.41" x2="72.615" y2="56.41" gradientUnits="objectBoundingBox"><stop offset="0" stop-color="#bd1d12"/><stop offset="0.561" stop-color="#cc532d"/><stop offset="1" stop-color="#d3683b"/></linearGradient></defs><g transform="translate(905.9 -4567.6)"><path d="M-898.4,4653.6h-1V4569h1Z" fill="#d4d4d4"/><g transform="translate(-926 1260)"><path d="M27.2,3360.1a7.1,7.1,0,1,1,7.1-7.1A7.127,7.127,0,0,1,27.2,3360.1Z" fill="#fff"/><path d="M.012,1.1-.012.1l26-.6.023,1Z" transform="translate(36.5 3352.4)" fill="#d4d4d4"/><path d="M668.1,3378.3h-566c-19.8,0-35.9-11-35.9-24.5h0c0-13.5,16.1-24.5,35.9-24.5h566Z"/><circle cx="17.2" cy="17.2" r="17.2" transform="translate(624.1 3307.6)" fill="#fff"/><path d="M13.4-.5a13.9,13.9,0,0,1,9.829,23.728A13.9,13.9,0,1,1,3.571,3.571,13.809,13.809,0,0,1,13.4-.5Zm0,26.8A12.9,12.9,0,1,0,.5,13.4,12.915,12.915,0,0,0,13.4,26.3Z" transform="translate(627.9 3311.3)" fill="#707070"/><text transform="translate(634.694 3329.354)" fill="#c3341d" font-size="13" font-family="Gilroy-Bold, Gilroy" font-weight="700"><tspan x="0" y="0">01</tspan></text><circle cx="41.2" cy="41.2" r="41.2" transform="translate(42.9 3311.2)" fill="#fff"/><circle cx="35.5" cy="35.5" r="35.5" transform="translate(49.1 3317)" fill="url(#a)"/><path d="M31.6,3352.9a4.3,4.3,0,1,0-4.3,4.3h0a4.268,4.268,0,0,0,4.3-4.3Z" fill="url(#b)"/><g transform="translate(0.319)"><path d="M99.1,3351a2.871,2.871,0,0,0-1.7-4.7c-1.7-.3-3.6-.5-6-.9a.993.993,0,0,1-.8-.6c-.6-1.3-1.2-2.6-1.9-3.8l-.8-1.5a2.838,2.838,0,0,0-5.2,0l-2.7,5.4a.752.752,0,0,1-.7.5c-1.6.2-3.3.5-4.9.7l-1.1.2a3.047,3.047,0,0,0-1.6.8,2.878,2.878,0,0,0-.9,2.1,3.211,3.211,0,0,0,1,2.2l1.5,1.5c.9.9,1.9,1.8,2.8,2.7a.618.618,0,0,1,.2.7c-.3,1.7-.6,3.5-.9,5.2l-.1.8a2.978,2.978,0,0,0,.4,2.1,2.886,2.886,0,0,0,4,.9c1.6-.8,3.4-1.8,5.2-2.7a1.3,1.3,0,0,1,1,0c1.9,1,3.6,1.9,5.3,2.8a2.867,2.867,0,0,0,4.2-3.1,7.845,7.845,0,0,1-.2-1.4c-.2-1.3-.4-2.7-.7-4a1.661,1.661,0,0,1,.6-1.8C96.5,3353.7,97.8,3352.4,99.1,3351Zm-2-1.2c-1.6,1.6-3.3,3.2-4.8,4.7a1.31,1.31,0,0,0-.4,1.3c.3,1.7.6,3.3.9,5l.3,1.5v.3a.846.846,0,0,1-.2.6.5.5,0,0,1-.6,0c-.2-.1-.3-.2-.5-.2l-1.7-.9-3.9-2.1a1.532,1.532,0,0,0-1.6,0c-1.4.7-2.7,1.5-4.1,2.2l-1.6.8c-.1.1-.3.1-.4.2a.629.629,0,0,1-.6,0,.565.565,0,0,1-.2-.6h0l.9-5c.1-.6.2-1.3.3-1.9a1.31,1.31,0,0,0-.4-1.3c-1.1-1.1-2.2-2.2-3.3-3.2l-1.4-1.4h-.1c-.1,0-.1-.1-.2-.2a.1.1,0,0,0-.1-.1c-.1-.2-.2-.4-.1-.5a.822.822,0,0,1,.6-.4,9.843,9.843,0,0,1,1.7-.2c.3,0,.5-.1.8-.1.4-.1.9-.1,1.3-.2,1-.1,2-.3,2.9-.4a1.762,1.762,0,0,0,1.3-.9c.9-1.8,1.8-3.7,2.9-5.9.1-.2.4-.5.6-.5h0c.3,0,.5.3.6.5.8,1.6,1.9,3.7,2.9,5.9a1.663,1.663,0,0,0,1.4,1c2.2.3,4.3.6,6.5.9a1.012,1.012,0,0,1,.7.4A1.721,1.721,0,0,1,97.1,3349.8Z" fill="#fff"/><path d="M103.8,3357.7c-.7-.2-1.5-.5-2.2-.7l-.3-.1c-.1,0-.2-.1-.3-.1h0a1.2,1.2,0,0,0-1.2.9,1.146,1.146,0,0,0,.7,1.3c.9.3,1.7.6,2.6.9a1.129,1.129,0,0,0,1.5-.8A1.067,1.067,0,0,0,103.8,3357.7Z" fill="#fff"/><path d="M65.9,3359a1.263,1.263,0,0,0,1.4,1c.2-.1.5-.2.7-.3.7-.2,1.5-.5,2.3-.8.2-.1.3-.3.4-.4a1.387,1.387,0,0,0,0-.9,1.2,1.2,0,0,0-1-.7h-.2c-1,.3-1.9.6-2.8.9A1.012,1.012,0,0,0,65.9,3359Z" fill="#fff"/><path d="M97.6,3335.9c-.1,0-.3-.1-.4-.1a1.05,1.05,0,0,0-.9.5c-.5.7-1,1.3-1.5,2.1a1.15,1.15,0,0,0,.2,1.7,1.132,1.132,0,0,0,1.7-.4l.1-.1c.5-.6.9-1.2,1.4-1.9a.764.764,0,0,0,.2-.5c0-.1.1-.1.1-.2C98.3,3336.5,98,3336,97.6,3335.9Z" fill="#fff"/><path d="M86.5,3368.9a1.11,1.11,0,0,0-1.1-1.1h0a1.287,1.287,0,0,0-1.2,1.2v2.7a1.155,1.155,0,0,0,1.2,1.2h0a1.287,1.287,0,0,0,1.2-1.2V3370A4.908,4.908,0,0,1,86.5,3368.9Z" fill="#fff"/><path d="M72.4,3337.5c.5.7,1.1,1.5,1.7,2.4a1.1,1.1,0,0,0,1.2.3,1.35,1.35,0,0,0,.8-1.2v-.1c0-.1-.1-.2-.1-.3h0c-.6-.8-1.1-1.6-1.7-2.4a1.235,1.235,0,0,0-.8-.4,1.857,1.857,0,0,0-.7.2A1.062,1.062,0,0,0,72.4,3337.5Z" fill="#fff"/></g></g></g></svg>