<svg xmlns="http://www.w3.org/2000/svg" width="308.857" height="94.699" viewBox="0 0 308.857 94.699"><g transform="translate(-111.806 -667.365)"><path d="M393.113,667.376c.49-.07.555.2.555,1.068v24.628a2.51,2.51,0,0,0,.175,1.2c2.23-3.258,4.4-6.414,6.556-9.579.912-1.336,1.8-2.684,2.712-4.019a1.378,1.378,0,0,1,1.25-.658c3.8.029,7.594.015,11.389.015.325,0,.735-.1.873.3a1.043,1.043,0,0,1-.2,1.02q-5.988,8.139-11.928,16.313a.94.94,0,0,0,0,1.31q6.09,8.007,12.083,16.087c.247.332.733.7.422,1.23-.279.476-.794.256-1.208.256-3.6.019-7.192,0-10.786.019a1.3,1.3,0,0,1-1.211-.638c-3.284-4.59-6.613-9.145-9.982-13.78a1.989,1.989,0,0,0-.134,1.089c0,4.088-.027,8.176.014,12.262,0,.853-.281,1.085-1.1,1.075q-4.738-.056-9.481,0c-.845,0-1.085-.263-1.083-1.093q.031-21.762,0-43.524a1.142,1.142,0,0,1,.947-1.272c3.174-1.006,6.331-2.093,9.495-3.139A4.241,4.241,0,0,1,393.113,667.376Zm-246.2.016c.45-.057.519.181.519.953q.009,8.5,0,16.979V701a16.918,16.918,0,0,1-3.551,10.707,15.56,15.56,0,0,1-7.826,5.238,23.448,23.448,0,0,1-8.471,1.008c-5.187-.313-9.778-2.015-13.274-6.036A17.658,17.658,0,0,1,112,708.476c-.35-.668-.264-1.071.548-1.319,3.532-1.079,7.058-2.2,10.566-3.323.471-.152.723.049,1.059.31a7.93,7.93,0,0,0,8.956.633A4.1,4.1,0,0,0,135,701.149q.024-14.371,0-28.741c0-1.457.055-1.437,1.49-1.861,3.292-.96,6.568-1.995,9.837-3.007A4.011,4.011,0,0,1,146.913,667.392Zm150.364,0c.414.077.407.564.409,1.038,0,2.82.037,5.629-.02,8.441-.02.906.214,1.209,1.154,1.167,2.018-.074,4.034-.033,6.051-.021,1.108,0,1.3.277.859,1.236-1.268,2.757-2.567,5.505-3.833,8.26a1.356,1.356,0,0,1-1.472.9c-.859-.044-1.989-.382-2.527.137-.59.572-.2,1.716-.2,2.6q-.022,11.91,0,23.816c0,1.579,0,1.579-1.613,1.579-3.025,0-6.052-.034-9.076.019-.912.016-1.154-.342-1.15-1.169.012-4.35,0-8.705,0-13.06,0-4.32-.02-8.642.02-12.962,0-.8-.222-1.018-1.008-1.008-2.113.053-4.236.026-6.347.016-.957,0-1.128-.279-.725-1.148,1.276-2.755,2.567-5.5,3.831-8.262a1.4,1.4,0,0,1,1.515-.991c.859.051,1.991.387,2.525-.141.58-.576.162-1.714.189-2.608.037-1.136.028-2.276,0-3.424a.964.964,0,0,1,.784-1.079c3.359-1.057,6.712-2.162,10.063-3.268A1.211,1.211,0,0,1,297.277,667.4Zm-32.706,10.627c4.033.014,8.068,0,12.1,0,1.327,0,1.523.356.955,1.56-1.238,2.62-2.472,5.26-3.661,7.909a1.305,1.305,0,0,1-1.4.937c-2.824-.051-5.648-.015-8.47-.021a4.128,4.128,0,0,0-2.182.572.984.984,0,0,0-.025,1.743c1.544,1.038,3.376,1.281,5.113,1.763,2.825.776,5.608,1.611,7.935,3.451a9.985,9.985,0,0,1,4.235,8.06c.033,3.487-.873,6.484-3.467,8.866a14.71,14.71,0,0,1-7.96,3.506c-2.961.46-5.9.053-8.295.192-3.025,0-5.515-.013-8,0-.8,0-1.05-.22-.678-1.008q2.054-4.33,4.058-8.689a1.081,1.081,0,0,1,1.156-.7c3.026.031,6.051.013,9.076.017a2.222,2.222,0,0,0,1.8-.682c.6-.7.519-1.177-.291-1.656a20.9,20.9,0,0,0-5.344-1.752c-3.527-.959-6.857-2.244-9.4-5.054a10.214,10.214,0,0,1-2.4-8.229,10.622,10.622,0,0,1,1.911-5.24,12.888,12.888,0,0,1,7.808-4.931A22.623,22.623,0,0,1,264.571,678.023Zm98.028,1.016a20.989,20.989,0,0,1,7.732,1.311,18.026,18.026,0,0,1,6.476,4.119,13.03,13.03,0,0,1,2.767,3.609c.254.53.277.866-.33,1.21-2.96,1.679-5.9,3.4-8.832,5.124-.511.3-.71.112-.981-.346A7.533,7.533,0,0,0,358.6,692.03a7.218,7.218,0,0,0-2.879,4.9,7.784,7.784,0,0,0,1.285,6.018,6.825,6.825,0,0,0,5.646,3.045c2.972.08,5.33-.875,6.858-3.524.31-.543.715-.37,1.1-.149,2.895,1.664,5.77,3.358,8.673,5,.637.358.57.745.283,1.209a17.832,17.832,0,0,1-3.651,4.4,19.283,19.283,0,0,1-8.045,4.125,14.21,14.21,0,0,1-4.227.534,19.759,19.759,0,0,1-12.142-3.706,18.228,18.228,0,0,1-7.168-11.511,20.612,20.612,0,0,1,.454-10.02,18.241,18.241,0,0,1,3.63-6.649,18.806,18.806,0,0,1,11.545-6.4A18.566,18.566,0,0,1,362.6,679.039Zm-196.064.014a14.788,14.788,0,0,1,9.495,2.549,7.374,7.374,0,0,0,1.279.982c.022-.255.042-.416.044-.577.045-1.978.045-1.978,2.079-1.978,2.789,0,5.58.03,8.369-.019.868-.014,1.193.263,1.191,1.13q-.024,17.145-.012,34.289c0,1.162-.2,1.3-1.315.95l-8.97-2.821c-.369-.118-.668-.247-1.057.138a13.468,13.468,0,0,1-7.844,3.7,16.369,16.369,0,0,1-12.358-2.936,18.306,18.306,0,0,1-7.093-10.828,21.174,21.174,0,0,1,.6-12.609c2.156-5.81,6.077-9.908,12.235-11.435A19.148,19.148,0,0,1,166.535,679.053Zm46.7.031a10.728,10.728,0,0,1,8.329,3.774c.35.355.543.33.863-.016a11.981,11.981,0,0,1,7.917-3.654,14.469,14.469,0,0,1,10.917,2.868,12.786,12.786,0,0,1,4.381,7.159,20.043,20.043,0,0,1,.629,5.313c-.039,3.587,0,7.173-.026,10.76,0,.7.189.944.9.9.938-.057,1.881-.023,2.823,0s1.163.348.75,1.252c-.864,1.9-1.755,3.778-2.621,5.666-.431.93-.871,1.856-1.262,2.8a1.059,1.059,0,0,1-1.166.678c-3.329-.024-6.656-.041-9.984,0-.88.012-1.063-.32-1.061-1.116.028-6.838.063-13.677-.01-20.513-.025-2.541-.916-4.145-3.038-4.836a4.888,4.888,0,0,0-6.49,4.542c-.456,6.886-.1,13.783-.169,20.675-.01,1.034-.281,1.268-1.275,1.246q-4.587-.1-9.176,0c-1.011.02-1.229-.324-1.223-1.266.035-6.837.055-13.675,0-20.51-.027-3.137-1.413-4.579-4.357-4.982-2.109-.289-4.314,1.411-4.935,3.779a7.6,7.6,0,0,0-.252,1.962c.018,6.6,0,13.207.028,19.808,0,.908-.22,1.225-1.177,1.209-3.159-.059-6.319-.049-9.479,0-.786.012-1.009-.2-1.009-1,.03-5.767.014-11.531.014-17.3V681.095c0-1.134.075-1.182,1.118-.859q4.537,1.4,9.076,2.793a.946.946,0,0,0,1.121-.3,11.132,11.132,0,0,1,7.441-3.538A16.157,16.157,0,0,1,213.234,679.084Zm107.44,0a15.836,15.836,0,0,1,6.96,1.779c.768.407,1.474.971,2.348,1.55.02-.316.042-.511.042-.7,0-1.871-.2-1.679,1.768-1.685,2.96,0,5.916.018,8.876-.013.729,0,1.008.2,1.008.967q-.031,17.34,0,34.682c0,.861-.283,1.009-1.108.741-3.039-.992-6.109-1.9-9.159-2.861a1,1,0,0,0-1.209.271,12.648,12.648,0,0,1-7.664,3.577,16.762,16.762,0,0,1-9.794-1.439,17.027,17.027,0,0,1-7.682-7.376,20.927,20.927,0,0,1-2.483-8.783,20.149,20.149,0,0,1,3.07-12.649,16.486,16.486,0,0,1,12.559-7.952A18.734,18.734,0,0,1,320.674,679.088Zm1.765,11.1a7.589,7.589,0,0,0-8.215,8.2,7.508,7.508,0,0,0,7.917,8.125c4.616-.114,7.68-2.846,7.865-8.027A7.711,7.711,0,0,0,322.439,690.188Zm-152.847.006a7.778,7.778,0,0,0-8.241,8.094c.19,5.371,3.27,8.185,7.9,8.2,4.985.022,7.968-3.145,8.027-8.2C177.333,693.736,174.479,690.379,169.592,690.194Z" fill="#fff" fill-rule="evenodd"/><text transform="translate(289.663 752.064)" fill="#fff" font-size="35.376" font-family="Gilroy-ExtraBold, Gilroy" font-weight="800"><tspan x="0" y="0" letter-spacing="0.052em">ON</tspan><tspan y="0" letter-spacing="0.054em">L</tspan><tspan y="0" letter-spacing="0.053em">I</tspan><tspan y="0" letter-spacing="0.052em">N</tspan><tspan y="0">E</tspan></text></g></svg>