<svg xmlns="http://www.w3.org/2000/svg" xmlns:xlink="http://www.w3.org/1999/xlink" width="54.857" height="55.221" viewBox="0 0 54.857 55.221"><defs><linearGradient id="a" x1="0.167" y1="0.288" x2="1.039" y2="0.62" gradientUnits="objectBoundingBox"><stop offset="0" stop-color="#d2683b"/><stop offset="0.46" stop-color="#ca532d"/><stop offset="1" stop-color="#bc1d12"/></linearGradient></defs><g transform="translate(-2614.746 -1590.962)"><path d="M71.367,242.768C65.835,237.043,72.7,213.12,76.5,204.18c5.961-14.035,20.406-21.64,37.749-3.693h0c17.4,18,9.285,31.537-4.521,37.646C101.094,241.952,77.294,248.9,71.367,242.768Z" transform="translate(2545.453 1400.983)" fill="url(#a)"/><path d="M111.562,317.915c.005-.436,0-.871,0-1.307v-.594a2.485,2.485,0,0,0-2.769-2.78c-.75,0-.82-.071-.82-.834,0-1.115.065-1.184,1.158-1.233a2.461,2.461,0,0,0,2.43-2.525c.007-.657.011-1.434,0-2.224a2.427,2.427,0,0,0-2.4-2.453l-.065,0a5.647,5.647,0,0,0-.568,0,.513.513,0,0,1-.418-.113.59.59,0,0,1-.139-.448c.012-.659.009-1.318,0-1.978v-.43c0-.735-.23-.959-.973-.959l-12.675,0q-3.844,0-7.688,0c-.617,0-.871.253-.875.869,0,.453,0,.9,0,1.358v.543c0,1.064-.065,1.128-1.144,1.157a2.438,2.438,0,0,0-2.443,2.459c-.008.513-.006,1.027,0,1.54l0,.546a2.473,2.473,0,0,0,2.616,2.662c.11,0,.207,0,.29,0,.306,0,.468,0,.578.109s.109.267.105.574c0,.09,0,.2,0,.317.006.981-.062,1.051-1.052,1.064a2.3,2.3,0,0,0-2.443,1.932,12.381,12.381,0,0,0,0,3.325c.175,1.253,1.132,1.94,2.695,1.94.03,0,.061,0,.094,0a.745.745,0,0,1,.558.162.758.758,0,0,1,.163.575c-.022,1.873-.018,3.777-.014,5.62l0,1.661c0,.763.222.982,1,.982h20.223c.77,0,.993-.22.993-.986q0-2.574,0-5.149v-1.717c0-1.042.063-1.107,1.113-1.141A2.458,2.458,0,0,0,111.562,317.915Zm-25.811-8.589a.49.49,0,0,1-.285.4,1.887,1.887,0,0,1-.59.1,1.23,1.23,0,0,1-.736-.223,1.459,1.459,0,0,1-.529-1.226v-.545c0-.438,0-.874,0-1.312a1.02,1.02,0,0,1,1.148-1.137h1V306.4C85.76,307.4,85.761,308.364,85.751,309.326Zm-.116,9.594a.452.452,0,0,1-.326.11.538.538,0,0,1-.056,0c-.093-.005-.188,0-.289-.005A2.955,2.955,0,0,1,84.5,319a.963.963,0,0,1-.881-.951c-.02-.8-.021-1.608,0-2.416a.966.966,0,0,1,.965-.974c.546-.044.824-.067,1,.1s.175.437.175.987l0,1.606c0,.391,0,.781,0,1.17A.522.522,0,0,1,85.635,318.92Zm20.888,9.045H87.21V312.856h19.313Zm-.1-16.7a.7.7,0,0,1-.506.152h-.005c-6.029-.017-12.157-.012-18.08-.007a.688.688,0,0,1-.525-.135.594.594,0,0,1-.138-.445c.014-2.174.013-4.35.012-6.525v-2.331c0-.061,0-.123.012-.2l.022-.278h19.321l.016.322c.005.1.01.2.011.294v2.354q0,3.135.01,6.271A.716.716,0,0,1,106.42,311.267Zm1.675-5.774a.429.429,0,0,1,.35-.106c.11,0,.215,0,.322,0,.125,0,.249-.005.374,0a.964.964,0,0,1,.974.968c.02.753.02,1.55,0,2.37a1.009,1.009,0,0,1-1.027,1.023c-.209.016-.376.03-.513.03a.6.6,0,0,1-.437-.122c-.166-.152-.166-.407-.166-.914l0-1.692c0-.394,0-.787,0-1.179A.506.506,0,0,1,108.1,305.493Zm.726,13.532c-.106,0-.2,0-.277,0-.255,0-.385-.019-.478-.114-.108-.11-.1-.26-.094-.508,0-.1.008-.229,0-.383,0-.387,0-.775,0-1.163,0-.514.006-1.046-.01-1.567a.676.676,0,0,1,.16-.527.633.633,0,0,1,.513-.11,1.494,1.494,0,0,0,.231,0c.057,0,.114,0,.173,0a1.011,1.011,0,0,1,1.079,1.108c0,.245,0,.49,0,.734v.671c0,.244,0,.488,0,.732a1.016,1.016,0,0,1-1.084,1.116Z" transform="translate(2545.453 1303.983)" fill="#fff"/><path d="M102.813,316.222a1.515,1.515,0,0,0-.178,0h-11.5a2.311,2.311,0,0,0-.518.039.647.647,0,0,0-.53.661.64.64,0,0,0,.508.675,2.072,2.072,0,0,0,.489.042c1.555,0,3.089,0,4.621,0h3.129q1.98,0,3.958,0c.529,0,.863-.267.87-.694S103.328,316.241,102.813,316.222Z" transform="translate(2545.453 1303.983)" fill="#fff"/><path d="M90.637,323.216a.69.69,0,0,0,0,1.356,2.278,2.278,0,0,0,.426.027h11.507a1.313,1.313,0,0,0,.924-.263.6.6,0,0,0,.163-.445c0-.471-.368-.712-1.089-.712H91.162A2.844,2.844,0,0,0,90.637,323.216Z" transform="translate(2545.453 1303.983)" fill="#fff"/><path d="M90.075,320.414a.712.712,0,0,0,.6.686,2.824,2.824,0,0,0,.425.02h.062l8.27,0c1.139,0,2.278,0,3.416-.005a.734.734,0,0,0,.81-.7c0-.4-.327-.686-.816-.7-.054,0-.109,0-.16,0H91.116a2.1,2.1,0,0,0-.478.028A.71.71,0,0,0,90.075,320.414Z" transform="translate(2545.453 1303.983)" fill="#fff"/><path d="M92.529,303.826a2.451,2.451,0,0,0-2.456,2.44,2.469,2.469,0,0,0,2.453,2.446h0a2.449,2.449,0,0,0,2.442-2.448,2.423,2.423,0,0,0-2.443-2.438Zm1.024,2.432a1.028,1.028,0,0,1-.989,1.026h-.035a1.02,1.02,0,0,1-1.021-1.012,1.036,1.036,0,0,1,.309-.736,1.014,1.014,0,0,1,.712-.3h.021a1.036,1.036,0,0,1,1,1.018Z" transform="translate(2545.453 1303.983)" fill="#fff"/><path d="M101.218,303.826h-.01a2.442,2.442,0,0,0-1.732.707,2.452,2.452,0,0,0,1.719,4.18h.016a2.444,2.444,0,0,0,.007-4.887Zm0,3.458h-.008a1.015,1.015,0,0,1-.732-1.728,1.008,1.008,0,0,1,.723-.316,1.056,1.056,0,0,1,.73.306,1.017,1.017,0,0,1-.713,1.738Z" transform="translate(2545.453 1303.983)" fill="#fff"/></g></svg>