<svg xmlns="http://www.w3.org/2000/svg" xmlns:xlink="http://www.w3.org/1999/xlink" width="54.857" height="55.221" viewBox="0 0 54.857 55.221"><defs><linearGradient id="a" x1="0.167" y1="0.288" x2="1.039" y2="0.62" gradientUnits="objectBoundingBox"><stop offset="0" stop-color="#d2683b"/><stop offset="0.46" stop-color="#ca532d"/><stop offset="1" stop-color="#bc1d12"/></linearGradient></defs><g transform="translate(-2614.746 -1685.962)"><path d="M71.367,242.768C65.835,237.043,72.7,213.12,76.5,204.18c5.961-14.035,20.406-21.64,37.749-3.693h0c17.4,18,9.285,31.537-4.521,37.646C101.094,241.952,77.294,248.9,71.367,242.768Z" transform="translate(2545.453 1495.983)" fill="url(#a)"/><path d="M105.935,396.686H87.108a4.2,4.2,0,0,0-4.352,4.337q0,3.54,0,7.077v11.71a4.176,4.176,0,0,0,4.4,4.42H105.9a4.2,4.2,0,0,0,4.4-4.382q0-9.393,0-18.787A4.178,4.178,0,0,0,105.935,396.686Zm3.028,23.2a2.817,2.817,0,0,1-3,3.009l-3.794,0H87.129a2.83,2.83,0,0,1-3.042-3.054q0-9.4,0-18.794a2.809,2.809,0,0,1,3.02-3.032q9.414,0,18.835,0a2.809,2.809,0,0,1,3.021,3.032Q108.966,410.469,108.963,419.888Z" transform="translate(2545.453 1303.983)" fill="#fff"/><path d="M106.8,402.006c0-.739-.211-.951-.945-.951H87.195c-.733,0-.945.212-.946.951q0,3.2,0,6.395c0,.772.19.96.967.96h18.66c.715,0,.923-.2.923-.917Q106.8,405.225,106.8,402.006Zm-8.3,5.276,0,.169a.64.64,0,0,1-.136.475.609.609,0,0,1-.438.137h0q-3.442-.012-6.882-.008h-2.9a2.655,2.655,0,0,1-.275-.02l-.272-.023v-5.634h2.983q3.609.006,7.21-.01H97.8a.736.736,0,0,1,.555.157.711.711,0,0,1,.149.539C98.473,404.469,98.486,405.9,98.5,407.282Zm6.941.73-.256.023a2.558,2.558,0,0,1-.276.02H103.48c-1.03,0-2.059,0-3.089.008h-.022a.612.612,0,0,1-.44-.135.627.627,0,0,1-.135-.457c.011-1.042.01-2.084.009-3.126v-1.391a2.724,2.724,0,0,1,.019-.279l.023-.273h5.6Z" transform="translate(2545.453 1303.983)" fill="#fff"/><path d="M106.8,412.493c0-.745-.194-.938-.946-.938h-18.7c-.69,0-.9.209-.9.9q0,3.24,0,6.481c0,.713.216.93.924.93q9.352,0,18.7,0c.707,0,.923-.217.923-.93Q106.8,415.712,106.8,412.493Zm-13.552,5.418c0,.1-.008.2-.016.311l-.017.29h-5.6v-5.618l.272-.016c.229-.018.462-.017.7-.017l2.008,0c.671,0,1.343,0,2.015-.011a.71.71,0,0,1,.51.143.643.643,0,0,1,.143.487c-.017,1.028-.015,2.073-.013,3.084Q93.247,417.238,93.247,417.911Zm12.207.627h-2.9q-3.646,0-7.3.01h-.015a.736.736,0,0,1-.555-.158.7.7,0,0,1-.148-.538c.033-1.43.02-2.887.007-4.3v-.089a.648.648,0,0,1,.135-.476.612.612,0,0,1,.438-.138h0q3.624.015,7.245.01h2.535a2.572,2.572,0,0,1,.284.021l.264.024Z" transform="translate(2545.453 1303.983)" fill="#fff"/><path d="M90.377,406.015c-.289,0-.578.014-.865,0a.809.809,0,0,1-.784-.774.775.775,0,0,1,.7-.806,15.86,15.86,0,0,1,1.986.006.745.745,0,0,1,.669.82.785.785,0,0,1-.752.752C91.013,406.03,90.694,406.014,90.377,406.015Z" transform="translate(2545.453 1303.983)" fill="#fff"/><path d="M103.7,404.635a1.119,1.119,0,0,1-.478-.473.683.683,0,0,0-.586-.429.692.692,0,0,0-.588.442.985.985,0,0,1-.443.452.615.615,0,0,0-.435.579.533.533,0,0,0,.392.566.7.7,0,0,1,.519.516.526.526,0,0,0,.55.4h.01a.622.622,0,0,0,.586-.428,1.106,1.106,0,0,1,.478-.458.634.634,0,0,0,.409-.568A.625.625,0,0,0,103.7,404.635Z" transform="translate(2545.453 1303.983)" fill="#fff"/><path d="M102.646,414.9c.3,0,.607-.015.909,0a.806.806,0,0,1,.765.747.765.765,0,0,1-.672.824,15.25,15.25,0,0,1-2.028,0,.743.743,0,0,1-.652-.833.789.789,0,0,1,.769-.736C102.039,414.887,102.343,414.9,102.646,414.9Z" transform="translate(2545.453 1303.983)" fill="#fff"/><path d="M90.553,417.156c.211-.048.325-.23.456-.442a1.162,1.162,0,0,1,.744-.635,1.415,1.415,0,0,0,.074-.151l.047-.1a.313.313,0,0,0,0-.058l0-.036a.564.564,0,0,0-.4-.592.692.692,0,0,1-.521-.518.525.525,0,0,0-.545-.394H90.4a.616.616,0,0,0-.579.435.991.991,0,0,1-.451.442c-.389.187-.435.423-.436.585a.63.63,0,0,0,.423.591,1.093,1.093,0,0,1,.473.478A.631.631,0,0,0,90.553,417.156Z" transform="translate(2545.453 1303.983)" fill="#fff"/></g></svg>