<svg xmlns="http://www.w3.org/2000/svg" xmlns:xlink="http://www.w3.org/1999/xlink" width="54.857" height="55.221" viewBox="0 0 54.857 55.221"><defs><linearGradient id="a" x1="0.167" y1="0.288" x2="1.039" y2="0.62" gradientUnits="objectBoundingBox"><stop offset="0" stop-color="#d2683b"/><stop offset="0.46" stop-color="#ca532d"/><stop offset="1" stop-color="#bc1d12"/></linearGradient></defs><g transform="translate(-2614.746 -1685.962)"><path d="M71.367,242.768C65.835,237.043,72.7,213.12,76.5,204.18c5.961-14.035,20.406-21.64,37.749-3.693h0c17.4,18,9.285,31.537-4.521,37.646C101.094,241.952,77.294,248.9,71.367,242.768Z" transform="translate(2545.453 1495.983)" fill="url(#a)"/><g transform="translate(2545.322 1208.779)"><path d="M101.688,497.81a8.655,8.655,0,0,0-6.94-1.255A8.48,8.48,0,0,0,90.593,510.5a5.7,5.7,0,0,1,1.633,3.911,2.565,2.565,0,0,0,.422,1.442,2.7,2.7,0,0,1,.524,1.953,5.7,5.7,0,0,0,.015.7,2.72,2.72,0,0,0,2.566,2.532c.248.016.509.012.759.008.119,0,.238-.005.357-.005l.15.011h.135c.209,0,.422,0,.633,0a2.744,2.744,0,0,0,2.741-2.671c.011-.207.008-.414.006-.621,0-.251-.006-.51.015-.766a1.347,1.347,0,0,1,.266-.719,2.7,2.7,0,0,0,.679-1.779,5.7,5.7,0,0,1,1.709-4.1,7.949,7.949,0,0,0,2.069-6.656A8.37,8.37,0,0,0,101.688,497.81ZM98.62,519.094a1.58,1.58,0,0,1-1.166.341c-.1,0-.209,0-.323-.01-.218-.013-.435-.009-.655-.006-.169,0-.343.007-.515,0a1.121,1.121,0,0,1-1.189-1.206c0-.184,0-.367,0-.56v-.432h4.091l.048.2a.473.473,0,0,1,.02.1C98.974,518.278,98.937,518.776,98.62,519.094Zm3.3-9.673a7.11,7.11,0,0,0-2.034,4.926,1.132,1.132,0,0,1-1.272,1.239c-.413,0-.824,0-1.235,0H96.271l-.552,0c-.231,0-.461,0-.693-.005a1.1,1.1,0,0,1-1.2-1.149,7.443,7.443,0,0,0-2.166-5.185,6.675,6.675,0,0,1-1.428-6.35,6.8,6.8,0,0,1,4.652-4.722,6.974,6.974,0,0,1,7.806,2.951A6.833,6.833,0,0,1,101.924,509.421Z" fill="#fff"/><path d="M86.438,493.277a.624.624,0,0,0-.439-.172h-.017a.854.854,0,0,0-.583.267.743.743,0,0,0-.057,1.007c.849.885,1.8,1.832,2.895,2.89a.6.6,0,0,0,.8.064,1.968,1.968,0,0,0,.4-.467c.041-.059.081-.116.122-.172-.029-.072-.054-.141-.077-.2a.939.939,0,0,0-.153-.318C88.414,495.228,87.435,494.229,86.438,493.277Z" fill="#fff"/><path d="M108.036,493.2a.617.617,0,0,0-.324-.1.854.854,0,0,0-.568.271l-.248.247c-.8.8-1.6,1.59-2.393,2.4a.776.776,0,0,0-.064,1.163.767.767,0,0,0,.543.259h.011a.933.933,0,0,0,.64-.3c.98-.959,1.831-1.813,2.6-2.609a1.734,1.734,0,0,0,.266-.431c.037-.073.077-.151.122-.234-.054-.067-.105-.135-.154-.2A1.765,1.765,0,0,0,108.036,493.2Z" fill="#fff"/><path d="M97.64,489.389a.808.808,0,0,0-.786-.852h-.006a.81.81,0,0,0-.782.865c-.014,1.21-.014,2.445,0,3.778a.778.778,0,0,0,.774.864h.019c.473,0,.774-.336.784-.881.011-.442.008-.884.006-1.325l0-.512,0-.579C97.651,490.3,97.654,489.842,97.64,489.389Z" fill="#fff"/><path d="M80.6,504.8a.814.814,0,0,0,.871.779c.439.013.876.01,1.314.007l.573,0,.582,0c.436,0,.871,0,1.305-.006a.783.783,0,0,0,.862-.776.761.761,0,0,0-.206-.559.862.862,0,0,0-.625-.241c-.629-.008-1.259-.012-1.885-.012q-.981,0-1.945.013a.884.884,0,0,0-.631.254A.758.758,0,0,0,80.6,504.8Z" fill="#fff"/><path d="M112.208,504c-.423-.01-.847-.006-1.274-.005l-.562,0-.566,0h-.567c-.234,0-.47,0-.705,0-.592.009-.941.309-.934.8s.348.772.912.777c1.219.012,2.457.012,3.678,0a.8.8,0,1,0,.018-1.58Z" fill="#fff"/><path d="M96.931,500.16a1.207,1.207,0,0,0-.246,0h-.04l-.215.019c-.111.008-.2.016-.282.026a4.611,4.611,0,0,0-3.744,3.2.83.83,0,0,0,.453,1.1.787.787,0,0,0,.625-.022.74.74,0,0,0,.389-.45,3.1,3.1,0,0,1,3.019-2.295.739.739,0,0,0,.748-.786A.759.759,0,0,0,96.931,500.16Z" fill="#fff"/></g></g></svg>