<svg xmlns="http://www.w3.org/2000/svg" xmlns:xlink="http://www.w3.org/1999/xlink" width="54.857" height="55.221" viewBox="0 0 54.857 55.221"><defs><linearGradient id="a" x1="0.167" y1="0.288" x2="1.039" y2="0.62" gradientUnits="objectBoundingBox"><stop offset="0" stop-color="#d2683b"/><stop offset="0.46" stop-color="#ca532d"/><stop offset="1" stop-color="#bc1d12"/></linearGradient></defs><g transform="translate(-69.293 -189.978)"><path d="M71.367,242.768C65.835,237.043,72.7,213.12,76.5,204.18c5.961-14.035,20.406-21.64,37.749-3.693h0c17.4,18,9.285,31.537-4.521,37.646C101.094,241.952,77.294,248.9,71.367,242.768Z" fill="url(#a)"/><path d="M104.939,224.623a3.641,3.641,0,0,0,3.388-3.153,19.383,19.383,0,0,0,.072-2.952c-.007-.25-.013-.5-.017-.748a.771.771,0,0,0-.8-.686c-.217-.011-.436-.008-.667-.006l-.474,0v-.752c0-.24,0-.481,0-.721,0-.544,0-1.087-.009-1.63a.82.82,0,0,0-.822-.821h0a.831.831,0,0,0-.827.815c-.009.136-.007.271,0,.407l0,.172v2.5h-2.261v-.7c0-.244,0-.489,0-.733,0-.54.005-1.079-.007-1.618a.827.827,0,0,0-.827-.844h-.019a.821.821,0,0,0-.808.837c-.013.482-.01.964-.008,1.446l0,.611v1.028h-.919c-.758.005-1.042.288-1.043,1.045l0,.709c-.006.683-.013,1.39.011,2.083a3.6,3.6,0,0,0,2.162,3.336,5.717,5.717,0,0,0,1.078.347c.152.038.305.077.459.121l.012-.011.092.038a.188.188,0,0,1,.1.139l.086.233-.081-.025q.006,2.153.009,4.305c0,1.021-.4,1.419-1.419,1.419H88.245c-1.029,0-1.431-.395-1.431-1.408q0-9.543,0-19.088c0-.987.4-1.392,1.395-1.393h13.2c.923,0,1.266.3,1.411,1.213a.848.848,0,0,0,.826.747h.035a.83.83,0,0,0,.793-.857,2.157,2.157,0,0,0-.038-.455,2.8,2.8,0,0,0-2.764-2.31c-.438-.007-.874,0-1.327,0l-.775,0,0-.513c0-.246,0-.475,0-.7a2.775,2.775,0,0,0-2.723-2.7c-1.378-.023-2.748-.023-4.068,0a2.775,2.775,0,0,0-2.716,2.711c-.007.219-.006.438,0,.684l0,.526h-.15c-.44,0-.86-.006-1.273-.006-.263,0-.523,0-.783.01a2.759,2.759,0,0,0-2.612,2.13,3.364,3.364,0,0,0-.087.791q-.007,9.69,0,19.382a2.759,2.759,0,0,0,2.717,2.9c4.392.022,8.933.021,13.885,0a2.746,2.746,0,0,0,2.721-2.748c.013-.667.01-1.334.007-2,0-.313,0-.627,0-.94v-2.106ZM92.028,205.356A1.957,1.957,0,0,1,93.6,205c.643.031,1.3.023,1.943.014.3,0,.592-.007.887-.007,1.106,0,1.479.38,1.479,1.5v.72H91.8l-.048-.145a.3.3,0,0,1-.019-.079C91.687,206.289,91.677,205.715,92.028,205.356Zm11.6,17.62c-.357,0-.7-.006-1.046-.016a2.074,2.074,0,0,1-2.011-1.885c-.03-.366-.025-.737-.02-1.1,0-.16,0-.32,0-.48v-.731h6.163v.151c0,.236,0,.471.011.705a12.034,12.034,0,0,1-.028,1.565,2.043,2.043,0,0,1-2,1.773C104.328,222.971,103.973,222.976,103.628,222.976Z" fill="#fff"/><path d="M97.643,226.9q-2.842-.014-5.68,0a.837.837,0,0,0-.922.818.774.774,0,0,0,.217.57,1.009,1.009,0,0,0,.727.271c.65.006,1.3.005,1.953,0h1.494c.729,0,1.457,0,2.184,0,.584,0,.965-.324.971-.819a.776.776,0,0,0-.219-.572A1,1,0,0,0,97.643,226.9Z" fill="#fff"/></g></svg>