<svg xmlns="http://www.w3.org/2000/svg" width="129.1" height="132.159" viewBox="0 0 129.1 132.159">
  <g id="Сгруппировать_17" data-name="Сгруппировать 17" transform="translate(0 -0.041)">
    <g id="Сгруппировать_4" data-name="Сгруппировать 4">
      <g id="Сгруппировать_1" data-name="Сгруппировать 1">
        <path id="Контур_1" data-name="Контур 1" d="M86.1,132.2a1.457,1.457,0,0,1-1.2-.5,33.7,33.7,0,0,0-33-5.8,35.466,35.466,0,0,0-9.7,5.4,1.921,1.921,0,0,1-2.4-3,37.7,37.7,0,0,1,10.9-6.1A36.5,36.5,0,0,1,63.4,120a37.713,37.713,0,0,1,24.1,8.7,2.017,2.017,0,0,1,.3,2.7A2.4,2.4,0,0,1,86.1,132.2Z" fill="#fff"/>
      </g>
      <g id="Сгруппировать_2" data-name="Сгруппировать 2">
        <path id="Контур_2" data-name="Контур 2" d="M94.6,124.5a2.129,2.129,0,0,0,0-2.8,45.078,45.078,0,0,0-62.1-.4,1.981,1.981,0,0,0,2.7,2.9,41.217,41.217,0,0,1,56.7.4,1.872,1.872,0,0,0,1.4.5A1.936,1.936,0,0,0,94.6,124.5Z" fill="#fff"/>
      </g>
      <g id="Сгруппировать_3" data-name="Сгруппировать 3">
        <path id="Контур_3" data-name="Контур 3" d="M102.1,117.1a1.933,1.933,0,0,0,0-2.8,53.958,53.958,0,0,0-77.1-.7,1.98,1.98,0,0,0,2.8,2.8,50.259,50.259,0,0,1,55.3-10.5,48.654,48.654,0,0,1,16.1,11.2,1.974,1.974,0,0,0,1.4.6A3.386,3.386,0,0,0,102.1,117.1Z" fill="#fff"/>
      </g>
    </g>
    <g id="Сгруппировать_8" data-name="Сгруппировать 8">
      <g id="Сгруппировать_5" data-name="Сгруппировать 5">
        <path id="Контур_4" data-name="Контур 4" d="M94.6,88.7a1.457,1.457,0,0,1,.5-1.2,33.7,33.7,0,0,0,5.8-33,35.466,35.466,0,0,0-5.4-9.7,1.921,1.921,0,0,1,3-2.4,37.7,37.7,0,0,1,6.1,10.9A36.5,36.5,0,0,1,106.8,66a37.713,37.713,0,0,1-8.7,24.1,2.017,2.017,0,0,1-2.7.3A2.465,2.465,0,0,1,94.6,88.7Z" fill="#fff"/>
      </g>
      <g id="Сгруппировать_6" data-name="Сгруппировать 6">
        <path id="Контур_5" data-name="Контур 5" d="M102.3,97.2a2.129,2.129,0,0,0,2.8,0,45.078,45.078,0,0,0,.4-62.1,1.981,1.981,0,0,0-2.9,2.7,41.217,41.217,0,0,1-.4,56.7,1.872,1.872,0,0,0-.5,1.4A1.936,1.936,0,0,0,102.3,97.2Z" fill="#fff"/>
      </g>
      <g id="Сгруппировать_7" data-name="Сгруппировать 7">
        <path id="Контур_6" data-name="Контур 6" d="M109.8,104.7a1.933,1.933,0,0,0,2.8,0,53.958,53.958,0,0,0,.7-77.1,1.98,1.98,0,0,0-2.8,2.8A50.259,50.259,0,0,1,121,85.7a48.654,48.654,0,0,1-11.2,16.1,1.974,1.974,0,0,0-.6,1.4A2.958,2.958,0,0,0,109.8,104.7Z" fill="#fff"/>
      </g>
    </g>
    <g id="Сгруппировать_12" data-name="Сгруппировать 12">
      <g id="Сгруппировать_9" data-name="Сгруппировать 9">
        <path id="Контур_7" data-name="Контур 7" d="M34.5,43.7a1.457,1.457,0,0,1-.5,1.2,33.7,33.7,0,0,0-5.8,33,35.465,35.465,0,0,0,5.4,9.7,1.921,1.921,0,1,1-3,2.4,37.7,37.7,0,0,1-6.1-10.9,36.5,36.5,0,0,1-2.2-12.7A37.713,37.713,0,0,1,31,42.3a2.017,2.017,0,0,1,2.7-.3A2.668,2.668,0,0,1,34.5,43.7Z" fill="#fff"/>
      </g>
      <g id="Сгруппировать_10" data-name="Сгруппировать 10">
        <path id="Контур_8" data-name="Контур 8" d="M26.8,35.2a2.129,2.129,0,0,0-2.8,0,45.078,45.078,0,0,0-.4,62.1,1.981,1.981,0,0,0,2.9-2.7A40.3,40.3,0,0,1,15.3,66.5,41.164,41.164,0,0,1,26.8,37.9a1.872,1.872,0,0,0,.5-1.4A1.462,1.462,0,0,0,26.8,35.2Z" fill="#fff"/>
      </g>
      <g id="Сгруппировать_11" data-name="Сгруппировать 11">
        <path id="Контур_9" data-name="Контур 9" d="M19.3,27.7a1.933,1.933,0,0,0-2.8,0A54.1,54.1,0,0,0,4.2,87.5a54.925,54.925,0,0,0,11.6,17.2,1.98,1.98,0,1,0,2.8-2.8A50.472,50.472,0,0,1,7.8,86.1,50.519,50.519,0,0,1,8,46.7,48.654,48.654,0,0,1,19.2,30.6a1.974,1.974,0,0,0,.6-1.4A2.456,2.456,0,0,0,19.3,27.7Z" fill="#fff"/>
      </g>
    </g>
    <g id="Сгруппировать_16" data-name="Сгруппировать 16">
      <g id="Сгруппировать_13" data-name="Сгруппировать 13">
        <path id="Контур_10" data-name="Контур 10" d="M76.6,10A39.056,39.056,0,0,0,87.5,3.9a1.921,1.921,0,1,0-2.4-3,30.9,30.9,0,0,1-9.7,5.4A33.765,33.765,0,0,1,64,8.3,33.874,33.874,0,0,1,42.4.5a1.828,1.828,0,0,0-2.7.3A1.828,1.828,0,0,0,40,3.5a37.713,37.713,0,0,0,24.1,8.7A38.72,38.72,0,0,0,76.6,10Z" fill="#fff"/>
      </g>
      <g id="Сгруппировать_14" data-name="Сгруппировать 14">
        <path id="Контур_11" data-name="Контур 11" d="M94.7,10.9A1.981,1.981,0,0,0,92,8,41.017,41.017,0,0,1,63.9,19.1,41.164,41.164,0,0,1,35.3,7.6a2.129,2.129,0,0,0-2.8,0,2.129,2.129,0,0,0,0,2.8A45.028,45.028,0,0,0,63.8,23,44.219,44.219,0,0,0,94.7,10.9Z" fill="#fff"/>
      </g>
      <g id="Сгруппировать_15" data-name="Сгруппировать 15">
        <path id="Контур_12" data-name="Контур 12" d="M84.9,30.2a53.843,53.843,0,0,0,17.2-11.6,1.98,1.98,0,0,0-2.8-2.8A50.07,50.07,0,0,1,83.4,26.5a49.923,49.923,0,0,1-19.5,3.9A50.276,50.276,0,0,1,44,26.3,48.654,48.654,0,0,1,27.9,15.1a1.98,1.98,0,0,0-2.8,2.8A53.964,53.964,0,0,0,42.5,30,54.4,54.4,0,0,0,64,34.4,51.708,51.708,0,0,0,84.9,30.2Z" fill="#fff"/>
      </g>
    </g>
    <g id="icon_1_">
      <path id="Контур_13" data-name="Контур 13" d="M76.5,73.4a.972.972,0,0,1-.1.9.909.909,0,0,1-.8.4H67.2a.792.792,0,0,1-.8-.5L60.9,62.4,49.1,87.8a.891.891,0,0,1-.8.5.792.792,0,0,1-.8-.5L34.8,60.6a.972.972,0,0,1,.1-.9.909.909,0,0,1,.8-.4H44a.792.792,0,0,1,.8.5l3.4,7.3L60,41.7a.891.891,0,0,1,.8-.5.792.792,0,0,1,.8.5Zm16.9,0L78.6,41.8a.891.891,0,0,0-.8-.5.792.792,0,0,0-.8.5l-4.2,9a1.1,1.1,0,0,0,0,.8L83.3,74.2a.891.891,0,0,0,.8.5h8.4a1.234,1.234,0,0,0,.8-.4A.94.94,0,0,0,93.4,73.4Z" fill="#fff"/>
    </g>
  </g>
</svg>
