<svg xmlns="http://www.w3.org/2000/svg" xmlns:xlink="http://www.w3.org/1999/xlink" width="62.444" height="62.444" viewBox="0 0 62.444 62.444"><defs><linearGradient id="a" y1="0.5" x2="1" y2="0.5" gradientUnits="objectBoundingBox"><stop offset="0" stop-color="#e37e4e"/><stop offset="0.439" stop-color="#de6a3e"/><stop offset="1" stop-color="#d23319"/></linearGradient></defs><g transform="translate(229.278 -3937.056)"><circle cx="31.222" cy="31.222" r="31.222" transform="translate(-229.278 3937.056)" fill="url(#a)"/><path d="M-228.6,3961.815c.29.17.723.344.933.464,2.61,1.6,5.22,3.21,7.85,4.79a5.246,5.246,0,0,1,2.51,3.47,8.921,8.921,0,0,0,5.8,6.61,3.831,3.831,0,0,1,2.68,4.43,20.5,20.5,0,0,1-6.45,12.41c-.04.04-.192.127-.281.187a29.928,29.928,0,0,0,3.77,2.17c.639-.74,1.341-1.457,1.9-2.147a24.307,24.307,0,0,0,5.2-12.46,7.859,7.859,0,0,0-4.97-8.26,5.524,5.524,0,0,1-3.74-4.24,8.793,8.793,0,0,0-4.24-5.67c-2.96-1.79-5.91-3.6-8.86-5.4-.22-.14-.673-.389-.923-.549l-.68,2.07Zm46.01-20.666c-.23,1.1-.467,2.99-.687,4.1a6.661,6.661,0,0,1-7.9,5.3,11.327,11.327,0,0,0-8.34,1.4c-1.08.64-2.15,1.28-3.27,1.84a7.93,7.93,0,0,1-11.43-6.59c-.1-1.52-.218-3.92-.328-5.44l-2.063,1.4-1.937,1.542c.051.77.158,1.685.188,2.275a12.07,12.07,0,0,0,18.15,10.11c1.04-.59,2.09-1.18,3.13-1.78a6.708,6.708,0,0,1,4.76-.77c6.6,1.25,12.13-2.61,13.22-9.23.07-.46.182-1.1.272-1.619l-1.872-1.381Z" opacity="0.12"/><path d="M-167.956,3959.849c-1.51.78-2.85,1.49-4.21,2.15a4.457,4.457,0,0,0-2.37,2.76,7.947,7.947,0,0,1-11.44,4.64c-.98-.51-1.92-1.08-2.89-1.6a3.837,3.837,0,0,0-4.41.32,3.764,3.764,0,0,0-1.13,4.27c.45,1.39.92,2.78,1.4,4.18a10.966,10.966,0,0,1-.5,8.5,6.607,6.607,0,0,0,3.11,8.98c1.64.82,3.31,1.6,4.95,2.43a3.35,3.35,0,0,0,.393.184,30.809,30.809,0,0,1-5.64,1.95,15.563,15.563,0,0,0-1.583-.894,10.7,10.7,0,0,1-4.99-14.32,7.189,7.189,0,0,0,.32-5.64c-.5-1.44-1-2.87-1.45-4.32a7.812,7.812,0,0,1,2.51-8.5,7.894,7.894,0,0,1,8.89-.8c.88.48,1.76.97,2.64,1.45,2.61,1.42,5.05.44,6.01-2.38a7.961,7.961,0,0,1,4.05-4.74c1.42-.72,2.84-1.45,4.25-2.17.23-.12.46-.26.67-.38l.759,1.878Z" opacity="0.12"/><path d="M-188.79,3955.114a2.9,2.9,0,0,0-3.12-3.127q-8.188,0-16.371,0a2.911,2.911,0,0,0-3.11,3.1q0,13.492,0,26.986a2.913,2.913,0,0,0,3.112,3.1h2.4q2.275,0,4.554-.007a.788.788,0,0,1,.759.431c.167.286.341.562.536.865.09.142.181.287.27.429a.892.892,0,0,0,.834.454q7.253-.009,14.5,0a.881.881,0,0,0,.813-.431c.221-.341.445-.682.668-1.022.5-.757.909-1.387,1.323-2.047a1.189,1.189,0,0,0,.182-.593c.018-3.2.012-6.308.007-8.372a2.723,2.723,0,0,0-.59-1.711,2.91,2.91,0,0,0-3.484-.888.64.64,0,0,1-.674-.12,3.112,3.112,0,0,0-2.361-1.2l-.246-.018v-4.5Q-188.787,3960.776-188.79,3955.114Zm-20.961-.545a1.225,1.225,0,0,1,1.173-1.005,2.028,2.028,0,0,1,.272-.006h16.335c1.106,0,1.6.49,1.6,1.588v1.09h-19.4v-.264c0-.109,0-.218-.005-.328l0-.085A5.841,5.841,0,0,1-209.751,3954.569Zm-.064,21.862v-18.575h19.426v13.076l-.42-.3a3.05,3.05,0,0,0-2.87-.545l-.343.108v-3.823l.4-.136a.774.774,0,0,0,.618-.795c.011-1.54.011-2.9,0-4.145a.767.767,0,0,0-.823-.825c-1.359-.011-2.753-.012-4.143,0a.772.772,0,0,0-.811.839c-.005.4-.005.791,0,1.187,0,.464,0,.929-.006,1.393a.956.956,0,0,1-.223.6,3.091,3.091,0,0,0-.824,2.205c.008,1.682.007,3.361.006,5.042l0,3.255-.464.117-.351-.5a2.918,2.918,0,0,0-3.922-.811,2.889,2.889,0,0,0-1.015,3.844c.162.3.341.579.53.878.092.143.183.286.274.435l.206.334-.483.083a.955.955,0,0,1-.174.022h-1.186c-.958,0-1.9,0-2.849,0h0a.569.569,0,0,1-.414-.142.578.578,0,0,1-.141-.435c.006-.575,0-1.149,0-1.724Zm15.22-14.348v2.591l-.429-.341a3.112,3.112,0,0,0-1.767-.714.513.513,0,0,1-.4-.443c-.014-.2-.011-.388-.007-.586v-.507Zm-7.918,21.51-.005-.1,0,.1c-.1,0-.175.009-.252.009h-5.529a1.367,1.367,0,0,1-1.52-1.523v-1.1l2.793,0c1.012,0,2.033,0,3.05-.007a.775.775,0,0,1,.738.406c.246.413.495.8.793,1.275l.577.913Zm13.984-11.041a1.317,1.317,0,0,1,1.276,1.047,2.909,2.909,0,0,1,.039.533l0,3.7v.061a2.426,2.426,0,0,0,.013.318.784.784,0,0,0,.765.719h0a.782.782,0,0,0,.781-.7,2.623,2.623,0,0,0,.017-.371v-.947q0-.948,0-1.9a1.466,1.466,0,0,1,.422-1.054,1.263,1.263,0,0,1,.89-.361,1.329,1.329,0,0,1,1.309,1.409c.008,2.326.007,4.87,0,7.776a1.1,1.1,0,0,1-.164.556c-.5.79-.918,1.447-1.376,2.1a.882.882,0,0,1-.673.316c-1.382.008-2.765.009-4.142.009h-3.839c-1.645,0-3.28,0-4.915.007a.78.78,0,0,1-.735-.4q-1.485-2.373-2.978-4.737l-2.236-3.551a1.549,1.549,0,0,1-.236-1.17,1.251,1.251,0,0,1,.59-.794,1.333,1.333,0,0,1,1.887.546c.372.582.738,1.169,1.1,1.756l.871,1.4a2.288,2.288,0,0,0,.2.29.73.73,0,0,0,.83.267.728.728,0,0,0,.56-.668,2.571,2.571,0,0,0,.015-.344v-11.6a3.364,3.364,0,0,1,.009-.376,1.308,1.308,0,0,1,1.287-1.185,1.3,1.3,0,0,1,1.316,1.151,2.524,2.524,0,0,1,.015.368v11.1c0,.071,0,.142,0,.214a.8.8,0,0,0,.783.889.8.8,0,0,0,.79-.871q.006-1.554,0-3.107v-1.865a2.639,2.639,0,0,1,.039-.536,1.292,1.292,0,0,1,1.267-1.051c.031,0,.063,0,.094,0a1.332,1.332,0,0,1,1.215,1.211,4.49,4.49,0,0,1,.011.482v4.709c0,.079,0,.154,0,.229a.793.793,0,0,0,.8.795.775.775,0,0,0,.771-.8c.01-.839.01-1.68.009-2.521q0-.736,0-1.474a2.658,2.658,0,0,1,.049-.576A1.32,1.32,0,0,1-188.529,3972.552Z" fill="#fff"/><path d="M-207.183,3961.318c-.012,1.274-.013,2.6,0,4.064a.8.8,0,0,0,.894.873c.454,0,.907,0,1.366,0h1.231c.463,0,.928,0,1.393,0a.8.8,0,0,0,.893-.874c.012-1.459.011-2.789,0-4.063a.787.787,0,0,0-.872-.853q-2.018-.014-4.03,0A.787.787,0,0,0-207.183,3961.318Zm1.6.765h2.575v2.577h-2.575Z" fill="#fff"/></g></svg>