<svg xmlns="http://www.w3.org/2000/svg" xmlns:xlink="http://www.w3.org/1999/xlink" width="62.444" height="62.444" viewBox="0 0 62.444 62.444"><defs><linearGradient id="a" y1="0.5" x2="1" y2="0.5" gradientUnits="objectBoundingBox"><stop offset="0" stop-color="#e37e4e"/><stop offset="0.439" stop-color="#de6a3e"/><stop offset="1" stop-color="#d23319"/></linearGradient></defs><g transform="translate(-3770 -938)"><circle cx="31.222" cy="31.222" r="31.222" transform="translate(3770 938)" fill="url(#a)"/><path d="M-228.6,3847.148c.29.17.723.344.933.465,2.61,1.6,5.22,3.209,7.85,4.79a5.244,5.244,0,0,1,2.51,3.469,8.922,8.922,0,0,0,5.8,6.611,3.83,3.83,0,0,1,2.68,4.429,20.5,20.5,0,0,1-6.45,12.41,3.319,3.319,0,0,1-.281.187,29.928,29.928,0,0,0,3.77,2.17c.639-.74,1.341-1.457,1.9-2.147a24.3,24.3,0,0,0,5.2-12.46,7.859,7.859,0,0,0-4.97-8.26,5.522,5.522,0,0,1-3.74-4.24,8.789,8.789,0,0,0-4.24-5.669c-2.96-1.79-5.91-3.6-8.86-5.4-.22-.14-.673-.389-.923-.549l-.68,2.069Zm46.01-20.666c-.23,1.1-.467,2.99-.687,4.1a6.662,6.662,0,0,1-7.9,5.3,11.327,11.327,0,0,0-8.34,1.4c-1.08.641-2.15,1.28-3.27,1.84a7.929,7.929,0,0,1-11.43-6.59c-.1-1.52-.218-3.919-.328-5.44l-2.063,1.4-1.937,1.542c.051.77.158,1.685.188,2.275a12.07,12.07,0,0,0,18.15,10.111c1.04-.59,2.09-1.181,3.13-1.781a6.708,6.708,0,0,1,4.76-.77c6.6,1.25,12.13-2.61,13.22-9.23.07-.46.182-1.1.272-1.619l-1.872-1.38Z" transform="translate(3999.278 -2884.389)" opacity="0.12"/><path d="M-167.956,3845.182c-1.51.781-2.85,1.491-4.21,2.151a4.456,4.456,0,0,0-2.37,2.759,7.948,7.948,0,0,1-11.44,4.641c-.98-.511-1.92-1.08-2.89-1.6a3.835,3.835,0,0,0-4.41.319,3.765,3.765,0,0,0-1.13,4.27c.45,1.391.92,2.781,1.4,4.181a10.967,10.967,0,0,1-.5,8.5,6.608,6.608,0,0,0,3.11,8.98c1.64.819,3.31,1.6,4.95,2.429a3.35,3.35,0,0,0,.393.184,30.809,30.809,0,0,1-5.64,1.95,15.563,15.563,0,0,0-1.583-.894,10.7,10.7,0,0,1-4.99-14.319,7.192,7.192,0,0,0,.32-5.641c-.5-1.439-1-2.87-1.45-4.319a7.812,7.812,0,0,1,2.51-8.5,7.9,7.9,0,0,1,8.89-.8c.88.48,1.76.971,2.64,1.451,2.61,1.419,5.05.44,6.01-2.38a7.963,7.963,0,0,1,4.05-4.741c1.42-.719,2.84-1.45,4.25-2.169.23-.121.46-.261.67-.38l.759,1.877Z" transform="translate(3999.278 -2884.389)" opacity="0.12"/><g transform="translate(3999.278 -2884.389)"><path d="M-194.856,3840.608c0-.665-.232-.9-.888-.9h-14.961c-.674,0-.913.238-.913.909v27.01c0,.677.237.916.907.916h14.931c.7,0,.924-.224.924-.925Zm-1.415,26.518h-13.942v-26h13.942Z" fill="#fff"/><path d="M-184.2,3853.218c0-.624-.257-.878-.887-.878h-6.464c-.627,0-.882.256-.882.884q0,7.222,0,14.443c0,.623.257.876.888.876h6.433c.674,0,.912-.238.912-.912v-14.413Zm-6.816.536h5.382v9.956h-5.382Zm5.385,13.374h-5.382v-1.994h5.382Z" fill="#fff"/><path d="M-188.374,3841.11a6.938,6.938,0,0,1,1.193.108,5.891,5.891,0,0,1,3.11,1.595.749.749,0,0,0,.754.268.673.673,0,0,0,.5-.482.767.767,0,0,0-.232-.743,7.646,7.646,0,0,0-5.511-2.159c-.082.011-.181.022-.295.035-.3.035-.708.083-1.1.164a7.243,7.243,0,0,0-3.632,1.968.754.754,0,0,0-.237.7.688.688,0,0,0,.455.5c.28.1.513.032.826-.256A6.006,6.006,0,0,1-188.374,3841.11Z" fill="#fff"/><path d="M-185.476,3844.255a4.1,4.1,0,0,0-2.842-1.144,4.11,4.11,0,0,0-2.821,1.138.717.717,0,0,0-.093,1.05.712.712,0,0,0,1.037-.016,2.7,2.7,0,0,1,3.763,0,.728.728,0,0,0,1.058.006A.717.717,0,0,0-185.476,3844.255Z" fill="#fff"/><path d="M-188.311,3846.538a.714.714,0,0,0-.706.688.7.7,0,0,0,.212.5.692.692,0,0,0,.5.214.692.692,0,0,0,.682-.705h0A.685.685,0,0,0-188.311,3846.538Z" fill="#fff"/><path d="M-203.225,3843.176h-.006a4.978,4.978,0,0,0-4.977,4.955,4.929,4.929,0,0,0,1.459,3.522,4.932,4.932,0,0,0,3.518,1.467h0a4.973,4.973,0,0,0,4.963-4.97A4.975,4.975,0,0,0-203.225,3843.176Zm2.512,7.487a3.54,3.54,0,0,1-2.515,1.06h-.005a3.546,3.546,0,0,1-2.517-1.054,3.546,3.546,0,0,1-1.057-2.522,3.545,3.545,0,0,1,1.06-2.521,3.544,3.544,0,0,1,2.513-1.051h.009a3.626,3.626,0,0,1,3.564,3.559A3.552,3.552,0,0,1-200.713,3850.663Z" fill="#fff"/><path d="M-203.209,3855.132h-.018a4.98,4.98,0,0,0-4.981,4.938,4.942,4.942,0,0,0,1.452,3.531,4.932,4.932,0,0,0,3.51,1.475h.013a4.932,4.932,0,0,0,3.5-1.451,4.931,4.931,0,0,0,1.469-3.5A4.972,4.972,0,0,0-203.209,3855.132Zm2.48,7.5a3.542,3.542,0,0,1-2.5,1.044h-.025a3.582,3.582,0,0,1-3.549-3.574,3.544,3.544,0,0,1,1.057-2.52,3.549,3.549,0,0,1,2.519-1.054h.005a3.538,3.538,0,0,1,2.514,1.06,3.553,3.553,0,0,1,1.051,2.529A3.538,3.538,0,0,1-200.729,3862.632Z" fill="#fff"/><path d="M-188.313,3857.156h0a.687.687,0,0,0,.689-.7.7.7,0,0,0-.682-.7h-.009a.709.709,0,0,0-.493.213.7.7,0,0,0-.211.5A.713.713,0,0,0-188.313,3857.156Z" fill="#fff"/><path d="M-188.312,3859.182h-.005a.708.708,0,0,0-.7.69.7.7,0,0,0,.218.5.7.7,0,0,0,.487.21h.014a.7.7,0,0,0,.676-.711h0A.675.675,0,0,0-188.312,3859.182Z" fill="#fff"/><path d="M-203.232,3847.452h-.016a.688.688,0,0,0-.68.706.7.7,0,0,0,.694.693h0a.726.726,0,0,0,.7-.7.68.68,0,0,0-.21-.5A.691.691,0,0,0-203.232,3847.452Z" fill="#fff"/><path d="M-203.233,3859.4h-.008a.7.7,0,0,0-.687.7.688.688,0,0,0,.691.7h0a.711.711,0,0,0,.5-.215.682.682,0,0,0,.2-.5A.723.723,0,0,0-203.233,3859.4Z" fill="#fff"/></g></g></svg>