<svg xmlns="http://www.w3.org/2000/svg" xmlns:xlink="http://www.w3.org/1999/xlink" width="62.444" height="62.444" viewBox="0 0 62.444 62.444"><defs><linearGradient id="a" y1="0.5" x2="1" y2="0.5" gradientUnits="objectBoundingBox"><stop offset="0" stop-color="#e37e4e"/><stop offset="0.439" stop-color="#de6a3e"/><stop offset="1" stop-color="#d23319"/></linearGradient></defs><g transform="translate(229.278 -4319.754)"><circle cx="31.222" cy="31.222" r="31.222" transform="translate(-229.278 4319.754)" fill="url(#a)"/><path d="M-228.6,4344.513c.29.17.723.345.933.465,2.61,1.6,5.22,3.21,7.85,4.79a5.244,5.244,0,0,1,2.51,3.469,8.921,8.921,0,0,0,5.8,6.611,3.83,3.83,0,0,1,2.68,4.429,20.509,20.509,0,0,1-6.45,12.411c-.04.04-.192.126-.281.186a29.928,29.928,0,0,0,3.77,2.17c.639-.74,1.341-1.456,1.9-2.146a24.306,24.306,0,0,0,5.2-12.46,7.862,7.862,0,0,0-4.97-8.261,5.52,5.52,0,0,1-3.74-4.239,8.793,8.793,0,0,0-4.24-5.67c-2.96-1.79-5.91-3.6-8.86-5.4-.22-.14-.673-.389-.923-.549l-.68,2.069Zm46.01-20.666c-.23,1.1-.467,2.991-.687,4.1a6.662,6.662,0,0,1-7.9,5.3,11.329,11.329,0,0,0-8.34,1.4c-1.08.64-2.15,1.279-3.27,1.839a7.929,7.929,0,0,1-11.43-6.589c-.1-1.52-.218-3.92-.328-5.44l-2.063,1.4-1.937,1.542c.051.77.158,1.686.188,2.275a12.07,12.07,0,0,0,18.15,10.111c1.04-.59,2.09-1.18,3.13-1.781a6.72,6.72,0,0,1,4.76-.77c6.6,1.25,12.13-2.609,13.22-9.23.07-.46.182-1.1.272-1.619l-1.872-1.38Z" opacity="0.12"/><path d="M-167.956,4342.547c-1.51.781-2.85,1.491-4.21,2.151a4.456,4.456,0,0,0-2.37,2.76,7.947,7.947,0,0,1-11.44,4.64c-.98-.51-1.92-1.08-2.89-1.6a3.835,3.835,0,0,0-4.41.32,3.764,3.764,0,0,0-1.13,4.27c.45,1.39.92,2.78,1.4,4.18a10.966,10.966,0,0,1-.5,8.5,6.608,6.608,0,0,0,3.11,8.98c1.64.82,3.31,1.6,4.95,2.429a3.311,3.311,0,0,0,.393.184,30.791,30.791,0,0,1-5.64,1.95,15.324,15.324,0,0,0-1.583-.893,10.7,10.7,0,0,1-4.99-14.32,7.19,7.19,0,0,0,.32-5.64c-.5-1.44-1-2.87-1.45-4.32a7.812,7.812,0,0,1,2.51-8.5,7.894,7.894,0,0,1,8.89-.8c.88.48,1.76.97,2.64,1.45,2.61,1.42,5.05.44,6.01-2.38a7.961,7.961,0,0,1,4.05-4.74c1.42-.72,2.84-1.451,4.25-2.17.23-.12.46-.261.67-.38l.759,1.878Z" opacity="0.12"/><g transform="translate(-0.475 -1.504)"><path d="M-204.577,4366.568h-2.163c0,.308,0,.615,0,.922a.959.959,0,0,1-.938,1.076.979.979,0,0,1-.946-1.078c0-.3,0-.6,0-.892a7.864,7.864,0,0,1-3.07-3.072c-.3,0-.614,0-.925,0a.971.971,0,0,1-1.047-.943.952.952,0,0,1,1.04-.94c.311-.005.621,0,.953,0v-2.164c-.329,0-.65,0-.971,0a.954.954,0,0,1-1.022-.927.964.964,0,0,1,1.033-.955c.311-.006.623,0,.958,0v-2.156c-.335,0-.666,0-1,0a.947.947,0,0,1-.993-.919.953.953,0,0,1,.991-.959c.323-.007.646,0,1,0v-2.15h-.818c-.728,0-1.174-.364-1.169-.951s.439-.93,1.149-.931h.847v-2.156c-.34,0-.681.012-1.021,0a.937.937,0,0,1-.87-1.359.9.9,0,0,1,.838-.518c.344-.006.688,0,1.051,0v-2.166c-.336,0-.657,0-.978,0a.948.948,0,0,1-1.017-.93.962.962,0,0,1,1-.952c.322-.009.645,0,.842,0a10.843,10.843,0,0,1,.724-.991c.493-.532,1.009-1.046,1.541-1.539a8.941,8.941,0,0,1,.932-.659c0-.176,0-.487,0-.8a.973.973,0,0,1,.934-1.056.954.954,0,0,1,.95,1.064c0,.3,0,.6,0,.925h2.163c0-.317,0-.638,0-.959a.953.953,0,0,1,.95-1.03.96.96,0,0,1,.932,1.022c.007.312,0,.624,0,.965h2.156c0-.311,0-.631,0-.95a.952.952,0,0,1,.943-1.037.964.964,0,0,1,.938,1.047c0,.31,0,.62,0,.949h2.153c0-.358-.015-.722,0-1.084a.946.946,0,0,1,.968-.912.943.943,0,0,1,.906.938c.008.234,0,.469,0,.7v.351h2.155v-.8c0-.737.35-1.181.935-1.188s.949.437.95,1.2v.791h2.164c0-.32,0-.641,0-.961a.951.951,0,0,1,.917-1.029.966.966,0,0,1,.966,1.023c.007.312,0,.624,0,.979.521,0,.81.373,1.132.693.49.488.992.967,1.461,1.476a6.977,6.977,0,0,1,.579.873c.228,0,.583-.015.936,0a.954.954,0,0,1,.935.95.941.941,0,0,1-.952.926c-.234.009-.469,0-.7,0-.109,0-.218.009-.342.014v2.149c.308,0,.615,0,.922,0a.96.96,0,0,1,1.075.939.973.973,0,0,1-1.078.944c-.3,0-.6,0-.916,0v2.156c.349,0,.682,0,1.014,0a.943.943,0,0,1,.98.931.951.951,0,0,1-.97.946c-.333.01-.667,0-1.022,0v2.151c.329,0,.65,0,.97,0a.959.959,0,0,1,1.022.929.951.951,0,0,1-1.029.951c-.311,0-.623,0-.959,0v2.155c.309,0,.617,0,.926,0a.967.967,0,0,1,1.062.958.959.959,0,0,1-1.057.925c-.31,0-.619,0-.943,0v2.164c.314,0,.622,0,.93,0a.957.957,0,0,1,1.07.944.979.979,0,0,1-1.083.941c-.3,0-.6,0-.772,0a9.055,9.055,0,0,1-.675.953q-.787.846-1.636,1.634a7.089,7.089,0,0,1-.877.587c0,.221.014.574,0,.927a.959.959,0,0,1-.81.933.932.932,0,0,1-1.005-.61,1.62,1.62,0,0,1-.062-.461c-.009-.3,0-.6,0-.916h-2.164c0,.337.006.658,0,.98a.95.95,0,0,1-.932,1.015.96.96,0,0,1-.949-1c-.009-.322,0-.644,0-.988h-2.156c0,.342,0,.674,0,1.006a.945.945,0,0,1-.925.987.957.957,0,0,1-.954-1c-.006-.323,0-.645,0-.992h-2.151c0,.322,0,.642,0,.962a.958.958,0,0,1-.957,1.028.953.953,0,0,1-.923-1.024c0-.311,0-.623,0-.963H-202.7c0,.348.015.7,0,1.052a.949.949,0,0,1-.847.931.937.937,0,0,1-.98-.651,1.84,1.84,0,0,1-.049-.464C-204.582,4367.16-204.577,4366.872-204.577,4366.568Zm19.186-14.076c0-3.374-.007-6.747.008-10.12a1.184,1.184,0,0,0-.415-1.019c-.382-.324-.668-.826-1.1-1.009a3.964,3.964,0,0,0-1.456-.054q-9.8,0-19.6,0a.692.692,0,0,0-.558.225c-.343.367-.718.7-1.056,1.076a.763.763,0,0,0-.193.459q-.014,10.438,0,20.876a.746.746,0,0,0,.2.457c.346.379.711.743,1.09,1.089a.754.754,0,0,0,.459.193q10.437.013,20.875,0a.757.757,0,0,0,.458-.2c.363-.33.692-.7,1.052-1.032a.72.72,0,0,0,.243-.584Q-185.4,4357.668-185.391,4352.492Z" fill="#fff"/><path d="M-190.584,4352.477q0,2.914,0,5.83c0,.843-.331,1.168-1.182,1.168h-11.626c-.865,0-1.185-.323-1.185-1.2v-11.594c0-.889.316-1.2,1.215-1.2h11.56c.913,0,1.218.309,1.218,1.232Zm-12.089,5.093h10.178v-10.182h-10.178Z" fill="#fff"/><path d="M-188.492,4360.63a.948.948,0,0,1,.942.937.967.967,0,0,1-.944.943.951.951,0,0,1-.935-.944A.932.932,0,0,1-188.492,4360.63Z" fill="#fff"/><path d="M-205.733,4343.4a.931.931,0,0,1-.943.928.949.949,0,0,1-.935-.944.968.968,0,0,1,.95-.936A.948.948,0,0,1-205.733,4343.4Z" fill="#fff"/><path d="M-188.5,4344.327a.932.932,0,0,1-.924-.947.947.947,0,0,1,.946-.932.965.965,0,0,1,.932.954A.947.947,0,0,1-188.5,4344.327Z" fill="#fff"/><path d="M-206.654,4360.631a.928.928,0,0,1,.921.949.945.945,0,0,1-.949.929.966.966,0,0,1-.929-.957A.949.949,0,0,1-206.654,4360.631Z" fill="#fff"/></g></g></svg>