<svg xmlns="http://www.w3.org/2000/svg" xmlns:xlink="http://www.w3.org/1999/xlink" width="62.444" height="62.444" viewBox="0 0 62.444 62.444"><defs><linearGradient id="a" y1="0.5" x2="1" y2="0.5" gradientUnits="objectBoundingBox"><stop offset="0" stop-color="#e37e4e"/><stop offset="0.439" stop-color="#de6a3e"/><stop offset="1" stop-color="#d23319"/></linearGradient></defs><g transform="translate(229.278 -4062.806)"><circle cx="31.222" cy="31.222" r="31.222" transform="translate(-229.278 4062.806)" fill="url(#a)"/><path d="M-228.6,4087.565c.29.17.723.345.933.465,2.61,1.6,5.22,3.21,7.85,4.79a5.246,5.246,0,0,1,2.51,3.47,8.921,8.921,0,0,0,5.8,6.61,3.831,3.831,0,0,1,2.68,4.43,20.5,20.5,0,0,1-6.45,12.41c-.04.04-.192.126-.281.186a29.753,29.753,0,0,0,3.77,2.17c.639-.739,1.341-1.456,1.9-2.146a24.309,24.309,0,0,0,5.2-12.46,7.86,7.86,0,0,0-4.97-8.26,5.523,5.523,0,0,1-3.74-4.24,8.793,8.793,0,0,0-4.24-5.67c-2.96-1.79-5.91-3.6-8.86-5.4-.22-.14-.673-.389-.923-.549l-.68,2.069Zm46.01-20.666c-.23,1.1-.467,2.991-.687,4.1a6.661,6.661,0,0,1-7.9,5.3,11.327,11.327,0,0,0-8.34,1.4c-1.08.64-2.15,1.28-3.27,1.84a7.93,7.93,0,0,1-11.43-6.59c-.1-1.52-.218-3.92-.328-5.44l-2.063,1.4-1.937,1.542c.051.77.158,1.686.188,2.276a12.07,12.07,0,0,0,18.15,10.11c1.04-.59,2.09-1.18,3.13-1.78a6.708,6.708,0,0,1,4.76-.77c6.6,1.25,12.13-2.61,13.22-9.23.07-.46.182-1.1.272-1.619l-1.872-1.381Z" opacity="0.12"/><path d="M-167.956,4085.6c-1.51.78-2.85,1.49-4.21,2.15a4.457,4.457,0,0,0-2.37,2.76,7.947,7.947,0,0,1-11.44,4.64c-.98-.51-1.92-1.08-2.89-1.6a3.837,3.837,0,0,0-4.41.32,3.764,3.764,0,0,0-1.13,4.27c.45,1.39.92,2.78,1.4,4.18a10.966,10.966,0,0,1-.5,8.5,6.607,6.607,0,0,0,3.11,8.98c1.64.82,3.31,1.6,4.95,2.43a3.372,3.372,0,0,0,.393.183,30.717,30.717,0,0,1-5.64,1.95,15.6,15.6,0,0,0-1.583-.893,10.7,10.7,0,0,1-4.99-14.32,7.19,7.19,0,0,0,.32-5.64c-.5-1.44-1-2.87-1.45-4.32a7.812,7.812,0,0,1,2.51-8.5,7.894,7.894,0,0,1,8.89-.8c.88.48,1.76.97,2.64,1.45,2.61,1.42,5.05.44,6.01-2.38a7.961,7.961,0,0,1,4.05-4.74c1.42-.72,2.84-1.45,4.25-2.17.23-.12.46-.26.67-.38l.759,1.878Z" opacity="0.12"/><g transform="translate(0 -0.743)"><path d="M-216.655,4103.1a.371.371,0,0,0-.258.123.373.373,0,0,0-.1.27l.005.1a.375.375,0,0,0,.374.355h.019l3.866-.2a.375.375,0,0,0,.354-.394l0-.1a.366.366,0,0,0-.393-.354Z" fill="#fff"/><path d="M-217.368,4089.6l3.882-.2a.36.36,0,0,0,.253-.119.368.368,0,0,0,.094-.264l0-.074a.365.365,0,0,0-.121-.253.35.35,0,0,0-.263-.093l-3.883.2a.363.363,0,0,0-.252.12.361.361,0,0,0-.094.264l0,.073a.368.368,0,0,0,.12.253.364.364,0,0,0,.244.094Z" fill="#fff"/><path d="M-212.773,4098.228l-.241-4.619-.017-.322-.186-3.574-4.385.229.669,12.822,4.385-.229-.193-3.7Zm-3.944,4.3-.645-12.366,3.929-.205.174,3.345.017.323.241,4.618.032.605.181,3.475Z" fill="#fff"/><rect width="0.792" height="1.269" transform="matrix(0.999, -0.052, 0.052, 0.999, -219.217, 4095.837)" fill="#fff"/><rect width="0.792" height="1.269" transform="translate(-219.431 4091.736) rotate(-2.987)" fill="#fff"/><rect width="0.792" height="1.269" transform="translate(-219.003 4099.939) rotate(-2.988)" fill="#fff"/><path d="M-199.466,4077.52a14.7,14.7,0,0,1,5.668,1.144,12.533,12.533,0,0,0,4.887,1.006c.429,0,.8-.02,1.122-.038.244-.013.455-.024.642-.024h0a1.947,1.947,0,0,1,.666.091l.042.015.04.02a9.811,9.811,0,0,1,3.767,3.417,17.636,17.636,0,0,1,2.422,6.118c.576,2.688-.215,6.354-.981,8.956a47.213,47.213,0,0,1-4.1,9.678l-.093.162-.158.1a1.629,1.629,0,0,1-.891.214c-.147,0-.3-.009-.461-.019-.178-.011-.363-.021-.558-.021a3.33,3.33,0,0,0-2.209.775,17.111,17.111,0,0,1-7.455,3.633,11.669,11.669,0,0,1-2.194.215,9.075,9.075,0,0,1-8.5-5.541,32.255,32.255,0,0,1-2.214-6.6l-.249.012v-2.068l.322-.017-.322-6.188v-3.047l.01-.061a33.478,33.478,0,0,1,.99-4.28,14.129,14.129,0,0,1,1.358-2.977,8.9,8.9,0,0,1,7.533-4.645C-200.082,4077.53-199.772,4077.52-199.466,4077.52Zm10.555,3.649a14.007,14.007,0,0,1-5.462-1.121,13.207,13.207,0,0,0-5.092-1.029c-.274,0-.553.009-.828.026a7.382,7.382,0,0,0-6.329,3.9,12.7,12.7,0,0,0-1.22,2.661,31.947,31.947,0,0,0-.936,4.029v2.9l.4,7.627-.252.013a30.664,30.664,0,0,0,2.18,6.614,7.536,7.536,0,0,0,7.139,4.667,10.184,10.184,0,0,0,1.911-.187,15.657,15.657,0,0,0,6.805-3.335,4.8,4.8,0,0,1,3.142-1.1c.24,0,.456.013.647.024.143.008.267.016.369.016a45.806,45.806,0,0,0,3.808-9.077c1.013-3.443,1.352-6.361.953-8.218-.906-4.225-2.744-7.151-5.318-8.47a1.467,1.467,0,0,0-.152-.006h0c-.146,0-.338.01-.561.022C-188.035,4081.147-188.442,4081.169-188.911,4081.169Zm.449,7.507a4.656,4.656,0,0,1,.574.047c.142.018.277.035.387.037l.52.011.172.491c.052.148.11.286.165.419a3,3,0,0,1,.28.978c.124,2,.279,4.646.377,7.341a2,2,0,0,1-1.8,2.292,2.119,2.119,0,0,1-.215.011,2.1,2.1,0,0,1-2.038-2.129c-.136-2.026-.3-4.693-.351-7.358a2.533,2.533,0,0,1,1.09-1.914A1.469,1.469,0,0,1-188.462,4088.676Zm.417,1.539-.028,0a3.468,3.468,0,0,0-.389-.036h-.046a1.156,1.156,0,0,0-.383.609c.051,2.632.212,5.276.347,7.285.015.219.1.73.541.73l.065,0c.166-.017.477-.048.452-.746-.1-2.677-.252-5.309-.375-7.3a2.018,2.018,0,0,0-.167-.493Zm-5.356-1.262a1.508,1.508,0,0,1,.322.034,2.11,2.11,0,0,1,1.525,1.6c.2,2.561.319,5.163.43,7.68l.014.315a1.751,1.751,0,0,1-.234.871c-.011.022-.027.053-.033.067l-.042.117-.085.1a2.182,2.182,0,0,1-1.657.814,1.922,1.922,0,0,1-1.706-1.032,2.661,2.661,0,0,1-.288-1.092c-.13-2.291-.264-4.732-.364-7.171A2.124,2.124,0,0,1-195,4089.6,2.644,2.644,0,0,1-193.4,4088.953Zm0,1.5h0a1.192,1.192,0,0,0-.571.249,1.517,1.517,0,0,0-.049.494c.1,2.429.233,4.863.362,7.148a1.186,1.186,0,0,0,.11.463.432.432,0,0,0,.386.246.643.643,0,0,0,.446-.211l.031-.062a1.654,1.654,0,0,0,.074-.161l-.013-.285c-.109-2.486-.222-5.057-.422-7.572A.954.954,0,0,0-193.4,4090.453Zm-2.851,10.016a2.018,2.018,0,0,1,1.29.467,1.983,1.983,0,0,1,.269,2.779,2.086,2.086,0,0,1-1.619.767,1.942,1.942,0,0,1-1.152-.366,1.96,1.96,0,0,1-.774-1.378,2.066,2.066,0,0,1,.488-1.595A2,2,0,0,1-196.25,4100.469Zm-.06,2.512a.582.582,0,0,0,.448-.2.481.481,0,0,0-.058-.69.513.513,0,0,0-.33-.119.5.5,0,0,0-.374.166.572.572,0,0,0-.122.438.471.471,0,0,0,.165.33A.461.461,0,0,0-196.31,4102.981Zm-3.4,1.306a2.017,2.017,0,0,1,1.421.58,1.972,1.972,0,0,1,.6,1.4,1.992,1.992,0,0,1-.581,1.421,1.959,1.959,0,0,1-1.4.594,2,2,0,0,1-1.415-.6,2.007,2.007,0,0,1-.6-1.429,1.946,1.946,0,0,1,.573-1.391A1.968,1.968,0,0,1-199.708,4104.287Zm.04,2.492a.462.462,0,0,0,.331-.147.5.5,0,0,0,.149-.354.474.474,0,0,0-.15-.34.524.524,0,0,0-.371-.15.479.479,0,0,0-.342.137.457.457,0,0,0-.134.327.516.516,0,0,0,.157.367A.509.509,0,0,0-199.668,4106.779Z" fill="#fff"/><path d="M-210.71,4099.5l-.363-6.959.791-.041,0,.061v-2.986c-.131.792-.241,1.582-.31,2.37l-1.083.056.144,2.766-.247.013-.3-5.674a1.5,1.5,0,0,0-1.578-1.421l-3.664.191a1.493,1.493,0,0,0-1.037.494,1.5,1.5,0,0,0-.384,1.083l.728,13.952a1.5,1.5,0,0,0,1.5,1.424l.079,0,3.663-.191a1.5,1.5,0,0,0,1.422-1.578l-.3-5.711.247-.013.144,2.766.971-.051v-.571Zm-2.084,4.566-3.664.191a.929.929,0,0,1-.978-.881l-.728-13.952a.931.931,0,0,1,.881-.978l3.663-.191.05,0a.934.934,0,0,1,.929.883l.728,13.952A.932.932,0,0,1-212.794,4104.065Z" fill="#fff"/></g></g></svg>