<svg xmlns="http://www.w3.org/2000/svg" xmlns:xlink="http://www.w3.org/1999/xlink" width="62.444" height="62.444" viewBox="0 0 62.444 62.444"><defs><linearGradient id="a" y1="0.5" x2="1" y2="0.5" gradientUnits="objectBoundingBox"><stop offset="0" stop-color="#e37e4e"/><stop offset="0.439" stop-color="#de6a3e"/><stop offset="1" stop-color="#d23319"/></linearGradient></defs><g transform="translate(229.278 -4193.057)"><circle cx="31.222" cy="31.222" r="31.222" transform="translate(-229.278 4193.057)" fill="url(#a)"/><path d="M-228.6,4217.816c.29.17.723.344.933.464,2.61,1.6,5.22,3.21,7.85,4.79a5.247,5.247,0,0,1,2.51,3.47,8.921,8.921,0,0,0,5.8,6.61,3.831,3.831,0,0,1,2.68,4.43,20.5,20.5,0,0,1-6.45,12.41c-.04.04-.192.127-.281.187a29.991,29.991,0,0,0,3.77,2.17c.639-.74,1.341-1.457,1.9-2.147a24.309,24.309,0,0,0,5.2-12.46,7.86,7.86,0,0,0-4.97-8.26,5.523,5.523,0,0,1-3.74-4.24,8.794,8.794,0,0,0-4.24-5.67c-2.96-1.79-5.91-3.6-8.86-5.4-.22-.14-.673-.389-.923-.549l-.68,2.07Zm46.01-20.666c-.23,1.1-.467,2.99-.687,4.1a6.661,6.661,0,0,1-7.9,5.3,11.329,11.329,0,0,0-8.34,1.4c-1.08.64-2.15,1.28-3.27,1.84a7.93,7.93,0,0,1-11.43-6.59c-.1-1.52-.218-3.92-.328-5.44l-2.063,1.4-1.937,1.542c.051.77.158,1.685.188,2.275a12.069,12.069,0,0,0,18.15,10.11c1.04-.59,2.09-1.18,3.13-1.78a6.71,6.71,0,0,1,4.76-.77c6.6,1.25,12.13-2.61,13.22-9.23.07-.46.182-1.1.272-1.619l-1.872-1.381Z" opacity="0.12"/><path d="M-167.956,4215.85c-1.51.78-2.85,1.49-4.21,2.15a4.458,4.458,0,0,0-2.37,2.76,7.947,7.947,0,0,1-11.44,4.64c-.98-.51-1.92-1.08-2.89-1.6a3.838,3.838,0,0,0-4.41.32,3.764,3.764,0,0,0-1.13,4.27c.45,1.39.92,2.78,1.4,4.18a10.966,10.966,0,0,1-.5,8.5,6.607,6.607,0,0,0,3.11,8.98c1.64.82,3.31,1.6,4.95,2.43a3.39,3.39,0,0,0,.393.184,30.79,30.79,0,0,1-5.64,1.95,15.605,15.605,0,0,0-1.583-.894,10.7,10.7,0,0,1-4.99-14.32,7.19,7.19,0,0,0,.32-5.64c-.5-1.44-1-2.87-1.45-4.32a7.812,7.812,0,0,1,2.51-8.5,7.893,7.893,0,0,1,8.89-.8c.88.48,1.76.97,2.64,1.45,2.61,1.42,5.05.44,6.01-2.38a7.96,7.96,0,0,1,4.05-4.74c1.42-.72,2.84-1.45,4.25-2.17.23-.12.46-.26.67-.38l.759,1.878Z" opacity="0.12"/><g transform="translate(0.932 -0.555)"><path d="M-204.859,4238.139a1.656,1.656,0,0,0,.926-.28l7.958-5.342a1.408,1.408,0,0,0,.632-1.179,1.407,1.407,0,0,0-.622-1.184l-7.733-5.28,7.745-5.288a1.409,1.409,0,0,0,.622-1.179,1.405,1.405,0,0,0-.626-1.179l-7.976-5.415a1.637,1.637,0,0,0-.926-.285,1.653,1.653,0,0,0-1.651,1.65v9.777l-7.109-4.854a.992.992,0,0,0-.742-.155.986.986,0,0,0-.637.415.988.988,0,0,0-.155.743.986.986,0,0,0,.415.636l7.52,5.134-7.52,5.134a1,1,0,0,0-.26,1.38,1,1,0,0,0,1.379.26l7.109-4.855v9.7A1.653,1.653,0,0,0-204.859,4238.139Zm.334-24.367,6.784,4.633-6.784,4.631Zm0,12.94,6.784,4.632-6.784,4.633Z" fill="#fff"/><path d="M-187.406,4235.8a3.95,3.95,0,0,0,.368-.365,15.686,15.686,0,0,0,4.233-11.037c-.017-.15-.035-.331-.054-.536-.054-.553-.127-1.31-.267-2.036a15.158,15.158,0,0,0-4.129-7.815,1,1,0,0,0-.732-.362,1,1,0,0,0-.18.017.862.862,0,0,0-.718.621,1.029,1.029,0,0,0,.359,1.1,13.629,13.629,0,0,1,0,18.9l-.056.057c-.053.054-.106.107-.152.165a.933.933,0,0,0,.08,1.249A.9.9,0,0,0-187.406,4235.8Z" fill="#fff"/><path d="M-191.331,4232.513a.93.93,0,0,0,1.107-.258,10.811,10.811,0,0,0,3.058-7.732c-.016-.116-.031-.258-.049-.419-.048-.429-.112-1.017-.231-1.579a10.26,10.26,0,0,0-2.819-5.16.909.909,0,0,0-.66-.308,1.039,1.039,0,0,0-.366.071.755.755,0,0,0-.568.779,1.742,1.742,0,0,0,.43.915,8.789,8.789,0,0,1-.143,12.16,1.194,1.194,0,0,0-.273.451A.915.915,0,0,0-191.331,4232.513Z" fill="#fff"/><path d="M-193.241,4228.911a5.865,5.865,0,0,0,1.683-4.428v0a5.591,5.591,0,0,0-1.611-3.649.96.96,0,0,0-.711-.352.973.973,0,0,0-.262.039.883.883,0,0,0-.67.728,1.008,1.008,0,0,0,.342.928,3.66,3.66,0,0,1,.839,3.852,5.711,5.711,0,0,1-.825,1.4l-.144.2a.956.956,0,0,0,.084,1.321A.925.925,0,0,0-193.241,4228.911Z" fill="#fff"/></g></g></svg>