<svg xmlns="http://www.w3.org/2000/svg" xmlns:xlink="http://www.w3.org/1999/xlink" width="62.444" height="62.444" viewBox="0 0 62.444 62.444"><defs><linearGradient id="a" y1="0.5" x2="1" y2="0.5" gradientUnits="objectBoundingBox"><stop offset="0" stop-color="#d4683b"/><stop offset="0.439" stop-color="#cd532d"/><stop offset="1" stop-color="#be1d12"/></linearGradient></defs><g transform="translate(-2961 -2019)"><g transform="translate(2927.397 11.168)"><circle cx="31.222" cy="31.222" r="31.222" transform="translate(33.603 2007.832)" fill="url(#a)"/><path d="M65.34,2023.144h5.12c.566,4.815,3.272,7.467,8.081,8v5.05a13.337,13.337,0,0,1-8-2.664v1.066c.006,3.458.028,6.916.013,10.373a9.838,9.838,0,0,1-8.674,9.863,9.846,9.846,0,1,1-.187-19.524,2.863,2.863,0,0,1,.363.1v5.086a12.914,12.914,0,0,0-2.447.024,4.635,4.635,0,0,0-3.664,5.164,4.733,4.733,0,0,0,4.882,4.072,4.616,4.616,0,0,0,4.488-4.559c.036-6.945.019-13.889.022-20.833Z" fill="#fff"/></g></g></svg>