<svg xmlns="http://www.w3.org/2000/svg" width="693.03" height="80.318" viewBox="0 0 693.03 80.318"><g transform="translate(-1.54 -999.126)"><path d="M320.517,1067.969h0a2.188,2.188,0,0,0-.231.024,2.282,2.282,0,0,0,0,4.543,2.22,2.22,0,0,0,.231.023h0a2.295,2.295,0,1,0,0-4.59Z" fill="#303030"/><path d="M313.633,1067.969h0c-.068,0-.132.014-.2.02a2.284,2.284,0,0,0,0,4.55c.066.006.13.02.2.02h0a2.3,2.3,0,0,0,0-4.59Z" fill="#303030"/><path d="M307.057,1074.885a2.242,2.242,0,0,0-.308-.031h0a2.295,2.295,0,0,0,0,4.59h0a2.4,2.4,0,0,0,.308-.031,2.285,2.285,0,0,0,0-4.528Z" fill="#303030"/><path d="M307.057,1068a2.427,2.427,0,0,0-.308-.031h0a2.295,2.295,0,0,0,0,4.59h0a2.242,2.242,0,0,0,.308-.031,2.285,2.285,0,0,0,0-4.528Z" fill="#303030"/><path d="M300.47,1074.945a2.25,2.25,0,0,0-.606-.091h0a2.295,2.295,0,1,0,0,4.59h0a2.251,2.251,0,0,0,.606-.092,2.282,2.282,0,0,0,0-4.407Z" fill="#303030"/><path d="M300.47,1068.06a2.284,2.284,0,0,0-.606-.091h0a2.295,2.295,0,1,0,0,4.59h0a2.29,2.29,0,0,0,.606-4.5Z" fill="#303030"/><path d="M300.47,1061.176a2.289,2.289,0,0,0-.606-.091h0a2.3,2.3,0,0,0,0,4.59h0a2.29,2.29,0,0,0,.606-4.5Z" fill="#303030"/><path d="M293.55,1074.934a2.28,2.28,0,0,0-.57-.08h0a2.295,2.295,0,1,0,0,4.59h0a2.342,2.342,0,0,0,2.248-1.833,2.348,2.348,0,0,0,0-.925A2.294,2.294,0,0,0,293.55,1074.934Z" fill="#303030"/><path d="M293.55,1068.049a2.28,2.28,0,0,0-.57-.08h0a2.295,2.295,0,1,0,0,4.59h0a2.342,2.342,0,0,0,2.248-1.832,2.349,2.349,0,0,0,0-.925A2.294,2.294,0,0,0,293.55,1068.049Z" fill="#303030"/><path d="M293.55,1061.165a2.28,2.28,0,0,0-.57-.08h0a2.3,2.3,0,0,0,0,4.59h0a2.342,2.342,0,0,0,2.248-1.833,2.344,2.344,0,0,0,0-.924A2.294,2.294,0,0,0,293.55,1061.165Z" fill="#303030"/><path d="M293.55,1054.281a2.236,2.236,0,0,0-.57-.081h0a2.3,2.3,0,0,0,0,4.59h0a2.23,2.23,0,0,0,.57-.08,2.292,2.292,0,0,0,1.678-1.752,2.349,2.349,0,0,0,0-.925A2.293,2.293,0,0,0,293.55,1054.281Z" fill="#303030"/><path d="M293.55,1047.4a2.28,2.28,0,0,0-.57-.08h0a2.295,2.295,0,1,0,0,4.59h0a2.342,2.342,0,0,0,2.248-1.833,2.343,2.343,0,0,0,0-.924A2.294,2.294,0,0,0,293.55,1047.4Z" fill="#303030"/><path d="M293.55,1040.512a2.28,2.28,0,0,0-.57-.08h0a2.295,2.295,0,1,0,0,4.59h0a2.342,2.342,0,0,0,2.248-1.833,2.348,2.348,0,0,0,0-.925A2.294,2.294,0,0,0,293.55,1040.512Z" fill="#303030"/><path d="M286.665,1074.934a2.28,2.28,0,0,0-.57-.08h0a2.295,2.295,0,1,0,0,4.59h0a2.29,2.29,0,0,0,.57-4.51Z" fill="#303030"/><path d="M286.665,1068.049a2.28,2.28,0,0,0-.57-.08h0a2.295,2.295,0,1,0,0,4.59h0a2.29,2.29,0,0,0,.57-4.51Z" fill="#303030"/><path d="M286.665,1061.165a2.28,2.28,0,0,0-.57-.08h0a2.3,2.3,0,0,0,0,4.59h0a2.29,2.29,0,0,0,.57-4.51Z" fill="#303030"/><path d="M286.665,1054.281a2.236,2.236,0,0,0-.57-.081h0a2.3,2.3,0,0,0,0,4.59h0a2.231,2.231,0,0,0,.57-.08,2.284,2.284,0,0,0,0-4.429Z" fill="#303030"/><path d="M286.665,1047.4a2.28,2.28,0,0,0-.57-.08h0a2.295,2.295,0,1,0,0,4.59h0a2.29,2.29,0,0,0,.57-4.51Z" fill="#303030"/><path d="M286.665,1040.512a2.28,2.28,0,0,0-.57-.08h0a2.295,2.295,0,1,0,0,4.59h0a2.29,2.29,0,0,0,.57-4.51Z" fill="#303030"/><path d="M286.665,1033.628a2.231,2.231,0,0,0-.57-.081h0a2.295,2.295,0,1,0,0,4.59h0a2.29,2.29,0,0,0,.57-4.509Z" fill="#303030"/><path d="M286.665,1026.743a2.28,2.28,0,0,0-.57-.08h0a2.3,2.3,0,0,0,0,4.59h0a2.29,2.29,0,0,0,.57-4.51Z" fill="#303030"/><path d="M279.211,1074.854a2.295,2.295,0,1,0,2.294,2.3A2.295,2.295,0,0,0,279.211,1074.854Z" fill="#303030"/><path d="M279.211,1067.969a2.295,2.295,0,1,0,2.294,2.3A2.295,2.295,0,0,0,279.211,1067.969Z" fill="#303030"/><path d="M279.211,1061.085a2.3,2.3,0,1,0,2.294,2.3A2.3,2.3,0,0,0,279.211,1061.085Z" fill="#303030"/><path d="M279.211,1054.2a2.3,2.3,0,1,0,2.294,2.3A2.3,2.3,0,0,0,279.211,1054.2Z" fill="#303030"/><path d="M279.211,1047.316a2.295,2.295,0,1,0,2.294,2.295A2.295,2.295,0,0,0,279.211,1047.316Z" fill="#303030"/><path d="M279.211,1040.432a2.295,2.295,0,1,0,2.294,2.3A2.295,2.295,0,0,0,279.211,1040.432Z" fill="#303030"/><path d="M279.211,1033.547a2.295,2.295,0,1,0,2.294,2.3A2.295,2.295,0,0,0,279.211,1033.547Z" fill="#303030"/><path d="M272.327,1074.854a2.295,2.295,0,1,0,2.294,2.3A2.295,2.295,0,0,0,272.327,1074.854Z" fill="#303030"/><path d="M272.327,1067.969a2.295,2.295,0,1,0,2.294,2.3A2.295,2.295,0,0,0,272.327,1067.969Z" fill="#303030"/><path d="M272.327,1061.085a2.3,2.3,0,1,0,2.294,2.3A2.3,2.3,0,0,0,272.327,1061.085Z" fill="#303030"/><path d="M272.327,1054.2a2.3,2.3,0,1,0,2.294,2.3A2.3,2.3,0,0,0,272.327,1054.2Z" fill="#303030"/><path d="M272.327,1047.316a2.295,2.295,0,1,0,2.294,2.295A2.295,2.295,0,0,0,272.327,1047.316Z" fill="#303030"/><path d="M272.327,1040.432a2.295,2.295,0,1,0,2.294,2.3A2.295,2.295,0,0,0,272.327,1040.432Z" fill="#303030"/><path d="M265.442,1074.854a2.295,2.295,0,1,0,2.3,2.3A2.295,2.295,0,0,0,265.442,1074.854Z" fill="#303030"/><path d="M265.442,1067.969a2.295,2.295,0,1,0,2.3,2.3A2.295,2.295,0,0,0,265.442,1067.969Z" fill="#303030"/><path d="M265.442,1061.085a2.3,2.3,0,1,0,2.3,2.3A2.3,2.3,0,0,0,265.442,1061.085Z" fill="#303030"/><path d="M265.442,1054.2a2.3,2.3,0,1,0,2.3,2.3A2.3,2.3,0,0,0,265.442,1054.2Z" fill="#303030"/><path d="M265.442,1047.316a2.295,2.295,0,1,0,2.3,2.295A2.295,2.295,0,0,0,265.442,1047.316Z" fill="#303030"/><path d="M265.442,1040.432a2.295,2.295,0,1,0,2.3,2.3A2.295,2.295,0,0,0,265.442,1040.432Z" fill="#303030"/><path d="M265.442,1033.547a2.295,2.295,0,1,0,2.3,2.3A2.295,2.295,0,0,0,265.442,1033.547Z" fill="#303030"/><path d="M265.442,1026.663a2.3,2.3,0,1,0,2.3,2.3A2.3,2.3,0,0,0,265.442,1026.663Z" fill="#303030"/><path d="M265.442,1019.778a2.3,2.3,0,1,0,2.3,2.295A2.3,2.3,0,0,0,265.442,1019.778Z" fill="#303030"/><path d="M265.442,1012.894a2.3,2.3,0,1,0,2.3,2.3A2.3,2.3,0,0,0,265.442,1012.894Z" fill="#303030"/><path d="M258.558,1074.854a2.295,2.295,0,1,0,2.294,2.3A2.295,2.295,0,0,0,258.558,1074.854Z" fill="#303030"/><path d="M258.558,1067.969a2.295,2.295,0,1,0,2.294,2.3A2.295,2.295,0,0,0,258.558,1067.969Z" fill="#303030"/><path d="M258.558,1061.085a2.3,2.3,0,1,0,2.294,2.3A2.3,2.3,0,0,0,258.558,1061.085Z" fill="#303030"/><path d="M258.558,1054.2a2.3,2.3,0,1,0,2.294,2.3A2.3,2.3,0,0,0,258.558,1054.2Z" fill="#303030"/><path d="M258.558,1047.316a2.295,2.295,0,1,0,2.294,2.295A2.295,2.295,0,0,0,258.558,1047.316Z" fill="#303030"/><path d="M258.558,1040.432a2.295,2.295,0,1,0,2.294,2.3A2.295,2.295,0,0,0,258.558,1040.432Z" fill="#303030"/><path d="M258.558,1033.547a2.295,2.295,0,1,0,2.294,2.3A2.295,2.295,0,0,0,258.558,1033.547Z" fill="#303030"/><path d="M258.558,1026.663a2.3,2.3,0,1,0,2.294,2.3A2.3,2.3,0,0,0,258.558,1026.663Z" fill="#303030"/><path d="M258.558,1019.778a2.3,2.3,0,1,0,2.294,2.295A2.3,2.3,0,0,0,258.558,1019.778Z" fill="#303030"/><path d="M258.558,1012.894a2.3,2.3,0,1,0,2.294,2.3A2.3,2.3,0,0,0,258.558,1012.894Z" fill="#303030"/><path d="M258.558,1006.01a2.295,2.295,0,1,0,2.294,2.295A2.3,2.3,0,0,0,258.558,1006.01Z" fill="#303030"/><path d="M258.558,999.126a2.295,2.295,0,1,0,2.294,2.294A2.294,2.294,0,0,0,258.558,999.126Z" fill="#303030"/><path d="M251.673,1074.854a2.295,2.295,0,1,0,2.295,2.3A2.295,2.295,0,0,0,251.673,1074.854Z" fill="#303030"/><path d="M251.673,1067.969a2.295,2.295,0,1,0,2.295,2.3A2.295,2.295,0,0,0,251.673,1067.969Z" fill="#303030"/><path d="M251.673,1061.085a2.3,2.3,0,1,0,2.295,2.3A2.3,2.3,0,0,0,251.673,1061.085Z" fill="#303030"/><path d="M251.673,1054.2a2.3,2.3,0,1,0,2.295,2.3A2.3,2.3,0,0,0,251.673,1054.2Z" fill="#303030"/><path d="M251.673,1047.316a2.295,2.295,0,1,0,2.295,2.295A2.295,2.295,0,0,0,251.673,1047.316Z" fill="#303030"/><path d="M244.789,1074.854a2.295,2.295,0,1,0,2.294,2.3A2.295,2.295,0,0,0,244.789,1074.854Z" fill="#303030"/><path d="M244.789,1067.969a2.295,2.295,0,1,0,2.294,2.3A2.295,2.295,0,0,0,244.789,1067.969Z" fill="#303030"/><path d="M244.789,1061.085a2.3,2.3,0,1,0,2.294,2.3A2.3,2.3,0,0,0,244.789,1061.085Z" fill="#303030"/><path d="M244.789,1054.2a2.3,2.3,0,1,0,2.294,2.3A2.3,2.3,0,0,0,244.789,1054.2Z" fill="#303030"/><path d="M244.789,1047.316a2.295,2.295,0,1,0,2.294,2.295A2.295,2.295,0,0,0,244.789,1047.316Z" fill="#303030"/><path d="M244.789,1040.432a2.295,2.295,0,1,0,2.294,2.3A2.295,2.295,0,0,0,244.789,1040.432Z" fill="#303030"/><path d="M237.9,1074.854a2.295,2.295,0,1,0,2.294,2.3A2.295,2.295,0,0,0,237.9,1074.854Z" fill="#303030"/><path d="M237.9,1067.969a2.295,2.295,0,1,0,2.294,2.3A2.295,2.295,0,0,0,237.9,1067.969Z" fill="#303030"/><path d="M237.9,1061.085a2.3,2.3,0,1,0,2.294,2.3A2.3,2.3,0,0,0,237.9,1061.085Z" fill="#303030"/><path d="M237.9,1054.2a2.3,2.3,0,1,0,2.294,2.3A2.3,2.3,0,0,0,237.9,1054.2Z" fill="#303030"/><path d="M237.9,1047.316a2.295,2.295,0,1,0,2.294,2.295A2.295,2.295,0,0,0,237.9,1047.316Z" fill="#303030"/><path d="M237.9,1040.432a2.295,2.295,0,1,0,2.294,2.3A2.295,2.295,0,0,0,237.9,1040.432Z" fill="#303030"/><path d="M237.9,1033.547a2.295,2.295,0,1,0,2.294,2.3A2.295,2.295,0,0,0,237.9,1033.547Z" fill="#303030"/><path d="M237.9,1026.663a2.3,2.3,0,1,0,2.294,2.3A2.3,2.3,0,0,0,237.9,1026.663Z" fill="#303030"/><path d="M231.02,1074.854a2.295,2.295,0,1,0,2.295,2.3A2.295,2.295,0,0,0,231.02,1074.854Z" fill="#303030"/><path d="M231.02,1067.969a2.295,2.295,0,1,0,2.295,2.3A2.295,2.295,0,0,0,231.02,1067.969Z" fill="#303030"/><path d="M231.02,1061.085a2.3,2.3,0,1,0,2.295,2.3A2.3,2.3,0,0,0,231.02,1061.085Z" fill="#303030"/><path d="M231.02,1054.2a2.3,2.3,0,1,0,2.295,2.3A2.3,2.3,0,0,0,231.02,1054.2Z" fill="#303030"/><path d="M231.02,1047.316a2.295,2.295,0,1,0,2.295,2.295A2.295,2.295,0,0,0,231.02,1047.316Z" fill="#303030"/><path d="M224.136,1074.854a2.295,2.295,0,1,0,2.294,2.3A2.295,2.295,0,0,0,224.136,1074.854Z" fill="#303030"/><path d="M224.136,1067.969a2.295,2.295,0,1,0,2.294,2.3A2.295,2.295,0,0,0,224.136,1067.969Z" fill="#303030"/><path d="M224.136,1061.085a2.3,2.3,0,1,0,2.294,2.3A2.3,2.3,0,0,0,224.136,1061.085Z" fill="#303030"/><path d="M217.251,1074.854a2.295,2.295,0,1,0,2.295,2.3A2.294,2.294,0,0,0,217.251,1074.854Z" fill="#303030"/><path d="M217.251,1067.969a2.295,2.295,0,1,0,2.295,2.3A2.294,2.294,0,0,0,217.251,1067.969Z" fill="#303030"/><path d="M217.251,1061.085a2.3,2.3,0,1,0,2.295,2.3A2.294,2.294,0,0,0,217.251,1061.085Z" fill="#303030"/><path d="M217.251,1054.2a2.3,2.3,0,1,0,2.295,2.3A2.3,2.3,0,0,0,217.251,1054.2Z" fill="#303030"/><path d="M217.251,1047.316a2.295,2.295,0,1,0,2.295,2.295A2.294,2.294,0,0,0,217.251,1047.316Z" fill="#303030"/><path d="M217.251,1040.432a2.295,2.295,0,1,0,2.295,2.3A2.294,2.294,0,0,0,217.251,1040.432Z" fill="#303030"/><path d="M217.251,1033.547a2.295,2.295,0,1,0,2.295,2.3A2.294,2.294,0,0,0,217.251,1033.547Z" fill="#303030"/><path d="M217.251,1026.663a2.3,2.3,0,1,0,2.295,2.3A2.294,2.294,0,0,0,217.251,1026.663Z" fill="#303030"/><path d="M217.251,1019.778a2.3,2.3,0,1,0,2.295,2.295A2.295,2.295,0,0,0,217.251,1019.778Z" fill="#303030"/><path d="M217.251,1012.894a2.3,2.3,0,1,0,2.295,2.3A2.294,2.294,0,0,0,217.251,1012.894Z" fill="#303030"/><path d="M210.367,1074.854a2.295,2.295,0,1,0,2.295,2.3A2.295,2.295,0,0,0,210.367,1074.854Z" fill="#303030"/><path d="M210.367,1067.969a2.295,2.295,0,1,0,2.295,2.3A2.295,2.295,0,0,0,210.367,1067.969Z" fill="#303030"/><path d="M210.367,1061.085a2.3,2.3,0,1,0,2.295,2.3A2.3,2.3,0,0,0,210.367,1061.085Z" fill="#303030"/><path d="M210.367,1054.2a2.3,2.3,0,1,0,2.295,2.3A2.3,2.3,0,0,0,210.367,1054.2Z" fill="#303030"/><path d="M210.367,1047.316a2.295,2.295,0,1,0,2.295,2.295A2.295,2.295,0,0,0,210.367,1047.316Z" fill="#303030"/><path d="M210.367,1040.432a2.295,2.295,0,1,0,2.295,2.3A2.295,2.295,0,0,0,210.367,1040.432Z" fill="#303030"/><path d="M210.367,1033.547a2.295,2.295,0,1,0,2.295,2.3A2.295,2.295,0,0,0,210.367,1033.547Z" fill="#303030"/><path d="M210.367,1026.663a2.3,2.3,0,1,0,2.295,2.3A2.3,2.3,0,0,0,210.367,1026.663Z" fill="#303030"/><path d="M203.483,1074.854a2.295,2.295,0,1,0,2.294,2.3A2.295,2.295,0,0,0,203.483,1074.854Z" fill="#303030"/><path d="M203.483,1067.969a2.295,2.295,0,1,0,2.294,2.3A2.295,2.295,0,0,0,203.483,1067.969Z" fill="#303030"/><path d="M203.483,1061.085a2.3,2.3,0,1,0,2.294,2.3A2.3,2.3,0,0,0,203.483,1061.085Z" fill="#303030"/><path d="M203.483,1054.2a2.3,2.3,0,1,0,2.294,2.3A2.3,2.3,0,0,0,203.483,1054.2Z" fill="#303030"/><path d="M203.483,1047.316a2.295,2.295,0,1,0,2.294,2.295A2.295,2.295,0,0,0,203.483,1047.316Z" fill="#303030"/><path d="M203.483,1040.432a2.295,2.295,0,1,0,2.294,2.3A2.295,2.295,0,0,0,203.483,1040.432Z" fill="#303030"/><path d="M203.483,1033.547a2.295,2.295,0,1,0,2.294,2.3A2.295,2.295,0,0,0,203.483,1033.547Z" fill="#303030"/><path d="M203.483,1026.663a2.3,2.3,0,1,0,2.294,2.3A2.3,2.3,0,0,0,203.483,1026.663Z" fill="#303030"/><path d="M203.483,1019.778a2.3,2.3,0,1,0,2.294,2.295A2.3,2.3,0,0,0,203.483,1019.778Z" fill="#303030"/><path d="M196.6,1074.854a2.295,2.295,0,1,0,2.295,2.3A2.295,2.295,0,0,0,196.6,1074.854Z" fill="#303030"/><path d="M196.6,1067.969a2.295,2.295,0,1,0,2.295,2.3A2.295,2.295,0,0,0,196.6,1067.969Z" fill="#303030"/><path d="M196.6,1061.085a2.3,2.3,0,1,0,2.295,2.3A2.3,2.3,0,0,0,196.6,1061.085Z" fill="#303030"/><path d="M196.6,1054.2a2.3,2.3,0,1,0,2.295,2.3A2.3,2.3,0,0,0,196.6,1054.2Z" fill="#303030"/><path d="M196.6,1047.316a2.295,2.295,0,1,0,2.295,2.295A2.295,2.295,0,0,0,196.6,1047.316Z" fill="#303030"/><path d="M196.6,1040.432a2.295,2.295,0,1,0,2.295,2.3A2.295,2.295,0,0,0,196.6,1040.432Z" fill="#303030"/><path d="M189.714,1074.854a2.295,2.295,0,1,0,2.294,2.3A2.3,2.3,0,0,0,189.714,1074.854Z" fill="#303030"/><path d="M189.714,1067.969a2.295,2.295,0,1,0,2.294,2.3A2.3,2.3,0,0,0,189.714,1067.969Z" fill="#303030"/><path d="M189.714,1061.085a2.3,2.3,0,1,0,2.294,2.3A2.3,2.3,0,0,0,189.714,1061.085Z" fill="#303030"/><path d="M189.714,1054.2a2.3,2.3,0,1,0,2.294,2.3A2.3,2.3,0,0,0,189.714,1054.2Z" fill="#303030"/><path d="M189.714,1047.316a2.295,2.295,0,1,0,2.294,2.295A2.3,2.3,0,0,0,189.714,1047.316Z" fill="#303030"/><path d="M189.714,1040.432a2.295,2.295,0,1,0,2.294,2.3A2.3,2.3,0,0,0,189.714,1040.432Z" fill="#303030"/><path d="M189.714,1033.547a2.295,2.295,0,1,0,2.294,2.3A2.3,2.3,0,0,0,189.714,1033.547Z" fill="#303030"/><path d="M189.714,1026.663a2.3,2.3,0,1,0,2.294,2.3A2.3,2.3,0,0,0,189.714,1026.663Z" fill="#303030"/><path d="M182.83,1074.854a2.295,2.295,0,1,0,2.294,2.3A2.3,2.3,0,0,0,182.83,1074.854Z" fill="#303030"/><path d="M182.83,1067.969a2.295,2.295,0,1,0,2.294,2.3A2.3,2.3,0,0,0,182.83,1067.969Z" fill="#303030"/><path d="M182.83,1061.085a2.3,2.3,0,1,0,2.294,2.3A2.3,2.3,0,0,0,182.83,1061.085Z" fill="#303030"/><path d="M182.83,1054.2a2.3,2.3,0,1,0,2.294,2.3A2.3,2.3,0,0,0,182.83,1054.2Z" fill="#303030"/><path d="M182.83,1047.316a2.295,2.295,0,1,0,2.294,2.295A2.3,2.3,0,0,0,182.83,1047.316Z" fill="#303030"/><path d="M182.83,1040.432a2.295,2.295,0,1,0,2.294,2.3A2.3,2.3,0,0,0,182.83,1040.432Z" fill="#303030"/><path d="M182.83,1033.547a2.295,2.295,0,1,0,2.294,2.3A2.3,2.3,0,0,0,182.83,1033.547Z" fill="#303030"/><path d="M175.945,1074.854a2.295,2.295,0,1,0,2.295,2.3A2.3,2.3,0,0,0,175.945,1074.854Z" fill="#303030"/><path d="M175.945,1067.969a2.295,2.295,0,1,0,2.295,2.3A2.3,2.3,0,0,0,175.945,1067.969Z" fill="#303030"/><path d="M175.945,1061.085a2.3,2.3,0,1,0,2.295,2.3A2.3,2.3,0,0,0,175.945,1061.085Z" fill="#303030"/><path d="M175.945,1054.2a2.3,2.3,0,1,0,2.295,2.3A2.3,2.3,0,0,0,175.945,1054.2Z" fill="#303030"/><path d="M175.945,1047.316a2.295,2.295,0,1,0,2.295,2.295A2.3,2.3,0,0,0,175.945,1047.316Z" fill="#303030"/><path d="M175.945,1040.432a2.295,2.295,0,1,0,2.295,2.3A2.3,2.3,0,0,0,175.945,1040.432Z" fill="#303030"/><path d="M175.945,1033.547a2.295,2.295,0,1,0,2.295,2.3A2.3,2.3,0,0,0,175.945,1033.547Z" fill="#303030"/><path d="M175.945,1026.663a2.3,2.3,0,1,0,2.295,2.3A2.3,2.3,0,0,0,175.945,1026.663Z" fill="#303030"/><path d="M169.061,1074.854a2.295,2.295,0,1,0,2.294,2.3A2.295,2.295,0,0,0,169.061,1074.854Z" fill="#303030"/><path d="M169.061,1067.969a2.295,2.295,0,1,0,2.294,2.3A2.295,2.295,0,0,0,169.061,1067.969Z" fill="#303030"/><path d="M169.061,1061.085a2.3,2.3,0,1,0,2.294,2.3A2.3,2.3,0,0,0,169.061,1061.085Z" fill="#303030"/><path d="M169.061,1054.2a2.3,2.3,0,1,0,2.294,2.3A2.3,2.3,0,0,0,169.061,1054.2Z" fill="#303030"/><path d="M169.061,1047.316a2.295,2.295,0,1,0,2.294,2.295A2.295,2.295,0,0,0,169.061,1047.316Z" fill="#303030"/><path d="M169.061,1040.432a2.295,2.295,0,1,0,2.294,2.3A2.295,2.295,0,0,0,169.061,1040.432Z" fill="#303030"/><path d="M169.061,1033.547a2.295,2.295,0,1,0,2.294,2.3A2.295,2.295,0,0,0,169.061,1033.547Z" fill="#303030"/><path d="M169.061,1026.663a2.3,2.3,0,1,0,2.294,2.3A2.3,2.3,0,0,0,169.061,1026.663Z" fill="#303030"/><path d="M169.061,1019.778a2.3,2.3,0,1,0,2.294,2.295A2.3,2.3,0,0,0,169.061,1019.778Z" fill="#303030"/><path d="M169.061,1012.894a2.3,2.3,0,1,0,2.294,2.3A2.3,2.3,0,0,0,169.061,1012.894Z" fill="#303030"/><path d="M162.176,1074.854a2.295,2.295,0,1,0,2.295,2.3A2.3,2.3,0,0,0,162.176,1074.854Z" fill="#303030"/><circle cx="2.295" cy="2.295" r="2.295" transform="translate(159.881 1067.969)" fill="#303030"/><circle cx="2.295" cy="2.295" r="2.295" transform="translate(159.881 1061.085)" fill="#303030"/><path d="M162.176,1054.2a2.3,2.3,0,1,0,2.295,2.3A2.3,2.3,0,0,0,162.176,1054.2Z" fill="#303030"/><circle cx="2.295" cy="2.295" r="2.295" transform="translate(159.881 1047.316)" fill="#303030"/><path d="M155.292,1074.854a2.295,2.295,0,1,0,2.294,2.3A2.3,2.3,0,0,0,155.292,1074.854Z" fill="#303030"/><path d="M155.292,1067.969a2.295,2.295,0,1,0,2.294,2.3A2.3,2.3,0,0,0,155.292,1067.969Z" fill="#303030"/><path d="M155.292,1061.085a2.3,2.3,0,1,0,2.294,2.3A2.3,2.3,0,0,0,155.292,1061.085Z" fill="#303030"/><path d="M155.292,1054.2a2.3,2.3,0,1,0,2.294,2.3A2.3,2.3,0,0,0,155.292,1054.2Z" fill="#303030"/><path d="M155.292,1047.316a2.295,2.295,0,1,0,2.294,2.295A2.3,2.3,0,0,0,155.292,1047.316Z" fill="#303030"/><path d="M155.292,1040.432a2.295,2.295,0,1,0,2.294,2.3A2.3,2.3,0,0,0,155.292,1040.432Z" fill="#303030"/><path d="M155.292,1033.547a2.295,2.295,0,1,0,2.294,2.3A2.3,2.3,0,0,0,155.292,1033.547Z" fill="#303030"/><path d="M148.407,1074.854a2.295,2.295,0,1,0,2.295,2.3A2.3,2.3,0,0,0,148.407,1074.854Z" fill="#303030"/><path d="M148.407,1067.969a2.295,2.295,0,1,0,2.295,2.3A2.3,2.3,0,0,0,148.407,1067.969Z" fill="#303030"/><path d="M148.407,1061.085a2.3,2.3,0,1,0,2.295,2.3A2.3,2.3,0,0,0,148.407,1061.085Z" fill="#303030"/><path d="M148.407,1054.2a2.3,2.3,0,1,0,2.295,2.3A2.3,2.3,0,0,0,148.407,1054.2Z" fill="#303030"/><path d="M148.407,1047.316a2.295,2.295,0,1,0,2.295,2.295A2.3,2.3,0,0,0,148.407,1047.316Z" fill="#303030"/><path d="M148.407,1040.432a2.295,2.295,0,1,0,2.295,2.3A2.3,2.3,0,0,0,148.407,1040.432Z" fill="#303030"/><path d="M148.407,1033.547a2.295,2.295,0,1,0,2.295,2.3A2.3,2.3,0,0,0,148.407,1033.547Z" fill="#303030"/><path d="M148.407,1026.663a2.3,2.3,0,1,0,2.295,2.3A2.3,2.3,0,0,0,148.407,1026.663Z" fill="#303030"/><path d="M148.407,1019.778a2.3,2.3,0,1,0,2.295,2.295A2.3,2.3,0,0,0,148.407,1019.778Z" fill="#303030"/><path d="M141.523,1074.854a2.295,2.295,0,1,0,2.294,2.3A2.3,2.3,0,0,0,141.523,1074.854Z" fill="#303030"/><path d="M141.523,1067.969a2.295,2.295,0,1,0,2.294,2.3A2.3,2.3,0,0,0,141.523,1067.969Z" fill="#303030"/><path d="M141.523,1061.085a2.3,2.3,0,1,0,2.294,2.3A2.3,2.3,0,0,0,141.523,1061.085Z" fill="#303030"/><path d="M141.523,1054.2a2.3,2.3,0,1,0,2.294,2.3A2.3,2.3,0,0,0,141.523,1054.2Z" fill="#303030"/><path d="M141.523,1047.316a2.295,2.295,0,1,0,2.294,2.295A2.3,2.3,0,0,0,141.523,1047.316Z" fill="#303030"/><path d="M134.639,1074.854a2.295,2.295,0,1,0,2.294,2.3A2.3,2.3,0,0,0,134.639,1074.854Z" fill="#303030"/><path d="M134.639,1067.969a2.295,2.295,0,1,0,2.294,2.3A2.3,2.3,0,0,0,134.639,1067.969Z" fill="#303030"/><path d="M134.639,1061.085a2.3,2.3,0,1,0,2.294,2.3A2.3,2.3,0,0,0,134.639,1061.085Z" fill="#303030"/><path d="M127.754,1074.854a2.295,2.295,0,1,0,2.295,2.3A2.3,2.3,0,0,0,127.754,1074.854Z" fill="#303030"/><path d="M127.754,1067.969a2.295,2.295,0,1,0,2.295,2.3A2.3,2.3,0,0,0,127.754,1067.969Z" fill="#303030"/><path d="M127.754,1061.085a2.3,2.3,0,1,0,2.295,2.3A2.3,2.3,0,0,0,127.754,1061.085Z" fill="#303030"/><path d="M127.754,1054.2a2.3,2.3,0,1,0,2.295,2.3A2.3,2.3,0,0,0,127.754,1054.2Z" fill="#303030"/><path d="M127.754,1047.316a2.295,2.295,0,1,0,2.295,2.295A2.3,2.3,0,0,0,127.754,1047.316Z" fill="#303030"/><path d="M127.754,1040.432a2.295,2.295,0,1,0,2.295,2.3A2.3,2.3,0,0,0,127.754,1040.432Z" fill="#303030"/><path d="M127.754,1033.547a2.295,2.295,0,1,0,2.295,2.3A2.3,2.3,0,0,0,127.754,1033.547Z" fill="#303030"/><path d="M127.754,1026.663a2.3,2.3,0,1,0,2.295,2.3A2.3,2.3,0,0,0,127.754,1026.663Z" fill="#303030"/><path d="M120.87,1074.854a2.295,2.295,0,1,0,2.295,2.3A2.3,2.3,0,0,0,120.87,1074.854Z" fill="#303030"/><path d="M120.87,1067.969a2.295,2.295,0,1,0,2.295,2.3A2.3,2.3,0,0,0,120.87,1067.969Z" fill="#303030"/><path d="M120.87,1061.085a2.3,2.3,0,1,0,2.295,2.3A2.3,2.3,0,0,0,120.87,1061.085Z" fill="#303030"/><path d="M120.87,1054.2a2.3,2.3,0,1,0,2.295,2.3A2.3,2.3,0,0,0,120.87,1054.2Z" fill="#303030"/><path d="M120.87,1047.316a2.295,2.295,0,1,0,2.295,2.295A2.3,2.3,0,0,0,120.87,1047.316Z" fill="#303030"/><path d="M120.87,1040.432a2.295,2.295,0,1,0,2.295,2.3A2.3,2.3,0,0,0,120.87,1040.432Z" fill="#303030"/><path d="M120.87,1033.547a2.295,2.295,0,1,0,2.295,2.3A2.3,2.3,0,0,0,120.87,1033.547Z" fill="#303030"/><path d="M120.87,1026.663a2.3,2.3,0,1,0,2.295,2.3A2.3,2.3,0,0,0,120.87,1026.663Z" fill="#303030"/><path d="M120.87,1019.778a2.3,2.3,0,1,0,2.295,2.295A2.3,2.3,0,0,0,120.87,1019.778Z" fill="#303030"/><path d="M120.87,1012.894a2.3,2.3,0,1,0,2.295,2.3A2.3,2.3,0,0,0,120.87,1012.894Z" fill="#303030"/><path d="M113.985,1074.854a2.295,2.295,0,1,0,2.295,2.3A2.3,2.3,0,0,0,113.985,1074.854Z" fill="#303030"/><path d="M113.985,1067.969a2.295,2.295,0,1,0,2.295,2.3A2.3,2.3,0,0,0,113.985,1067.969Z" fill="#303030"/><path d="M113.985,1061.085a2.3,2.3,0,1,0,2.295,2.3A2.3,2.3,0,0,0,113.985,1061.085Z" fill="#303030"/><path d="M113.985,1054.2a2.3,2.3,0,1,0,2.295,2.3A2.3,2.3,0,0,0,113.985,1054.2Z" fill="#303030"/><path d="M113.985,1047.316a2.295,2.295,0,1,0,2.295,2.295A2.3,2.3,0,0,0,113.985,1047.316Z" fill="#303030"/><path d="M107.1,1074.854a2.295,2.295,0,1,0,2.294,2.3A2.3,2.3,0,0,0,107.1,1074.854Z" fill="#303030"/><path d="M107.1,1067.969a2.295,2.295,0,1,0,2.294,2.3A2.3,2.3,0,0,0,107.1,1067.969Z" fill="#303030"/><path d="M107.1,1061.085a2.3,2.3,0,1,0,2.294,2.3A2.3,2.3,0,0,0,107.1,1061.085Z" fill="#303030"/><path d="M100.217,1074.854a2.295,2.295,0,1,0,2.294,2.3A2.295,2.295,0,0,0,100.217,1074.854Z" fill="#303030"/><path d="M100.217,1067.969a2.295,2.295,0,1,0,2.294,2.3A2.295,2.295,0,0,0,100.217,1067.969Z" fill="#303030"/><path d="M93.332,1074.854a2.295,2.295,0,1,0,2.295,2.3A2.3,2.3,0,0,0,93.332,1074.854Z" fill="#303030"/><path d="M93.332,1067.969a2.295,2.295,0,1,0,2.295,2.3A2.3,2.3,0,0,0,93.332,1067.969Z" fill="#303030"/><path d="M93.332,1061.085a2.3,2.3,0,1,0,2.295,2.3A2.3,2.3,0,0,0,93.332,1061.085Z" fill="#303030"/><path d="M93.332,1054.2a2.3,2.3,0,1,0,2.295,2.3A2.3,2.3,0,0,0,93.332,1054.2Z" fill="#303030"/><path d="M93.332,1047.316a2.295,2.295,0,1,0,2.295,2.295A2.3,2.3,0,0,0,93.332,1047.316Z" fill="#303030"/><path d="M86.448,1074.854a2.295,2.295,0,1,0,2.294,2.3A2.3,2.3,0,0,0,86.448,1074.854Z" fill="#303030"/><path d="M86.448,1067.969a2.295,2.295,0,1,0,2.294,2.3A2.3,2.3,0,0,0,86.448,1067.969Z" fill="#303030"/><path d="M86.448,1061.085a2.3,2.3,0,1,0,2.294,2.3A2.3,2.3,0,0,0,86.448,1061.085Z" fill="#303030"/><path d="M86.448,1054.2a2.3,2.3,0,1,0,2.294,2.3A2.3,2.3,0,0,0,86.448,1054.2Z" fill="#303030"/><path d="M86.448,1047.316a2.295,2.295,0,1,0,2.294,2.295A2.3,2.3,0,0,0,86.448,1047.316Z" fill="#303030"/><path d="M86.448,1040.432a2.295,2.295,0,1,0,2.294,2.3A2.3,2.3,0,0,0,86.448,1040.432Z" fill="#303030"/><path d="M86.448,1033.547a2.295,2.295,0,1,0,2.294,2.3A2.3,2.3,0,0,0,86.448,1033.547Z" fill="#303030"/><path d="M86.448,1026.663a2.3,2.3,0,1,0,2.294,2.3A2.3,2.3,0,0,0,86.448,1026.663Z" fill="#303030"/><path d="M79.563,1074.854a2.295,2.295,0,1,0,2.295,2.3A2.3,2.3,0,0,0,79.563,1074.854Z" fill="#303030"/><path d="M79.563,1067.969a2.295,2.295,0,1,0,2.295,2.3A2.3,2.3,0,0,0,79.563,1067.969Z" fill="#303030"/><path d="M79.563,1061.085a2.3,2.3,0,1,0,2.295,2.3A2.3,2.3,0,0,0,79.563,1061.085Z" fill="#303030"/><path d="M79.563,1054.2a2.3,2.3,0,1,0,2.295,2.3A2.3,2.3,0,0,0,79.563,1054.2Z" fill="#303030"/><path d="M79.563,1047.316a2.295,2.295,0,1,0,2.295,2.295A2.3,2.3,0,0,0,79.563,1047.316Z" fill="#303030"/><path d="M79.563,1040.432a2.295,2.295,0,1,0,2.295,2.3A2.3,2.3,0,0,0,79.563,1040.432Z" fill="#303030"/><path d="M79.563,1033.547a2.295,2.295,0,1,0,2.295,2.3A2.3,2.3,0,0,0,79.563,1033.547Z" fill="#303030"/><path d="M79.563,1026.663a2.3,2.3,0,1,0,2.295,2.3A2.3,2.3,0,0,0,79.563,1026.663Z" fill="#303030"/><path d="M79.563,1019.778a2.3,2.3,0,1,0,2.295,2.295A2.3,2.3,0,0,0,79.563,1019.778Z" fill="#303030"/><path d="M72.679,1074.854a2.295,2.295,0,1,0,2.294,2.3A2.3,2.3,0,0,0,72.679,1074.854Z" fill="#303030"/><path d="M72.679,1067.969a2.295,2.295,0,1,0,2.294,2.3A2.3,2.3,0,0,0,72.679,1067.969Z" fill="#303030"/><path d="M72.679,1061.085a2.3,2.3,0,1,0,2.294,2.3A2.3,2.3,0,0,0,72.679,1061.085Z" fill="#303030"/><path d="M72.679,1054.2a2.3,2.3,0,1,0,2.294,2.3A2.3,2.3,0,0,0,72.679,1054.2Z" fill="#303030"/><path d="M72.679,1047.316a2.295,2.295,0,1,0,2.294,2.295A2.3,2.3,0,0,0,72.679,1047.316Z" fill="#303030"/><path d="M72.679,1040.432a2.295,2.295,0,1,0,2.294,2.3A2.3,2.3,0,0,0,72.679,1040.432Z" fill="#303030"/><path d="M65.794,1074.854a2.295,2.295,0,1,0,2.295,2.3A2.3,2.3,0,0,0,65.794,1074.854Z" fill="#303030"/><path d="M65.794,1067.969a2.295,2.295,0,1,0,2.295,2.3A2.3,2.3,0,0,0,65.794,1067.969Z" fill="#303030"/><path d="M65.794,1061.085a2.3,2.3,0,1,0,2.295,2.3A2.3,2.3,0,0,0,65.794,1061.085Z" fill="#303030"/><path d="M58.91,1074.854a2.295,2.295,0,1,0,2.3,2.3A2.3,2.3,0,0,0,58.91,1074.854Z" fill="#303030"/><circle cx="2.295" cy="2.295" r="2.295" transform="translate(56.615 1067.969)" fill="#303030"/><circle cx="2.295" cy="2.295" r="2.295" transform="translate(56.615 1061.085)" fill="#303030"/><path d="M58.91,1054.2a2.3,2.3,0,1,0,2.3,2.3A2.3,2.3,0,0,0,58.91,1054.2Z" fill="#303030"/><circle cx="2.295" cy="2.295" r="2.295" transform="translate(56.615 1047.316)" fill="#303030"/><path d="M52.025,1074.854a2.295,2.295,0,1,0,2.295,2.3A2.295,2.295,0,0,0,52.025,1074.854Z" fill="#303030"/><path d="M52.025,1067.969a2.295,2.295,0,1,0,2.295,2.3A2.295,2.295,0,0,0,52.025,1067.969Z" fill="#303030"/><path d="M52.025,1061.085a2.3,2.3,0,1,0,2.295,2.3A2.295,2.295,0,0,0,52.025,1061.085Z" fill="#303030"/><path d="M52.025,1054.2a2.3,2.3,0,1,0,2.295,2.3A2.3,2.3,0,0,0,52.025,1054.2Z" fill="#303030"/><path d="M45.141,1074.854a2.295,2.295,0,1,0,2.3,2.3A2.3,2.3,0,0,0,45.141,1074.854Z" fill="#303030"/><circle cx="2.295" cy="2.295" r="2.295" transform="translate(42.846 1067.969)" fill="#303030"/><circle cx="2.295" cy="2.295" r="2.295" transform="translate(42.846 1061.085)" fill="#303030"/><path d="M45.141,1054.2a2.3,2.3,0,1,0,2.3,2.3A2.3,2.3,0,0,0,45.141,1054.2Z" fill="#303030"/><circle cx="2.295" cy="2.295" r="2.295" transform="translate(42.846 1047.316)" fill="#303030"/><circle cx="2.295" cy="2.295" r="2.295" transform="translate(42.846 1040.432)" fill="#303030"/><path d="M38.257,1074.854a2.295,2.295,0,1,0,2.295,2.3A2.3,2.3,0,0,0,38.257,1074.854Z" fill="#303030"/><path d="M38.257,1067.969a2.295,2.295,0,1,0,2.295,2.3A2.3,2.3,0,0,0,38.257,1067.969Z" fill="#303030"/><path d="M38.257,1061.085a2.3,2.3,0,1,0,2.295,2.3A2.3,2.3,0,0,0,38.257,1061.085Z" fill="#303030"/><path d="M38.257,1054.2a2.3,2.3,0,1,0,2.295,2.3A2.3,2.3,0,0,0,38.257,1054.2Z" fill="#303030"/><path d="M38.257,1047.316a2.295,2.295,0,1,0,2.295,2.295A2.3,2.3,0,0,0,38.257,1047.316Z" fill="#303030"/><path d="M38.257,1040.432a2.295,2.295,0,1,0,2.295,2.3A2.3,2.3,0,0,0,38.257,1040.432Z" fill="#303030"/><path d="M38.257,1033.547a2.295,2.295,0,1,0,2.295,2.3A2.3,2.3,0,0,0,38.257,1033.547Z" fill="#303030"/><path d="M38.257,1026.663a2.3,2.3,0,1,0,2.295,2.3A2.3,2.3,0,0,0,38.257,1026.663Z" fill="#303030"/><path d="M38.257,1019.778a2.3,2.3,0,1,0,2.295,2.295A2.3,2.3,0,0,0,38.257,1019.778Z" fill="#303030"/><path d="M38.257,1012.894a2.3,2.3,0,1,0,2.295,2.3A2.3,2.3,0,0,0,38.257,1012.894Z" fill="#303030"/><path d="M31.372,1074.854a2.295,2.295,0,1,0,2.3,2.3A2.3,2.3,0,0,0,31.372,1074.854Z" fill="#303030"/><path d="M31.372,1067.969a2.295,2.295,0,1,0,2.3,2.3A2.3,2.3,0,0,0,31.372,1067.969Z" fill="#303030"/><path d="M31.372,1061.085a2.3,2.3,0,1,0,2.3,2.3A2.3,2.3,0,0,0,31.372,1061.085Z" fill="#303030"/><path d="M31.372,1054.2a2.3,2.3,0,1,0,2.3,2.3A2.3,2.3,0,0,0,31.372,1054.2Z" fill="#303030"/><path d="M31.372,1047.316a2.295,2.295,0,1,0,2.3,2.295A2.3,2.3,0,0,0,31.372,1047.316Z" fill="#303030"/><path d="M31.372,1040.432a2.295,2.295,0,1,0,2.3,2.3A2.3,2.3,0,0,0,31.372,1040.432Z" fill="#303030"/><path d="M31.372,1033.547a2.295,2.295,0,1,0,2.3,2.3A2.3,2.3,0,0,0,31.372,1033.547Z" fill="#303030"/><path d="M24.488,1074.854a2.295,2.295,0,1,0,2.3,2.3A2.3,2.3,0,0,0,24.488,1074.854Z" fill="#303030"/><path d="M24.488,1067.969a2.295,2.295,0,1,0,2.3,2.3A2.3,2.3,0,0,0,24.488,1067.969Z" fill="#303030"/><path d="M24.488,1061.085a2.3,2.3,0,1,0,2.3,2.3A2.3,2.3,0,0,0,24.488,1061.085Z" fill="#303030"/><path d="M24.488,1054.2a2.3,2.3,0,1,0,2.3,2.3A2.3,2.3,0,0,0,24.488,1054.2Z" fill="#303030"/><path d="M24.488,1047.316a2.295,2.295,0,1,0,2.3,2.295A2.3,2.3,0,0,0,24.488,1047.316Z" fill="#303030"/><path d="M24.488,1040.432a2.295,2.295,0,1,0,2.3,2.3A2.3,2.3,0,0,0,24.488,1040.432Z" fill="#303030"/><path d="M24.488,1033.547a2.295,2.295,0,1,0,2.3,2.3A2.3,2.3,0,0,0,24.488,1033.547Z" fill="#303030"/><path d="M24.488,1026.663a2.3,2.3,0,1,0,2.3,2.3A2.3,2.3,0,0,0,24.488,1026.663Z" fill="#303030"/><path d="M24.488,1019.778a2.3,2.3,0,1,0,2.3,2.295A2.3,2.3,0,0,0,24.488,1019.778Z" fill="#303030"/><path d="M17.6,1074.854a2.295,2.295,0,1,0,2.294,2.3A2.3,2.3,0,0,0,17.6,1074.854Z" fill="#303030"/><path d="M17.6,1067.969a2.295,2.295,0,1,0,2.294,2.3A2.3,2.3,0,0,0,17.6,1067.969Z" fill="#303030"/><path d="M17.6,1061.085a2.3,2.3,0,1,0,2.294,2.3A2.3,2.3,0,0,0,17.6,1061.085Z" fill="#303030"/><path d="M17.6,1054.2a2.3,2.3,0,1,0,2.294,2.3A2.3,2.3,0,0,0,17.6,1054.2Z" fill="#303030"/><path d="M17.6,1047.316a2.295,2.295,0,1,0,2.294,2.295A2.3,2.3,0,0,0,17.6,1047.316Z" fill="#303030"/><path d="M17.6,1040.432a2.295,2.295,0,1,0,2.294,2.3A2.3,2.3,0,0,0,17.6,1040.432Z" fill="#303030"/><path d="M17.6,1033.547a2.295,2.295,0,1,0,2.294,2.3A2.3,2.3,0,0,0,17.6,1033.547Z" fill="#303030"/><path d="M10.719,1074.854a2.295,2.295,0,1,0,2.3,2.3A2.3,2.3,0,0,0,10.719,1074.854Z" fill="#303030"/><path d="M10.719,1067.969a2.295,2.295,0,1,0,2.3,2.3A2.3,2.3,0,0,0,10.719,1067.969Z" fill="#303030"/><path d="M10.719,1061.085a2.3,2.3,0,1,0,2.3,2.3A2.3,2.3,0,0,0,10.719,1061.085Z" fill="#303030"/><path d="M10.719,1054.2a2.3,2.3,0,1,0,2.3,2.3A2.3,2.3,0,0,0,10.719,1054.2Z" fill="#303030"/><path d="M10.719,1047.316a2.295,2.295,0,1,0,2.3,2.295A2.3,2.3,0,0,0,10.719,1047.316Z" fill="#303030"/><path d="M10.719,1040.432a2.295,2.295,0,1,0,2.3,2.3A2.3,2.3,0,0,0,10.719,1040.432Z" fill="#303030"/><path d="M10.719,1033.547a2.295,2.295,0,1,0,2.3,2.3A2.3,2.3,0,0,0,10.719,1033.547Z" fill="#303030"/><path d="M10.719,1026.663a2.3,2.3,0,1,0,2.3,2.3A2.3,2.3,0,0,0,10.719,1026.663Z" fill="#303030"/><path d="M10.719,1019.778a2.3,2.3,0,1,0,2.3,2.295A2.3,2.3,0,0,0,10.719,1019.778Z" fill="#303030"/><path d="M10.719,1012.894a2.3,2.3,0,1,0,2.3,2.3A2.3,2.3,0,0,0,10.719,1012.894Z" fill="#303030"/><path d="M10.719,1006.01a2.295,2.295,0,1,0,2.3,2.295A2.3,2.3,0,0,0,10.719,1006.01Z" fill="#303030"/><path d="M3.835,1074.854a2.295,2.295,0,1,0,2.294,2.3A2.3,2.3,0,0,0,3.835,1074.854Z" fill="#303030"/><path d="M3.835,1067.969a2.295,2.295,0,1,0,2.294,2.3A2.3,2.3,0,0,0,3.835,1067.969Z" fill="#303030"/><path d="M3.835,1061.085a2.3,2.3,0,1,0,2.294,2.3A2.3,2.3,0,0,0,3.835,1061.085Z" fill="#303030"/><path d="M3.835,1054.2a2.3,2.3,0,1,0,2.294,2.3A2.3,2.3,0,0,0,3.835,1054.2Z" fill="#303030"/><path d="M3.835,1047.316a2.295,2.295,0,1,0,2.294,2.295A2.3,2.3,0,0,0,3.835,1047.316Z" fill="#303030"/><path d="M3.835,1040.432a2.295,2.295,0,1,0,2.294,2.3A2.3,2.3,0,0,0,3.835,1040.432Z" fill="#303030"/><path d="M3.835,1033.547a2.295,2.295,0,1,0,2.294,2.3A2.3,2.3,0,0,0,3.835,1033.547Z" fill="#303030"/><path d="M3.835,1026.663a2.3,2.3,0,1,0,2.294,2.3A2.3,2.3,0,0,0,3.835,1026.663Z" fill="#303030"/><path d="M602.778,1067.969h0a2.189,2.189,0,0,0-.231.024,2.282,2.282,0,0,0,0,4.543,2.221,2.221,0,0,0,.231.023h0a2.3,2.3,0,0,0,0-4.59Z" fill="#303030"/><path d="M596.171,1068a2.3,2.3,0,0,0-.277-.028h0a2.295,2.295,0,1,0,0,4.59h0a2.3,2.3,0,0,0,.277-.028,2.284,2.284,0,0,0,0-4.534Z" fill="#303030"/><path d="M589.687,1074.967a2.272,2.272,0,0,0-.678-.113h0a2.295,2.295,0,1,0,0,4.59h0a2.289,2.289,0,0,0,.678-4.477Z" fill="#303030"/><path d="M589.687,1068.083a2.272,2.272,0,0,0-.678-.114h0a2.295,2.295,0,1,0,0,4.59h0a2.288,2.288,0,0,0,.678-4.476Z" fill="#303030"/><path d="M582.731,1074.945a2.25,2.25,0,0,0-.606-.091h0a2.295,2.295,0,1,0,0,4.59h0a2.251,2.251,0,0,0,.606-.092,2.291,2.291,0,0,0,1.642-1.741,2.347,2.347,0,0,0,0-.925A2.292,2.292,0,0,0,582.731,1074.945Z" fill="#303030"/><path d="M582.731,1068.06a2.285,2.285,0,0,0-.606-.091h0a2.295,2.295,0,1,0,0,4.59h0a2.348,2.348,0,0,0,2.248-1.832,2.347,2.347,0,0,0,0-.925A2.3,2.3,0,0,0,582.731,1068.06Z" fill="#303030"/><path d="M582.731,1061.176a2.29,2.29,0,0,0-.606-.091h0a2.3,2.3,0,0,0,0,4.59h0a2.348,2.348,0,0,0,2.248-1.833,2.342,2.342,0,0,0,0-.924A2.292,2.292,0,0,0,582.731,1061.176Z" fill="#303030"/><path d="M575.846,1074.945a2.244,2.244,0,0,0-.606-.091h0a2.295,2.295,0,1,0,0,4.59h0a2.245,2.245,0,0,0,.606-.092,2.282,2.282,0,0,0,0-4.407Z" fill="#303030"/><path d="M575.846,1068.06a2.278,2.278,0,0,0-.606-.091h0a2.295,2.295,0,1,0,0,4.59h0a2.29,2.29,0,0,0,.606-4.5Z" fill="#303030"/><path d="M575.846,1061.176a2.283,2.283,0,0,0-.606-.091h0a2.3,2.3,0,0,0,0,4.59h0a2.29,2.29,0,0,0,.606-4.5Z" fill="#303030"/><path d="M575.846,1054.292a2.245,2.245,0,0,0-.606-.092h0a2.3,2.3,0,0,0,0,4.59h0a2.24,2.24,0,0,0,.606-.091,2.282,2.282,0,0,0,0-4.407Z" fill="#303030"/><path d="M575.846,1047.407a2.283,2.283,0,0,0-.606-.091h0a2.295,2.295,0,1,0,0,4.59h0a2.29,2.29,0,0,0,.606-4.5Z" fill="#303030"/><path d="M575.846,1040.523a2.283,2.283,0,0,0-.606-.091h0a2.295,2.295,0,1,0,0,4.59h0a2.245,2.245,0,0,0,.606-.092,2.282,2.282,0,0,0,0-4.407Z" fill="#303030"/><path d="M568.356,1074.854a2.295,2.295,0,1,0,2.294,2.3A2.3,2.3,0,0,0,568.356,1074.854Z" fill="#303030"/><circle cx="2.295" cy="2.295" r="2.295" transform="translate(566.061 1067.969)" fill="#303030"/><circle cx="2.295" cy="2.295" r="2.295" transform="translate(566.061 1061.085)" fill="#303030"/><path d="M568.356,1054.2a2.3,2.3,0,1,0,2.294,2.3A2.3,2.3,0,0,0,568.356,1054.2Z" fill="#303030"/><circle cx="2.295" cy="2.295" r="2.295" transform="translate(566.061 1047.316)" fill="#303030"/><circle cx="2.295" cy="2.295" r="2.295" transform="translate(566.061 1040.432)" fill="#303030"/><path d="M568.356,1033.547a2.295,2.295,0,1,0,2.294,2.3A2.3,2.3,0,0,0,568.356,1033.547Z" fill="#303030"/><circle cx="2.295" cy="2.295" r="2.295" transform="translate(566.061 1026.663)" fill="#303030"/><path d="M561.472,1074.854a2.295,2.295,0,1,0,2.294,2.3A2.295,2.295,0,0,0,561.472,1074.854Z" fill="#303030"/><path d="M561.472,1067.969a2.295,2.295,0,1,0,2.294,2.3A2.295,2.295,0,0,0,561.472,1067.969Z" fill="#303030"/><path d="M561.472,1061.085a2.3,2.3,0,1,0,2.294,2.3A2.3,2.3,0,0,0,561.472,1061.085Z" fill="#303030"/><path d="M561.472,1054.2a2.3,2.3,0,1,0,2.294,2.3A2.3,2.3,0,0,0,561.472,1054.2Z" fill="#303030"/><path d="M561.472,1047.316a2.295,2.295,0,1,0,2.294,2.295A2.295,2.295,0,0,0,561.472,1047.316Z" fill="#303030"/><path d="M561.472,1040.432a2.295,2.295,0,1,0,2.294,2.3A2.295,2.295,0,0,0,561.472,1040.432Z" fill="#303030"/><path d="M561.472,1033.547a2.295,2.295,0,1,0,2.294,2.3A2.295,2.295,0,0,0,561.472,1033.547Z" fill="#303030"/><path d="M554.587,1074.854a2.295,2.295,0,1,0,2.3,2.3A2.295,2.295,0,0,0,554.587,1074.854Z" fill="#303030"/><path d="M554.587,1067.969a2.295,2.295,0,1,0,2.3,2.3A2.295,2.295,0,0,0,554.587,1067.969Z" fill="#303030"/><path d="M554.587,1061.085a2.3,2.3,0,1,0,2.3,2.3A2.3,2.3,0,0,0,554.587,1061.085Z" fill="#303030"/><path d="M554.587,1054.2a2.3,2.3,0,1,0,2.3,2.3A2.3,2.3,0,0,0,554.587,1054.2Z" fill="#303030"/><path d="M554.587,1047.316a2.295,2.295,0,1,0,2.3,2.295A2.295,2.295,0,0,0,554.587,1047.316Z" fill="#303030"/><path d="M554.587,1040.432a2.295,2.295,0,1,0,2.3,2.3A2.295,2.295,0,0,0,554.587,1040.432Z" fill="#303030"/><path d="M547.7,1074.854a2.295,2.295,0,1,0,2.294,2.3A2.295,2.295,0,0,0,547.7,1074.854Z" fill="#303030"/><path d="M547.7,1067.969a2.295,2.295,0,1,0,2.294,2.3A2.295,2.295,0,0,0,547.7,1067.969Z" fill="#303030"/><path d="M547.7,1061.085a2.3,2.3,0,1,0,2.294,2.3A2.3,2.3,0,0,0,547.7,1061.085Z" fill="#303030"/><path d="M547.7,1054.2a2.3,2.3,0,1,0,2.294,2.3A2.3,2.3,0,0,0,547.7,1054.2Z" fill="#303030"/><path d="M547.7,1047.316a2.295,2.295,0,1,0,2.294,2.295A2.295,2.295,0,0,0,547.7,1047.316Z" fill="#303030"/><path d="M547.7,1040.432a2.295,2.295,0,1,0,2.294,2.3A2.295,2.295,0,0,0,547.7,1040.432Z" fill="#303030"/><path d="M547.7,1033.547a2.295,2.295,0,1,0,2.294,2.3A2.295,2.295,0,0,0,547.7,1033.547Z" fill="#303030"/><path d="M547.7,1026.663a2.3,2.3,0,1,0,2.294,2.3A2.3,2.3,0,0,0,547.7,1026.663Z" fill="#303030"/><path d="M547.7,1019.778a2.3,2.3,0,1,0,2.294,2.295A2.3,2.3,0,0,0,547.7,1019.778Z" fill="#303030"/><path d="M547.7,1012.894a2.3,2.3,0,1,0,2.294,2.3A2.295,2.295,0,0,0,547.7,1012.894Z" fill="#303030"/><path d="M540.818,1074.854a2.295,2.295,0,1,0,2.295,2.3A2.295,2.295,0,0,0,540.818,1074.854Z" fill="#303030"/><path d="M540.818,1067.969a2.295,2.295,0,1,0,2.295,2.3A2.295,2.295,0,0,0,540.818,1067.969Z" fill="#303030"/><path d="M540.818,1061.085a2.3,2.3,0,1,0,2.295,2.3A2.3,2.3,0,0,0,540.818,1061.085Z" fill="#303030"/><path d="M540.818,1054.2a2.3,2.3,0,1,0,2.295,2.3A2.3,2.3,0,0,0,540.818,1054.2Z" fill="#303030"/><path d="M540.818,1047.316a2.295,2.295,0,1,0,2.295,2.295A2.295,2.295,0,0,0,540.818,1047.316Z" fill="#303030"/><path d="M540.818,1040.432a2.295,2.295,0,1,0,2.295,2.3A2.295,2.295,0,0,0,540.818,1040.432Z" fill="#303030"/><path d="M540.818,1033.547a2.295,2.295,0,1,0,2.295,2.3A2.295,2.295,0,0,0,540.818,1033.547Z" fill="#303030"/><path d="M540.818,1026.663a2.3,2.3,0,1,0,2.295,2.3A2.3,2.3,0,0,0,540.818,1026.663Z" fill="#303030"/><path d="M540.818,1019.778a2.3,2.3,0,1,0,2.295,2.295A2.3,2.3,0,0,0,540.818,1019.778Z" fill="#303030"/><path d="M540.818,1012.894a2.3,2.3,0,1,0,2.295,2.3A2.295,2.295,0,0,0,540.818,1012.894Z" fill="#303030"/><path d="M540.818,1006.01a2.295,2.295,0,1,0,2.295,2.295A2.295,2.295,0,0,0,540.818,1006.01Z" fill="#303030"/><path d="M540.818,999.126a2.295,2.295,0,1,0,2.295,2.294A2.294,2.294,0,0,0,540.818,999.126Z" fill="#303030"/><path d="M533.934,1074.854a2.295,2.295,0,1,0,2.294,2.3A2.3,2.3,0,0,0,533.934,1074.854Z" fill="#303030"/><path d="M533.934,1067.969a2.295,2.295,0,1,0,2.294,2.3A2.3,2.3,0,0,0,533.934,1067.969Z" fill="#303030"/><path d="M533.934,1061.085a2.3,2.3,0,1,0,2.294,2.3A2.3,2.3,0,0,0,533.934,1061.085Z" fill="#303030"/><path d="M533.934,1054.2a2.3,2.3,0,1,0,2.294,2.3A2.3,2.3,0,0,0,533.934,1054.2Z" fill="#303030"/><path d="M533.934,1047.316a2.295,2.295,0,1,0,2.294,2.295A2.295,2.295,0,0,0,533.934,1047.316Z" fill="#303030"/><path d="M527.05,1074.854a2.295,2.295,0,1,0,2.294,2.3A2.295,2.295,0,0,0,527.05,1074.854Z" fill="#303030"/><path d="M527.05,1067.969a2.295,2.295,0,1,0,2.294,2.3A2.295,2.295,0,0,0,527.05,1067.969Z" fill="#303030"/><path d="M527.05,1061.085a2.3,2.3,0,1,0,2.294,2.3A2.3,2.3,0,0,0,527.05,1061.085Z" fill="#303030"/><path d="M527.05,1054.2a2.3,2.3,0,1,0,2.294,2.3A2.3,2.3,0,0,0,527.05,1054.2Z" fill="#303030"/><path d="M527.05,1047.316a2.295,2.295,0,1,0,2.294,2.295A2.295,2.295,0,0,0,527.05,1047.316Z" fill="#303030"/><path d="M527.05,1040.432a2.295,2.295,0,1,0,2.294,2.3A2.295,2.295,0,0,0,527.05,1040.432Z" fill="#303030"/><path d="M520.165,1074.854a2.295,2.295,0,1,0,2.3,2.3A2.295,2.295,0,0,0,520.165,1074.854Z" fill="#303030"/><path d="M520.165,1067.969a2.295,2.295,0,1,0,2.3,2.3A2.295,2.295,0,0,0,520.165,1067.969Z" fill="#303030"/><path d="M520.165,1061.085a2.3,2.3,0,1,0,2.3,2.3A2.3,2.3,0,0,0,520.165,1061.085Z" fill="#303030"/><path d="M520.165,1054.2a2.3,2.3,0,1,0,2.3,2.3A2.3,2.3,0,0,0,520.165,1054.2Z" fill="#303030"/><path d="M520.165,1047.316a2.295,2.295,0,1,0,2.3,2.295A2.295,2.295,0,0,0,520.165,1047.316Z" fill="#303030"/><path d="M520.165,1040.432a2.295,2.295,0,1,0,2.3,2.3A2.295,2.295,0,0,0,520.165,1040.432Z" fill="#303030"/><path d="M520.165,1033.547a2.295,2.295,0,1,0,2.3,2.3A2.295,2.295,0,0,0,520.165,1033.547Z" fill="#303030"/><path d="M520.165,1026.663a2.3,2.3,0,1,0,2.3,2.3A2.3,2.3,0,0,0,520.165,1026.663Z" fill="#303030"/><path d="M513.281,1074.854a2.295,2.295,0,1,0,2.294,2.3A2.295,2.295,0,0,0,513.281,1074.854Z" fill="#303030"/><circle cx="2.295" cy="2.295" r="2.295" transform="translate(510.986 1067.969)" fill="#303030"/><circle cx="2.295" cy="2.295" r="2.295" transform="translate(510.986 1061.085)" fill="#303030"/><path d="M513.281,1054.2a2.3,2.3,0,1,0,2.294,2.3A2.3,2.3,0,0,0,513.281,1054.2Z" fill="#303030"/><circle cx="2.295" cy="2.295" r="2.295" transform="translate(510.986 1047.316)" fill="#303030"/><path d="M506.4,1074.854a2.295,2.295,0,1,0,2.3,2.3A2.295,2.295,0,0,0,506.4,1074.854Z" fill="#303030"/><path d="M506.4,1067.969a2.295,2.295,0,1,0,2.3,2.3A2.295,2.295,0,0,0,506.4,1067.969Z" fill="#303030"/><path d="M506.4,1061.085a2.3,2.3,0,1,0,2.3,2.3A2.3,2.3,0,0,0,506.4,1061.085Z" fill="#303030"/><path d="M499.512,1074.854a2.295,2.295,0,1,0,2.294,2.3A2.295,2.295,0,0,0,499.512,1074.854Z" fill="#303030"/><path d="M499.512,1067.969a2.295,2.295,0,1,0,2.294,2.3A2.295,2.295,0,0,0,499.512,1067.969Z" fill="#303030"/><path d="M499.512,1061.085a2.3,2.3,0,1,0,2.294,2.3A2.3,2.3,0,0,0,499.512,1061.085Z" fill="#303030"/><path d="M499.512,1054.2a2.3,2.3,0,1,0,2.294,2.3A2.3,2.3,0,0,0,499.512,1054.2Z" fill="#303030"/><path d="M499.512,1047.316a2.295,2.295,0,1,0,2.294,2.295A2.295,2.295,0,0,0,499.512,1047.316Z" fill="#303030"/><path d="M499.512,1040.432a2.295,2.295,0,1,0,2.294,2.3A2.295,2.295,0,0,0,499.512,1040.432Z" fill="#303030"/><path d="M499.512,1033.547a2.295,2.295,0,1,0,2.294,2.3A2.295,2.295,0,0,0,499.512,1033.547Z" fill="#303030"/><path d="M499.512,1026.663a2.3,2.3,0,1,0,2.294,2.3A2.3,2.3,0,0,0,499.512,1026.663Z" fill="#303030"/><path d="M499.512,1019.778a2.3,2.3,0,1,0,2.294,2.295A2.3,2.3,0,0,0,499.512,1019.778Z" fill="#303030"/><path d="M499.512,1012.894a2.3,2.3,0,1,0,2.294,2.3A2.295,2.295,0,0,0,499.512,1012.894Z" fill="#303030"/><path d="M492.627,1074.854a2.295,2.295,0,1,0,2.295,2.3A2.295,2.295,0,0,0,492.627,1074.854Z" fill="#303030"/><circle cx="2.295" cy="2.295" r="2.295" transform="translate(490.333 1067.969)" fill="#303030"/><circle cx="2.295" cy="2.295" r="2.295" transform="translate(490.333 1061.085)" fill="#303030"/><path d="M492.627,1054.2a2.3,2.3,0,1,0,2.295,2.3A2.3,2.3,0,0,0,492.627,1054.2Z" fill="#303030"/><circle cx="2.295" cy="2.295" r="2.295" transform="translate(490.333 1047.316)" fill="#303030"/><circle cx="2.295" cy="2.295" r="2.295" transform="translate(490.333 1040.432)" fill="#303030"/><path d="M492.627,1033.547a2.295,2.295,0,1,0,2.295,2.3A2.295,2.295,0,0,0,492.627,1033.547Z" fill="#303030"/><circle cx="2.295" cy="2.295" r="2.295" transform="translate(490.333 1026.663)" fill="#303030"/><path d="M485.743,1074.854a2.295,2.295,0,1,0,2.295,2.3A2.295,2.295,0,0,0,485.743,1074.854Z" fill="#303030"/><path d="M485.743,1067.969a2.295,2.295,0,1,0,2.295,2.3A2.295,2.295,0,0,0,485.743,1067.969Z" fill="#303030"/><path d="M485.743,1061.085a2.3,2.3,0,1,0,2.295,2.3A2.3,2.3,0,0,0,485.743,1061.085Z" fill="#303030"/><path d="M485.743,1054.2a2.3,2.3,0,1,0,2.295,2.3A2.3,2.3,0,0,0,485.743,1054.2Z" fill="#303030"/><path d="M485.743,1047.316a2.295,2.295,0,1,0,2.295,2.295A2.295,2.295,0,0,0,485.743,1047.316Z" fill="#303030"/><path d="M485.743,1040.432a2.295,2.295,0,1,0,2.295,2.3A2.295,2.295,0,0,0,485.743,1040.432Z" fill="#303030"/><path d="M485.743,1033.547a2.295,2.295,0,1,0,2.295,2.3A2.295,2.295,0,0,0,485.743,1033.547Z" fill="#303030"/><path d="M485.743,1026.663a2.3,2.3,0,1,0,2.295,2.3A2.3,2.3,0,0,0,485.743,1026.663Z" fill="#303030"/><path d="M485.743,1019.778a2.3,2.3,0,1,0,2.295,2.295A2.3,2.3,0,0,0,485.743,1019.778Z" fill="#303030"/><path d="M478.859,1074.854a2.295,2.295,0,1,0,2.294,2.3A2.295,2.295,0,0,0,478.859,1074.854Z" fill="#303030"/><path d="M478.859,1067.969a2.295,2.295,0,1,0,2.294,2.3A2.295,2.295,0,0,0,478.859,1067.969Z" fill="#303030"/><path d="M478.859,1061.085a2.3,2.3,0,1,0,2.294,2.3A2.3,2.3,0,0,0,478.859,1061.085Z" fill="#303030"/><path d="M478.859,1054.2a2.3,2.3,0,1,0,2.294,2.3A2.3,2.3,0,0,0,478.859,1054.2Z" fill="#303030"/><path d="M478.859,1047.316a2.295,2.295,0,1,0,2.294,2.295A2.295,2.295,0,0,0,478.859,1047.316Z" fill="#303030"/><path d="M478.859,1040.432a2.295,2.295,0,1,0,2.294,2.3A2.295,2.295,0,0,0,478.859,1040.432Z" fill="#303030"/><path d="M471.974,1074.854a2.295,2.295,0,1,0,2.3,2.3A2.295,2.295,0,0,0,471.974,1074.854Z" fill="#303030"/><path d="M471.974,1067.969a2.295,2.295,0,1,0,2.3,2.3A2.295,2.295,0,0,0,471.974,1067.969Z" fill="#303030"/><path d="M471.974,1061.085a2.3,2.3,0,1,0,2.3,2.3A2.295,2.295,0,0,0,471.974,1061.085Z" fill="#303030"/><path d="M471.974,1054.2a2.3,2.3,0,1,0,2.3,2.3A2.3,2.3,0,0,0,471.974,1054.2Z" fill="#303030"/><path d="M471.974,1047.316a2.295,2.295,0,1,0,2.3,2.295A2.295,2.295,0,0,0,471.974,1047.316Z" fill="#303030"/><path d="M471.974,1040.432a2.295,2.295,0,1,0,2.3,2.3A2.295,2.295,0,0,0,471.974,1040.432Z" fill="#303030"/><path d="M471.974,1033.547a2.295,2.295,0,1,0,2.3,2.3A2.295,2.295,0,0,0,471.974,1033.547Z" fill="#303030"/><path d="M471.974,1026.663a2.3,2.3,0,1,0,2.3,2.3A2.295,2.295,0,0,0,471.974,1026.663Z" fill="#303030"/><path d="M465.09,1074.854a2.295,2.295,0,1,0,2.3,2.3A2.3,2.3,0,0,0,465.09,1074.854Z" fill="#303030"/><path d="M465.09,1067.969a2.295,2.295,0,1,0,2.3,2.3A2.3,2.3,0,0,0,465.09,1067.969Z" fill="#303030"/><path d="M465.09,1061.085a2.3,2.3,0,1,0,2.3,2.3A2.3,2.3,0,0,0,465.09,1061.085Z" fill="#303030"/><path d="M465.09,1054.2a2.3,2.3,0,1,0,2.3,2.3A2.3,2.3,0,0,0,465.09,1054.2Z" fill="#303030"/><path d="M465.09,1047.316a2.295,2.295,0,1,0,2.3,2.295A2.3,2.3,0,0,0,465.09,1047.316Z" fill="#303030"/><path d="M465.09,1040.432a2.295,2.295,0,1,0,2.3,2.3A2.3,2.3,0,0,0,465.09,1040.432Z" fill="#303030"/><path d="M465.09,1033.547a2.295,2.295,0,1,0,2.3,2.3A2.3,2.3,0,0,0,465.09,1033.547Z" fill="#303030"/><path d="M458.206,1074.854a2.295,2.295,0,1,0,2.294,2.3A2.295,2.295,0,0,0,458.206,1074.854Z" fill="#303030"/><path d="M458.206,1067.969a2.295,2.295,0,1,0,2.294,2.3A2.295,2.295,0,0,0,458.206,1067.969Z" fill="#303030"/><path d="M458.206,1061.085a2.3,2.3,0,1,0,2.294,2.3A2.3,2.3,0,0,0,458.206,1061.085Z" fill="#303030"/><path d="M458.206,1054.2a2.3,2.3,0,1,0,2.294,2.3A2.3,2.3,0,0,0,458.206,1054.2Z" fill="#303030"/><path d="M458.206,1047.316a2.295,2.295,0,1,0,2.294,2.295A2.295,2.295,0,0,0,458.206,1047.316Z" fill="#303030"/><path d="M458.206,1040.432a2.295,2.295,0,1,0,2.294,2.3A2.295,2.295,0,0,0,458.206,1040.432Z" fill="#303030"/><path d="M458.206,1033.547a2.295,2.295,0,1,0,2.294,2.3A2.295,2.295,0,0,0,458.206,1033.547Z" fill="#303030"/><path d="M458.206,1026.663a2.3,2.3,0,1,0,2.294,2.3A2.3,2.3,0,0,0,458.206,1026.663Z" fill="#303030"/><path d="M451.321,1074.854a2.295,2.295,0,1,0,2.295,2.3A2.3,2.3,0,0,0,451.321,1074.854Z" fill="#303030"/><path d="M451.321,1067.969a2.295,2.295,0,1,0,2.295,2.3A2.3,2.3,0,0,0,451.321,1067.969Z" fill="#303030"/><path d="M451.321,1061.085a2.3,2.3,0,1,0,2.295,2.3A2.3,2.3,0,0,0,451.321,1061.085Z" fill="#303030"/><path d="M451.321,1054.2a2.3,2.3,0,1,0,2.295,2.3A2.3,2.3,0,0,0,451.321,1054.2Z" fill="#303030"/><path d="M451.321,1047.316a2.295,2.295,0,1,0,2.295,2.295A2.3,2.3,0,0,0,451.321,1047.316Z" fill="#303030"/><path d="M451.321,1040.432a2.295,2.295,0,1,0,2.295,2.3A2.3,2.3,0,0,0,451.321,1040.432Z" fill="#303030"/><path d="M451.321,1033.547a2.295,2.295,0,1,0,2.295,2.3A2.3,2.3,0,0,0,451.321,1033.547Z" fill="#303030"/><path d="M451.321,1026.663a2.3,2.3,0,1,0,2.295,2.3A2.3,2.3,0,0,0,451.321,1026.663Z" fill="#303030"/><path d="M451.321,1019.778a2.3,2.3,0,1,0,2.295,2.295A2.3,2.3,0,0,0,451.321,1019.778Z" fill="#303030"/><path d="M451.321,1012.894a2.3,2.3,0,1,0,2.295,2.3A2.3,2.3,0,0,0,451.321,1012.894Z" fill="#303030"/><path d="M444.437,1074.854a2.295,2.295,0,1,0,2.295,2.3A2.295,2.295,0,0,0,444.437,1074.854Z" fill="#303030"/><path d="M444.437,1067.969a2.295,2.295,0,1,0,2.295,2.3A2.295,2.295,0,0,0,444.437,1067.969Z" fill="#303030"/><path d="M444.437,1061.085a2.3,2.3,0,1,0,2.295,2.3A2.3,2.3,0,0,0,444.437,1061.085Z" fill="#303030"/><path d="M444.437,1054.2a2.3,2.3,0,1,0,2.295,2.3A2.3,2.3,0,0,0,444.437,1054.2Z" fill="#303030"/><path d="M444.437,1047.316a2.295,2.295,0,1,0,2.295,2.295A2.295,2.295,0,0,0,444.437,1047.316Z" fill="#303030"/><path d="M437.552,1074.854a2.295,2.295,0,1,0,2.295,2.3A2.3,2.3,0,0,0,437.552,1074.854Z" fill="#303030"/><circle cx="2.295" cy="2.295" r="2.295" transform="translate(435.257 1067.969)" fill="#303030"/><circle cx="2.295" cy="2.295" r="2.295" transform="translate(435.257 1061.085)" fill="#303030"/><path d="M437.552,1054.2a2.3,2.3,0,1,0,2.295,2.3A2.3,2.3,0,0,0,437.552,1054.2Z" fill="#303030"/><circle cx="2.295" cy="2.295" r="2.295" transform="translate(435.257 1047.316)" fill="#303030"/><circle cx="2.295" cy="2.295" r="2.295" transform="translate(435.257 1040.432)" fill="#303030"/><path d="M437.552,1033.547a2.295,2.295,0,1,0,2.295,2.3A2.3,2.3,0,0,0,437.552,1033.547Z" fill="#303030"/><path d="M430.668,1074.854a2.295,2.295,0,1,0,2.3,2.3A2.3,2.3,0,0,0,430.668,1074.854Z" fill="#303030"/><path d="M430.668,1067.969a2.295,2.295,0,1,0,2.3,2.3A2.3,2.3,0,0,0,430.668,1067.969Z" fill="#303030"/><path d="M430.668,1061.085a2.3,2.3,0,1,0,2.3,2.3A2.3,2.3,0,0,0,430.668,1061.085Z" fill="#303030"/><path d="M430.668,1054.2a2.3,2.3,0,1,0,2.3,2.3A2.3,2.3,0,0,0,430.668,1054.2Z" fill="#303030"/><path d="M430.668,1047.316a2.295,2.295,0,1,0,2.3,2.295A2.3,2.3,0,0,0,430.668,1047.316Z" fill="#303030"/><path d="M430.668,1040.432a2.295,2.295,0,1,0,2.3,2.3A2.3,2.3,0,0,0,430.668,1040.432Z" fill="#303030"/><path d="M430.668,1033.547a2.295,2.295,0,1,0,2.3,2.3A2.3,2.3,0,0,0,430.668,1033.547Z" fill="#303030"/><path d="M430.668,1026.663a2.3,2.3,0,1,0,2.3,2.3A2.3,2.3,0,0,0,430.668,1026.663Z" fill="#303030"/><path d="M430.668,1019.778a2.3,2.3,0,1,0,2.3,2.295A2.3,2.3,0,0,0,430.668,1019.778Z" fill="#303030"/><path d="M423.784,1074.854a2.295,2.295,0,1,0,2.294,2.3A2.295,2.295,0,0,0,423.784,1074.854Z" fill="#303030"/><path d="M423.784,1067.969a2.295,2.295,0,1,0,2.294,2.3A2.295,2.295,0,0,0,423.784,1067.969Z" fill="#303030"/><path d="M423.784,1061.085a2.3,2.3,0,1,0,2.294,2.3A2.3,2.3,0,0,0,423.784,1061.085Z" fill="#303030"/><path d="M423.784,1054.2a2.3,2.3,0,1,0,2.294,2.3A2.3,2.3,0,0,0,423.784,1054.2Z" fill="#303030"/><path d="M423.784,1047.316a2.295,2.295,0,1,0,2.294,2.295A2.295,2.295,0,0,0,423.784,1047.316Z" fill="#303030"/><path d="M416.9,1074.854a2.295,2.295,0,1,0,2.3,2.3A2.3,2.3,0,0,0,416.9,1074.854Z" fill="#303030"/><circle cx="2.295" cy="2.295" r="2.295" transform="translate(414.604 1067.969)" fill="#303030"/><circle cx="2.295" cy="2.295" r="2.295" transform="translate(414.604 1061.085)" fill="#303030"/><path d="M410.015,1074.854a2.295,2.295,0,1,0,2.294,2.3A2.3,2.3,0,0,0,410.015,1074.854Z" fill="#303030"/><path d="M410.015,1067.969a2.295,2.295,0,1,0,2.294,2.3A2.3,2.3,0,0,0,410.015,1067.969Z" fill="#303030"/><path d="M410.015,1061.085a2.3,2.3,0,1,0,2.294,2.3A2.3,2.3,0,0,0,410.015,1061.085Z" fill="#303030"/><path d="M410.015,1054.2a2.3,2.3,0,1,0,2.294,2.3A2.3,2.3,0,0,0,410.015,1054.2Z" fill="#303030"/><path d="M410.015,1047.316a2.295,2.295,0,1,0,2.294,2.295A2.3,2.3,0,0,0,410.015,1047.316Z" fill="#303030"/><path d="M410.015,1040.432a2.295,2.295,0,1,0,2.294,2.3A2.3,2.3,0,0,0,410.015,1040.432Z" fill="#303030"/><path d="M410.015,1033.547a2.295,2.295,0,1,0,2.294,2.3A2.3,2.3,0,0,0,410.015,1033.547Z" fill="#303030"/><path d="M410.015,1026.663a2.3,2.3,0,1,0,2.294,2.3A2.3,2.3,0,0,0,410.015,1026.663Z" fill="#303030"/><path d="M403.13,1074.854a2.295,2.295,0,1,0,2.295,2.3A2.3,2.3,0,0,0,403.13,1074.854Z" fill="#303030"/><path d="M403.13,1067.969a2.295,2.295,0,1,0,2.295,2.3A2.3,2.3,0,0,0,403.13,1067.969Z" fill="#303030"/><path d="M403.13,1061.085a2.3,2.3,0,1,0,2.295,2.3A2.3,2.3,0,0,0,403.13,1061.085Z" fill="#303030"/><path d="M403.13,1054.2a2.3,2.3,0,1,0,2.295,2.3A2.3,2.3,0,0,0,403.13,1054.2Z" fill="#303030"/><path d="M403.13,1047.316a2.295,2.295,0,1,0,2.295,2.295A2.3,2.3,0,0,0,403.13,1047.316Z" fill="#303030"/><path d="M403.13,1040.432a2.295,2.295,0,1,0,2.295,2.3A2.3,2.3,0,0,0,403.13,1040.432Z" fill="#303030"/><path d="M403.13,1033.547a2.295,2.295,0,1,0,2.295,2.3A2.3,2.3,0,0,0,403.13,1033.547Z" fill="#303030"/><path d="M403.13,1026.663a2.3,2.3,0,1,0,2.295,2.3A2.3,2.3,0,0,0,403.13,1026.663Z" fill="#303030"/><path d="M403.13,1019.778a2.3,2.3,0,1,0,2.295,2.295A2.3,2.3,0,0,0,403.13,1019.778Z" fill="#303030"/><path d="M403.13,1012.894a2.3,2.3,0,1,0,2.295,2.3A2.3,2.3,0,0,0,403.13,1012.894Z" fill="#303030"/><path d="M396.246,1074.854a2.295,2.295,0,1,0,2.294,2.3A2.3,2.3,0,0,0,396.246,1074.854Z" fill="#303030"/><path d="M396.246,1067.969a2.295,2.295,0,1,0,2.294,2.3A2.3,2.3,0,0,0,396.246,1067.969Z" fill="#303030"/><path d="M396.246,1061.085a2.3,2.3,0,1,0,2.294,2.3A2.3,2.3,0,0,0,396.246,1061.085Z" fill="#303030"/><path d="M396.246,1054.2a2.3,2.3,0,1,0,2.294,2.3A2.3,2.3,0,0,0,396.246,1054.2Z" fill="#303030"/><path d="M396.246,1047.316a2.295,2.295,0,1,0,2.294,2.295A2.3,2.3,0,0,0,396.246,1047.316Z" fill="#303030"/><path d="M389.362,1074.854a2.295,2.295,0,1,0,2.294,2.3A2.3,2.3,0,0,0,389.362,1074.854Z" fill="#303030"/><path d="M389.362,1067.969a2.295,2.295,0,1,0,2.294,2.3A2.3,2.3,0,0,0,389.362,1067.969Z" fill="#303030"/><path d="M389.362,1061.085a2.3,2.3,0,1,0,2.294,2.3A2.3,2.3,0,0,0,389.362,1061.085Z" fill="#303030"/><path d="M382.477,1074.854a2.295,2.295,0,1,0,2.3,2.3A2.3,2.3,0,0,0,382.477,1074.854Z" fill="#303030"/><path d="M382.477,1067.969a2.295,2.295,0,1,0,2.3,2.3A2.3,2.3,0,0,0,382.477,1067.969Z" fill="#303030"/><path d="M375.593,1074.854a2.295,2.295,0,1,0,2.294,2.3A2.3,2.3,0,0,0,375.593,1074.854Z" fill="#303030"/><path d="M375.593,1067.969a2.295,2.295,0,1,0,2.294,2.3A2.3,2.3,0,0,0,375.593,1067.969Z" fill="#303030"/><path d="M375.593,1061.085a2.3,2.3,0,1,0,2.294,2.3A2.3,2.3,0,0,0,375.593,1061.085Z" fill="#303030"/><path d="M375.593,1054.2a2.3,2.3,0,1,0,2.294,2.3A2.3,2.3,0,0,0,375.593,1054.2Z" fill="#303030"/><path d="M375.593,1047.316a2.295,2.295,0,1,0,2.294,2.295A2.3,2.3,0,0,0,375.593,1047.316Z" fill="#303030"/><path d="M368.708,1074.854a2.295,2.295,0,1,0,2.295,2.3A2.3,2.3,0,0,0,368.708,1074.854Z" fill="#303030"/><path d="M368.708,1067.969a2.295,2.295,0,1,0,2.295,2.3A2.3,2.3,0,0,0,368.708,1067.969Z" fill="#303030"/><path d="M368.708,1061.085a2.3,2.3,0,1,0,2.295,2.3A2.3,2.3,0,0,0,368.708,1061.085Z" fill="#303030"/><path d="M368.708,1054.2a2.3,2.3,0,1,0,2.295,2.3A2.3,2.3,0,0,0,368.708,1054.2Z" fill="#303030"/><path d="M368.708,1047.316a2.295,2.295,0,1,0,2.295,2.295A2.3,2.3,0,0,0,368.708,1047.316Z" fill="#303030"/><path d="M368.708,1040.432a2.295,2.295,0,1,0,2.295,2.3A2.3,2.3,0,0,0,368.708,1040.432Z" fill="#303030"/><path d="M368.708,1033.547a2.295,2.295,0,1,0,2.295,2.3A2.3,2.3,0,0,0,368.708,1033.547Z" fill="#303030"/><path d="M368.708,1026.663a2.3,2.3,0,1,0,2.295,2.3A2.3,2.3,0,0,0,368.708,1026.663Z" fill="#303030"/><path d="M361.824,1074.854a2.295,2.295,0,1,0,2.295,2.3A2.3,2.3,0,0,0,361.824,1074.854Z" fill="#303030"/><circle cx="2.295" cy="2.295" r="2.295" transform="translate(359.529 1067.969)" fill="#303030"/><circle cx="2.295" cy="2.295" r="2.295" transform="translate(359.529 1061.085)" fill="#303030"/><path d="M361.824,1054.2a2.3,2.3,0,1,0,2.295,2.3A2.3,2.3,0,0,0,361.824,1054.2Z" fill="#303030"/><circle cx="2.295" cy="2.295" r="2.295" transform="translate(359.529 1047.316)" fill="#303030"/><circle cx="2.295" cy="2.295" r="2.295" transform="translate(359.529 1040.432)" fill="#303030"/><path d="M361.824,1033.547a2.295,2.295,0,1,0,2.295,2.3A2.3,2.3,0,0,0,361.824,1033.547Z" fill="#303030"/><circle cx="2.295" cy="2.295" r="2.295" transform="translate(359.529 1026.663)" fill="#303030"/><circle cx="2.295" cy="2.295" r="2.295" transform="translate(359.529 1019.779)" fill="#303030"/><path d="M354.939,1074.854a2.295,2.295,0,1,0,2.3,2.3A2.3,2.3,0,0,0,354.939,1074.854Z" fill="#303030"/><path d="M354.939,1067.969a2.295,2.295,0,1,0,2.3,2.3A2.3,2.3,0,0,0,354.939,1067.969Z" fill="#303030"/><path d="M354.939,1061.085a2.3,2.3,0,1,0,2.3,2.3A2.3,2.3,0,0,0,354.939,1061.085Z" fill="#303030"/><path d="M354.939,1054.2a2.3,2.3,0,1,0,2.3,2.3A2.3,2.3,0,0,0,354.939,1054.2Z" fill="#303030"/><path d="M354.939,1047.316a2.295,2.295,0,1,0,2.3,2.295A2.3,2.3,0,0,0,354.939,1047.316Z" fill="#303030"/><path d="M354.939,1040.432a2.295,2.295,0,1,0,2.3,2.3A2.3,2.3,0,0,0,354.939,1040.432Z" fill="#303030"/><path d="M348.055,1074.854a2.295,2.295,0,1,0,2.3,2.3A2.3,2.3,0,0,0,348.055,1074.854Z" fill="#303030"/><path d="M348.055,1067.969a2.295,2.295,0,1,0,2.3,2.3A2.3,2.3,0,0,0,348.055,1067.969Z" fill="#303030"/><path d="M348.055,1061.085a2.3,2.3,0,1,0,2.3,2.3A2.3,2.3,0,0,0,348.055,1061.085Z" fill="#303030"/><path d="M341.17,1074.854a2.295,2.295,0,1,0,2.295,2.3A2.295,2.295,0,0,0,341.17,1074.854Z" fill="#303030"/><path d="M341.17,1067.969a2.295,2.295,0,1,0,2.295,2.3A2.295,2.295,0,0,0,341.17,1067.969Z" fill="#303030"/><path d="M341.17,1061.085a2.3,2.3,0,1,0,2.295,2.3A2.295,2.295,0,0,0,341.17,1061.085Z" fill="#303030"/><path d="M341.17,1054.2a2.3,2.3,0,1,0,2.295,2.3A2.3,2.3,0,0,0,341.17,1054.2Z" fill="#303030"/><path d="M341.17,1047.316a2.295,2.295,0,1,0,2.295,2.295A2.295,2.295,0,0,0,341.17,1047.316Z" fill="#303030"/><path d="M334.286,1074.854a2.295,2.295,0,1,0,2.295,2.3A2.3,2.3,0,0,0,334.286,1074.854Z" fill="#303030"/><path d="M334.286,1067.969a2.295,2.295,0,1,0,2.295,2.3A2.3,2.3,0,0,0,334.286,1067.969Z" fill="#303030"/><path d="M334.286,1061.085a2.3,2.3,0,1,0,2.295,2.3A2.3,2.3,0,0,0,334.286,1061.085Z" fill="#303030"/><path d="M334.286,1054.2a2.3,2.3,0,1,0,2.295,2.3A2.3,2.3,0,0,0,334.286,1054.2Z" fill="#303030"/><path d="M327.4,1074.854a2.295,2.295,0,1,0,2.294,2.3A2.3,2.3,0,0,0,327.4,1074.854Z" fill="#303030"/><path d="M327.4,1067.969a2.295,2.295,0,1,0,2.294,2.3A2.3,2.3,0,0,0,327.4,1067.969Z" fill="#303030"/><path d="M327.4,1061.085a2.3,2.3,0,1,0,2.294,2.3A2.3,2.3,0,0,0,327.4,1061.085Z" fill="#303030"/><path d="M327.4,1054.2a2.3,2.3,0,1,0,2.294,2.3A2.3,2.3,0,0,0,327.4,1054.2Z" fill="#303030"/><path d="M327.4,1047.316a2.295,2.295,0,1,0,2.294,2.295A2.3,2.3,0,0,0,327.4,1047.316Z" fill="#303030"/><path d="M327.4,1040.432a2.295,2.295,0,1,0,2.294,2.3A2.3,2.3,0,0,0,327.4,1040.432Z" fill="#303030"/><path d="M320.517,1074.854a2.295,2.295,0,1,0,2.3,2.3A2.295,2.295,0,0,0,320.517,1074.854Z" fill="#303030"/><path d="M320.517,1061.085a2.3,2.3,0,1,0,2.3,2.3A2.295,2.295,0,0,0,320.517,1061.085Z" fill="#303030"/><path d="M320.517,1054.2a2.3,2.3,0,1,0,2.3,2.3A2.3,2.3,0,0,0,320.517,1054.2Z" fill="#303030"/><path d="M320.517,1047.316a2.295,2.295,0,1,0,2.3,2.295A2.295,2.295,0,0,0,320.517,1047.316Z" fill="#303030"/><path d="M320.517,1040.432a2.295,2.295,0,1,0,2.3,2.3A2.295,2.295,0,0,0,320.517,1040.432Z" fill="#303030"/><path d="M320.517,1033.547a2.295,2.295,0,1,0,2.3,2.3A2.295,2.295,0,0,0,320.517,1033.547Z" fill="#303030"/><path d="M320.517,1026.663a2.3,2.3,0,1,0,2.3,2.3A2.295,2.295,0,0,0,320.517,1026.663Z" fill="#303030"/><path d="M320.517,1019.778a2.3,2.3,0,1,0,2.3,2.295A2.3,2.3,0,0,0,320.517,1019.778Z" fill="#303030"/><path d="M320.517,1012.894a2.3,2.3,0,1,0,2.3,2.3A2.295,2.295,0,0,0,320.517,1012.894Z" fill="#303030"/><path d="M313.633,1074.854a2.295,2.295,0,1,0,2.3,2.3A2.3,2.3,0,0,0,313.633,1074.854Z" fill="#303030"/><path d="M313.633,1061.085a2.3,2.3,0,1,0,2.3,2.3A2.3,2.3,0,0,0,313.633,1061.085Z" fill="#303030"/><path d="M313.633,1054.2a2.3,2.3,0,1,0,2.3,2.3A2.3,2.3,0,0,0,313.633,1054.2Z" fill="#303030"/><path d="M313.633,1047.316a2.295,2.295,0,1,0,2.3,2.295A2.3,2.3,0,0,0,313.633,1047.316Z" fill="#303030"/><path d="M313.633,1040.432a2.295,2.295,0,1,0,2.3,2.3A2.3,2.3,0,0,0,313.633,1040.432Z" fill="#303030"/><path d="M313.633,1033.547a2.295,2.295,0,1,0,2.3,2.3A2.3,2.3,0,0,0,313.633,1033.547Z" fill="#303030"/><path d="M306.749,1061.085a2.3,2.3,0,1,0,2.294,2.3A2.3,2.3,0,0,0,306.749,1061.085Z" fill="#303030"/><path d="M306.749,1054.2a2.3,2.3,0,1,0,2.294,2.3A2.3,2.3,0,0,0,306.749,1054.2Z" fill="#303030"/><path d="M306.749,1047.316a2.295,2.295,0,1,0,2.294,2.295A2.295,2.295,0,0,0,306.749,1047.316Z" fill="#303030"/><path d="M306.749,1040.432a2.295,2.295,0,1,0,2.294,2.3A2.295,2.295,0,0,0,306.749,1040.432Z" fill="#303030"/><path d="M306.749,1033.547a2.295,2.295,0,1,0,2.294,2.3A2.295,2.295,0,0,0,306.749,1033.547Z" fill="#303030"/><path d="M306.749,1026.663a2.3,2.3,0,1,0,2.294,2.3A2.3,2.3,0,0,0,306.749,1026.663Z" fill="#303030"/><path d="M306.749,1019.778a2.3,2.3,0,1,0,2.294,2.295A2.3,2.3,0,0,0,306.749,1019.778Z" fill="#303030"/><path d="M299.864,1054.2a2.3,2.3,0,1,0,2.295,2.3A2.3,2.3,0,0,0,299.864,1054.2Z" fill="#303030"/><path d="M299.864,1047.316a2.295,2.295,0,1,0,2.295,2.295A2.3,2.3,0,0,0,299.864,1047.316Z" fill="#303030"/><path d="M299.864,1040.432a2.295,2.295,0,1,0,2.295,2.3A2.3,2.3,0,0,0,299.864,1040.432Z" fill="#303030"/><path d="M299.864,1033.547a2.295,2.295,0,1,0,2.295,2.3A2.3,2.3,0,0,0,299.864,1033.547Z" fill="#303030"/><path d="M292.98,1033.547a2.295,2.295,0,1,0,2.294,2.3A2.3,2.3,0,0,0,292.98,1033.547Z" fill="#303030"/><path d="M292.98,1026.663a2.3,2.3,0,1,0,2.294,2.3A2.3,2.3,0,0,0,292.98,1026.663Z" fill="#303030"/><path d="M292.98,1019.778a2.3,2.3,0,1,0,2.294,2.295A2.3,2.3,0,0,0,292.98,1019.778Z" fill="#303030"/><path d="M292.98,1012.894a2.3,2.3,0,1,0,2.294,2.3A2.3,2.3,0,0,0,292.98,1012.894Z" fill="#303030"/><path d="M292.98,1006.01a2.295,2.295,0,1,0,2.294,2.295A2.3,2.3,0,0,0,292.98,1006.01Z" fill="#303030"/><path d="M692.275,1074.854a2.295,2.295,0,1,0,2.295,2.3A2.3,2.3,0,0,0,692.275,1074.854Z" fill="#303030"/><circle cx="2.295" cy="2.295" r="2.295" transform="translate(689.98 1067.969)" fill="#303030"/><circle cx="2.295" cy="2.295" r="2.295" transform="translate(689.98 1061.085)" fill="#303030"/><path d="M692.275,1054.2a2.3,2.3,0,1,0,2.295,2.3A2.3,2.3,0,0,0,692.275,1054.2Z" fill="#303030"/><circle cx="2.295" cy="2.295" r="2.295" transform="translate(689.98 1047.316)" fill="#303030"/><circle cx="2.295" cy="2.295" r="2.295" transform="translate(689.98 1040.432)" fill="#303030"/><path d="M685.391,1074.854a2.295,2.295,0,1,0,2.294,2.3A2.3,2.3,0,0,0,685.391,1074.854Z" fill="#303030"/><path d="M685.391,1067.969a2.295,2.295,0,1,0,2.294,2.3A2.3,2.3,0,0,0,685.391,1067.969Z" fill="#303030"/><path d="M685.391,1061.085a2.3,2.3,0,1,0,2.294,2.3A2.3,2.3,0,0,0,685.391,1061.085Z" fill="#303030"/><path d="M678.507,1074.854a2.295,2.295,0,1,0,2.294,2.3A2.3,2.3,0,0,0,678.507,1074.854Z" fill="#303030"/><path d="M671.622,1074.854a2.295,2.295,0,1,0,2.295,2.3A2.3,2.3,0,0,0,671.622,1074.854Z" fill="#303030"/><path d="M671.622,1067.969a2.295,2.295,0,1,0,2.295,2.3A2.3,2.3,0,0,0,671.622,1067.969Z" fill="#303030"/><path d="M664.738,1074.854a2.295,2.295,0,1,0,2.294,2.3A2.3,2.3,0,0,0,664.738,1074.854Z" fill="#303030"/><path d="M664.738,1067.969a2.295,2.295,0,1,0,2.294,2.3A2.3,2.3,0,0,0,664.738,1067.969Z" fill="#303030"/><path d="M664.738,1061.085a2.3,2.3,0,1,0,2.294,2.3A2.3,2.3,0,0,0,664.738,1061.085Z" fill="#303030"/><path d="M664.738,1054.2a2.3,2.3,0,1,0,2.294,2.3A2.3,2.3,0,0,0,664.738,1054.2Z" fill="#303030"/><path d="M657.853,1074.854a2.295,2.295,0,1,0,2.295,2.3A2.3,2.3,0,0,0,657.853,1074.854Z" fill="#303030"/><path d="M657.853,1067.969a2.295,2.295,0,1,0,2.295,2.3A2.3,2.3,0,0,0,657.853,1067.969Z" fill="#303030"/><path d="M657.853,1061.085a2.3,2.3,0,1,0,2.295,2.3A2.3,2.3,0,0,0,657.853,1061.085Z" fill="#303030"/><path d="M650.969,1074.854a2.295,2.295,0,1,0,2.295,2.3A2.3,2.3,0,0,0,650.969,1074.854Z" fill="#303030"/><path d="M650.969,1067.969a2.295,2.295,0,1,0,2.295,2.3A2.3,2.3,0,0,0,650.969,1067.969Z" fill="#303030"/><path d="M650.969,1061.085a2.3,2.3,0,1,0,2.295,2.3A2.3,2.3,0,0,0,650.969,1061.085Z" fill="#303030"/><path d="M650.969,1054.2a2.3,2.3,0,1,0,2.295,2.3A2.3,2.3,0,0,0,650.969,1054.2Z" fill="#303030"/><path d="M650.969,1047.316a2.295,2.295,0,1,0,2.295,2.295A2.3,2.3,0,0,0,650.969,1047.316Z" fill="#303030"/><path d="M650.969,1040.432a2.295,2.295,0,1,0,2.295,2.3A2.3,2.3,0,0,0,650.969,1040.432Z" fill="#303030"/><path d="M650.969,1033.547a2.295,2.295,0,1,0,2.295,2.3A2.3,2.3,0,0,0,650.969,1033.547Z" fill="#303030"/><path d="M644.084,1074.854a2.295,2.295,0,1,0,2.3,2.3A2.295,2.295,0,0,0,644.084,1074.854Z" fill="#303030"/><circle cx="2.295" cy="2.295" r="2.295" transform="translate(641.789 1067.969)" fill="#303030"/><circle cx="2.295" cy="2.295" r="2.295" transform="translate(641.789 1061.085)" fill="#303030"/><path d="M644.084,1054.2a2.3,2.3,0,1,0,2.3,2.3A2.3,2.3,0,0,0,644.084,1054.2Z" fill="#303030"/><path d="M637.2,1074.854a2.295,2.295,0,1,0,2.295,2.3A2.3,2.3,0,0,0,637.2,1074.854Z" fill="#303030"/><path d="M630.315,1074.854a2.295,2.295,0,1,0,2.295,2.3A2.295,2.295,0,0,0,630.315,1074.854Z" fill="#303030"/><path d="M630.315,1067.969a2.295,2.295,0,1,0,2.295,2.3A2.295,2.295,0,0,0,630.315,1067.969Z" fill="#303030"/><path d="M630.315,1061.085a2.3,2.3,0,1,0,2.295,2.3A2.295,2.295,0,0,0,630.315,1061.085Z" fill="#303030"/><path d="M630.315,1054.2a2.3,2.3,0,1,0,2.295,2.3A2.3,2.3,0,0,0,630.315,1054.2Z" fill="#303030"/><path d="M630.315,1047.316a2.295,2.295,0,1,0,2.295,2.295A2.295,2.295,0,0,0,630.315,1047.316Z" fill="#303030"/><path d="M623.431,1074.854a2.295,2.295,0,1,0,2.295,2.3A2.3,2.3,0,0,0,623.431,1074.854Z" fill="#303030"/><path d="M623.431,1067.969a2.295,2.295,0,1,0,2.295,2.3A2.3,2.3,0,0,0,623.431,1067.969Z" fill="#303030"/><path d="M623.431,1061.085a2.3,2.3,0,1,0,2.295,2.3A2.3,2.3,0,0,0,623.431,1061.085Z" fill="#303030"/><path d="M623.431,1054.2a2.3,2.3,0,1,0,2.295,2.3A2.3,2.3,0,0,0,623.431,1054.2Z" fill="#303030"/><path d="M616.547,1074.854a2.295,2.295,0,1,0,2.294,2.3A2.3,2.3,0,0,0,616.547,1074.854Z" fill="#303030"/><path d="M616.547,1067.969a2.295,2.295,0,1,0,2.294,2.3A2.3,2.3,0,0,0,616.547,1067.969Z" fill="#303030"/><path d="M616.547,1061.085a2.3,2.3,0,1,0,2.294,2.3A2.3,2.3,0,0,0,616.547,1061.085Z" fill="#303030"/><path d="M616.547,1054.2a2.3,2.3,0,1,0,2.294,2.3A2.3,2.3,0,0,0,616.547,1054.2Z" fill="#303030"/><path d="M616.547,1047.316a2.295,2.295,0,1,0,2.294,2.295A2.3,2.3,0,0,0,616.547,1047.316Z" fill="#303030"/><path d="M609.662,1074.854a2.295,2.295,0,1,0,2.295,2.3A2.3,2.3,0,0,0,609.662,1074.854Z" fill="#303030"/><path d="M609.662,1067.969a2.295,2.295,0,1,0,2.295,2.3A2.3,2.3,0,0,0,609.662,1067.969Z" fill="#303030"/><path d="M609.662,1061.085a2.3,2.3,0,1,0,2.295,2.3A2.3,2.3,0,0,0,609.662,1061.085Z" fill="#303030"/><path d="M609.662,1054.2a2.3,2.3,0,1,0,2.295,2.3A2.3,2.3,0,0,0,609.662,1054.2Z" fill="#303030"/><path d="M609.662,1047.316a2.295,2.295,0,1,0,2.295,2.295A2.3,2.3,0,0,0,609.662,1047.316Z" fill="#303030"/><path d="M609.662,1040.432a2.295,2.295,0,1,0,2.295,2.3A2.3,2.3,0,0,0,609.662,1040.432Z" fill="#303030"/><path d="M609.662,1033.547a2.295,2.295,0,1,0,2.295,2.3A2.3,2.3,0,0,0,609.662,1033.547Z" fill="#303030"/><path d="M609.662,1026.663a2.3,2.3,0,1,0,2.295,2.3A2.3,2.3,0,0,0,609.662,1026.663Z" fill="#303030"/><path d="M602.778,1074.854a2.295,2.295,0,1,0,2.295,2.3A2.3,2.3,0,0,0,602.778,1074.854Z" fill="#303030"/><path d="M602.778,1061.085a2.3,2.3,0,1,0,2.295,2.3A2.3,2.3,0,0,0,602.778,1061.085Z" fill="#303030"/><path d="M602.778,1054.2a2.3,2.3,0,1,0,2.295,2.3A2.3,2.3,0,0,0,602.778,1054.2Z" fill="#303030"/><path d="M602.778,1047.316a2.295,2.295,0,1,0,2.295,2.295A2.3,2.3,0,0,0,602.778,1047.316Z" fill="#303030"/><path d="M595.894,1074.854a2.295,2.295,0,1,0,2.294,2.3A2.295,2.295,0,0,0,595.894,1074.854Z" fill="#303030"/><path d="M595.894,1061.085a2.3,2.3,0,1,0,2.294,2.3A2.3,2.3,0,0,0,595.894,1061.085Z" fill="#303030"/><path d="M595.894,1054.2a2.3,2.3,0,1,0,2.294,2.3A2.3,2.3,0,0,0,595.894,1054.2Z" fill="#303030"/><path d="M595.894,1047.316a2.295,2.295,0,1,0,2.294,2.295A2.295,2.295,0,0,0,595.894,1047.316Z" fill="#303030"/><path d="M595.894,1040.432a2.295,2.295,0,1,0,2.294,2.3A2.295,2.295,0,0,0,595.894,1040.432Z" fill="#303030"/><path d="M595.894,1033.547a2.295,2.295,0,1,0,2.294,2.3A2.295,2.295,0,0,0,595.894,1033.547Z" fill="#303030"/><path d="M595.894,1026.663a2.3,2.3,0,1,0,2.294,2.3A2.3,2.3,0,0,0,595.894,1026.663Z" fill="#303030"/><path d="M589.009,1061.085a2.3,2.3,0,1,0,2.3,2.3A2.3,2.3,0,0,0,589.009,1061.085Z" fill="#303030"/><path d="M589.009,1054.2a2.3,2.3,0,1,0,2.3,2.3A2.3,2.3,0,0,0,589.009,1054.2Z" fill="#303030"/><path d="M589.009,1047.316a2.295,2.295,0,1,0,2.3,2.295A2.3,2.3,0,0,0,589.009,1047.316Z" fill="#303030"/><path d="M589.009,1040.432a2.295,2.295,0,1,0,2.3,2.3A2.3,2.3,0,0,0,589.009,1040.432Z" fill="#303030"/><path d="M589.009,1033.547a2.295,2.295,0,1,0,2.3,2.3A2.3,2.3,0,0,0,589.009,1033.547Z" fill="#303030"/><path d="M582.125,1054.2a2.3,2.3,0,1,0,2.294,2.3A2.3,2.3,0,0,0,582.125,1054.2Z" fill="#303030"/><path d="M582.125,1047.316a2.295,2.295,0,1,0,2.294,2.295A2.3,2.3,0,0,0,582.125,1047.316Z" fill="#303030"/><path d="M582.125,1040.432a2.295,2.295,0,1,0,2.294,2.3A2.3,2.3,0,0,0,582.125,1040.432Z" fill="#303030"/><path d="M582.125,1033.547a2.295,2.295,0,1,0,2.294,2.3A2.3,2.3,0,0,0,582.125,1033.547Z" fill="#303030"/><path d="M582.125,1026.663a2.3,2.3,0,1,0,2.294,2.3A2.3,2.3,0,0,0,582.125,1026.663Z" fill="#303030"/><path d="M582.125,1019.778a2.3,2.3,0,1,0,2.294,2.295A2.3,2.3,0,0,0,582.125,1019.778Z" fill="#303030"/></g></svg>