<?xml version="1.0" encoding="utf-8"?>
<!-- Generator: Adobe Illustrator 25.2.0, SVG Export Plug-In . SVG Version: 6.00 Build 0)  -->
<svg version="1.1" id="Слой_1" xmlns="http://www.w3.org/2000/svg" xmlns:xlink="http://www.w3.org/1999/xlink" x="0px" y="0px"
	 viewBox="0 0 648.1 86.1" style="enable-background:new 0 0 648.1 86.1;" xml:space="preserve">
<style type="text/css">
	.st0{fill:none;stroke:#D4D4D4;stroke-miterlimit:10;}
	.st1{fill:#FFFFFF;}
	.st2{fill:none;stroke:#707070;stroke-width:0.9996;stroke-miterlimit:9.9958;}
	.st3{fill:#C3341D;}
	.st4{font-family:'Gilroy-Bold';}
	.st5{font-size:13px;}
	.st6{fill:url(#SVGID_1_);}
	.st7{fill:url(#SVGID_2_);}
</style>
<g transform="translate(905.902 -4567.533)">
	<path class="st0" d="M-898.9,4569v84.6"/>
	<g transform="translate(-926 1260)">
		<path class="st1" d="M27.2,3360.1c-3.9,0-7.1-3.2-7.1-7.1c0-3.9,3.2-7.1,7.1-7.1c3.9,0,7.1,3.2,7.1,7.1
			C34.3,3356.9,31.1,3360.1,27.2,3360.1z"/>
		<line class="st0" x1="36.5" y1="3353" x2="62.5" y2="3352.4"/>
		<path d="M668.1,3378.3h-566c-19.8,0-35.9-11-35.9-24.5l0,0c0-13.5,16.1-24.5,35.9-24.5h566L668.1,3378.3z"/>
		<circle class="st1" cx="641.3" cy="3324.8" r="17.2"/>
		<circle class="st2" cx="641.3" cy="3324.7" r="13.4"/>
		<text transform="matrix(1 0 0 1 633.6938 3329.354)" class="st3 st4 st5">02</text>
		<circle class="st1" cx="84.1" cy="3352.4" r="41.2"/>
		
			<linearGradient id="SVGID_1_" gradientUnits="userSpaceOnUse" x1="-605.9689" y1="3884.0557" x2="-604.9689" y2="3884.0557" gradientTransform="matrix(71.084 0 0 -71.084 43123.7422 279446.6875)">
			<stop  offset="0" style="stop-color:#D3683B"/>
			<stop  offset="0.439" style="stop-color:#CC532D"/>
			<stop  offset="1" style="stop-color:#BD1D12"/>
		</linearGradient>
		<circle class="st6" cx="84.6" cy="3352.5" r="35.5"/>
		
			<linearGradient id="SVGID_2_" gradientUnits="userSpaceOnUse" x1="646.4926" y1="3833.7336" x2="647.4926" y2="3833.7336" gradientTransform="matrix(8.656 0 0 -8.6562 4710.5298 36538.6562)">
			<stop  offset="0" style="stop-color:#BD1D12"/>
			<stop  offset="0.561" style="stop-color:#CC532D"/>
			<stop  offset="1" style="stop-color:#D3683B"/>
		</linearGradient>
		<path class="st7" d="M31.6,3352.9c0-2.4-1.9-4.3-4.3-4.3s-4.3,1.9-4.3,4.3s1.9,4.3,4.3,4.3c0,0,0,0,0,0
			C29.7,3357.2,31.6,3355.3,31.6,3352.9C31.6,3352.9,31.6,3352.9,31.6,3352.9z"/>
		<g>
			<path class="st1" d="M82.4,3335.3c-1.5,1.3-3.1,2.3-4.9,3c-1.9,0.7-4,1-5.7,1.2c-2.1,0.2-3.6,1.8-3.7,3.9l0,0.2
				c0,1.5-0.1,3-0.1,4.5c0,3.5,0.3,6.3,0.9,8.9c0.9,3.9,2.5,7.1,5,9.8c2.5,2.7,5.7,4.7,9.9,6.1c0.5,0.2,1.1,0.2,1.6,0
				c3.8-1.3,6.9-3.1,9.3-5.5c3-2.9,4.9-6.6,5.7-11.2c0.5-2.7,0.7-5.6,0.6-8.9l0-1.2c0-0.9,0-1.7,0-2.6c0-2.1-1.5-3.8-3.7-4l-0.6-0.1
				c-0.6-0.1-1.1-0.1-1.7-0.2c-2.7-0.4-5.1-1.4-7.1-3c-0.4-0.3-0.8-0.6-1.1-0.9c-0.2-0.2-0.5-0.4-0.7-0.6c-0.4-0.4-1-0.5-1.5-0.5
				c-0.4,0-0.8,0.1-1.2,0.4c-0.3,0.2-0.5,0.4-0.8,0.6L82.4,3335.3z M83.4,3336.8l0.5-0.4c0.4-0.3,0.7-0.4,1.1,0
				c2.4,2.3,5.2,3.8,8.4,4.5c1.1,0.2,2.3,0.4,3.4,0.5c1.4,0.2,2.2,0.9,2.2,2.3c0,1,0,1.9,0,2.9l0,1.2c0.1,4.1-0.3,7.5-1.2,10.5
				c-1.3,4.5-4,8-8,10.5c-1.5,0.9-3.1,1.7-5,2.4c-0.1,0-0.3,0.1-0.4,0.1c-0.1,0-0.2,0-0.3,0c-3.5-1.2-6.3-2.9-8.4-5
				c-2.4-2.4-4.1-5.3-5-9c-0.6-2.6-0.9-5.5-0.9-9c0-1.4,0-2.9,0.1-4.3l0-0.2c0-1.4,0.8-2.2,2.2-2.3c3.5-0.3,6.2-1,8.5-2.5
				C81.6,3338.2,82.5,3337.5,83.4,3336.8z"/>
			<path class="st1" d="M84.5,3344C84.5,3344,84.5,3344,84.5,3344c-5.3,0-9.5,4.2-9.6,9.6c0,2.5,0.9,4.9,2.7,6.7
				c1.8,1.9,4.3,2.9,6.9,2.9c0,0,0.1,0,0.1,0c2.5,0,4.8-1,6.7-2.8c1.8-1.8,2.9-4.2,2.9-6.8c0-2.5-1-4.9-2.8-6.8
				C89.5,3345,87.1,3344,84.5,3344z M84.5,3361.2C84.5,3361.2,84.5,3361.2,84.5,3361.2c-2.1,0-4-0.8-5.5-2.3
				c-1.5-1.5-2.3-3.4-2.3-5.4c0-4.2,3.5-7.7,7.7-7.7c0,0,0,0,0,0c4.2,0,7.7,3.5,7.7,7.7C92.2,3357.8,88.8,3361.2,84.5,3361.2z"/>
			<path class="st1" d="M87.4,3353.5c0.5-0.5,1-1,1.5-1.5c0.3-0.3,0.4-0.8,0.1-1.2c-0.2-0.4-0.7-0.5-1.1-0.4
				c-0.2,0.1-0.4,0.2-0.5,0.4c-1.1,1.1-2.2,2.2-3.4,3.4l-1.2,1.2l-0.5-0.5c-0.3-0.3-0.5-0.5-0.8-0.8c-0.3-0.2-0.5-0.4-0.7-0.4
				c-0.1,0-0.1,0-0.2,0c-0.4,0.1-0.6,0.3-0.7,0.6c-0.1,0.3,0,0.7,0.3,1c0.5,0.5,1,1,1.5,1.5l0.4,0.4c0.6,0.6,1.1,0.5,1.6,0
				c0.8-0.8,1.6-1.6,2.3-2.3L87.4,3353.5z"/>
		</g>
	</g>
</g>
</svg>
