<?xml version="1.0" encoding="utf-8"?>
<!-- Generator: Adobe Illustrator 25.2.0, SVG Export Plug-In . SVG Version: 6.00 Build 0)  -->
<svg version="1.1" id="Слой_1" xmlns="http://www.w3.org/2000/svg" xmlns:xlink="http://www.w3.org/1999/xlink" x="0px" y="0px"
	 viewBox="0 0 648.1 86.1" style="enable-background:new 0 0 648.1 86.1;" xml:space="preserve">
<style type="text/css">
	.st0{fill:none;stroke:#D4D4D4;stroke-miterlimit:10;}
	.st1{fill:#FFFFFF;}
	.st2{fill:none;stroke:#707070;stroke-width:0.9996;stroke-miterlimit:9.9958;}
	.st3{fill:#C3341D;}
	.st4{font-family:'Gilroy-Bold';}
	.st5{font-size:13px;}
	.st6{fill:url(#SVGID_1_);}
	.st7{fill:url(#SVGID_2_);}
</style>
<g transform="translate(905.902 -4567.533)">
	<path class="st0" d="M-898.9,4569v84.6"/>
	<g transform="translate(-926 1260)">
		<path class="st1" d="M27.2,3360.1c-3.9,0-7.1-3.2-7.1-7.1c0-3.9,3.2-7.1,7.1-7.1c3.9,0,7.1,3.2,7.1,7.1
			C34.3,3356.9,31.1,3360.1,27.2,3360.1z"/>
		<line class="st0" x1="36.5" y1="3353" x2="62.5" y2="3352.4"/>
		<path d="M668.1,3378.3h-566c-19.8,0-35.9-11-35.9-24.5l0,0c0-13.5,16.1-24.5,35.9-24.5h566L668.1,3378.3z"/>
		<circle class="st1" cx="641.3" cy="3324.8" r="17.2"/>
		<circle class="st2" cx="641.3" cy="3324.7" r="13.4"/>
		<text transform="matrix(1 0 0 1 633.6938 3329.354)" class="st3 st4 st5">03</text>
		<circle class="st1" cx="84.1" cy="3352.4" r="41.2"/>
		
			<linearGradient id="SVGID_1_" gradientUnits="userSpaceOnUse" x1="-605.9689" y1="3884.0557" x2="-604.9689" y2="3884.0557" gradientTransform="matrix(71.084 0 0 -71.084 43123.7422 279446.6875)">
			<stop  offset="0" style="stop-color:#D3683B"/>
			<stop  offset="0.439" style="stop-color:#CC532D"/>
			<stop  offset="1" style="stop-color:#BD1D12"/>
		</linearGradient>
		<circle class="st6" cx="84.6" cy="3352.5" r="35.5"/>
		
			<linearGradient id="SVGID_2_" gradientUnits="userSpaceOnUse" x1="646.4926" y1="3833.7336" x2="647.4926" y2="3833.7336" gradientTransform="matrix(8.656 0 0 -8.6562 4710.5298 36538.6562)">
			<stop  offset="0" style="stop-color:#BD1D12"/>
			<stop  offset="0.561" style="stop-color:#CC532D"/>
			<stop  offset="1" style="stop-color:#D3683B"/>
		</linearGradient>
		<path class="st7" d="M31.6,3352.9c0-2.4-1.9-4.3-4.3-4.3s-4.3,1.9-4.3,4.3s1.9,4.3,4.3,4.3c0,0,0,0,0,0
			C29.7,3357.2,31.6,3355.3,31.6,3352.9C31.6,3352.9,31.6,3352.9,31.6,3352.9z"/>
		<g>
			<path class="st1" d="M98.3,3359l-0.1-0.1l0.1-0.1c0-0.1,0-0.1,0.1-0.1c0.9-1.2,0.9-2.4,0.1-3.6c-0.2-0.3-0.1-0.6,0-0.7
				c0.4-0.6,0.6-1.3,0.6-1.9c-0.2-1.6-1.3-2.7-3-2.7c-1.1,0-2.3,0-3.4,0l-1.7,0c-0.1,0-0.2,0-0.3,0l-0.4,0l0.2-0.4
				c0-0.1,0.1-0.2,0.1-0.3c0.1-0.2,0.2-0.5,0.3-0.7c0.2-0.5,0.4-0.9,0.6-1.4c0.5-1.3,0.6-2.4,0.4-3.4c-0.4-2.3-2.4-4.1-4.7-4.2
				c-0.7,0-0.9,0.2-1.1,0.9l-0.2,1c-0.2,0.8-0.3,1.6-0.5,2.5c-0.4,1.7-1.2,2.8-2.4,3.5c-1.1,0.6-2.1,1.1-3.2,1.7l-1.5,0.8l-0.1-0.2
				c-0.9-1.4-1.6-1.8-2.9-1.8c-0.9,0-1.8,0-2.7,0c-1.1,0-2.2,0-3.3,0c-0.7,0-1,0.3-1,1c0,6.2,0,12.3,0,18.5c0,0.6,0.3,1,1,1
				c2,0,4.1,0,6.1,0c0.8,0,1.5-0.3,2.1-0.9c0.3-0.3,0.6-0.3,0.9-0.2c2,0.6,3.8,0.9,5.4,1c3.4,0.1,6.7,0.1,10.5,0.1
				c1.4,0,2.4-0.8,2.8-2.2c0.1-0.5,0.1-1.1-0.1-1.8l-0.1-0.2l0.2-0.1c1.1-0.6,1.8-1.2,2-1.9C99.2,3361.1,99,3360.2,98.3,3359z
				 M76.5,3364.9c0,1.1-0.5,1.5-1.5,1.5l-3.7,0h-1.5v-17l0.1-0.1c0,0,0.1-0.1,0.2-0.1l1.2,0c1.3,0,2.7,0,4,0c0.7,0,1.2,0.5,1.2,1.2
				c0,0.1,0,0.2,0,0.2V3364.9z M94.2,3355.5c0.3,0,0.7,0,1,0h0.7c0.5,0,0.9,0.2,1.2,0.4c0.2,0.2,0.3,0.5,0.3,0.9
				c0,0.7-0.6,1.2-1.5,1.3h-0.7c-0.4,0-0.7,0-1.1,0c-0.5,0-0.9,0.3-0.9,0.8c0,0.2,0.1,0.4,0.2,0.6c0.2,0.2,0.4,0.3,0.7,0.3
				c0.4,0,0.8,0,1.1,0l0.6,0c0.5,0,0.9,0.1,1.2,0.4c0.2,0.2,0.3,0.5,0.3,0.9c0,0.8-0.6,1.2-1.5,1.2l-0.6,0c-0.4,0-0.8,0-1.1,0
				c-0.5,0-0.9,0.3-1,0.8c0,0.5,0.3,0.8,0.9,0.9c0.8,0.1,1.2,0.6,1.2,1.3c0,0.7-0.6,1.2-1.3,1.2c0,0,0,0,0,0l-2.3,0
				c-2.5,0-5.1,0-7.6-0.1c-1.9,0-3.8-0.5-5.4-1c-0.4-0.1-0.4-0.4-0.4-0.6l0-0.1l0-7.8c0-1.7,0-3.3,0-5c0-0.4,0.1-0.6,0.4-0.8
				c0.8-0.4,1.6-0.8,2.4-1.3c0.8-0.4,1.6-0.9,2.4-1.3c1.8-1,2.9-2.6,3.4-4.9c0.1-0.6,0.2-1.1,0.4-1.7l0.2-1.1l0.2,0.1
				c1.6,0.4,2.7,2.1,2.4,3.7c-0.1,0.8-0.4,1.7-0.7,2.4c-0.2,0.5-0.3,0.9-0.5,1.3c-0.1,0.3-0.2,0.6-0.4,0.9c-0.1,0.3-0.3,0.4-0.6,0.4
				c0,0,0,0-0.1,0c-0.3,0-0.7,0-1,0c-0.6,0-1,0.3-1,0.8c0,0.5,0.4,0.8,0.9,0.8c1.8,0,3.6,0,5.4,0l2.5,0c0.4,0,0.9,0,1.3,0
				c0.8,0,1.4,0.5,1.4,1.2c0,0.3-0.1,0.6-0.3,0.9c-0.3,0.3-0.6,0.4-1.1,0.4c-0.3,0-0.5,0-0.8,0c-0.3,0-0.7,0-1,0c-0.6,0-1,0.3-1,0.8
				C93.2,3355.2,93.6,3355.5,94.2,3355.5z"/>
			<path class="st1" d="M87,3335.8c0,0.5,0.4,0.9,0.8,0.9c0,0,0,0,0,0c0.5,0,0.8-0.4,0.8-0.9c0-0.7,0-1.4,0-2.1
				c0-0.5-0.4-0.9-0.8-0.9c0,0,0,0,0,0c-0.5,0-0.8,0.4-0.8,0.9c0,0.2,0,0.5,0,0.7l0,0.3l0,0.3C86.9,3335.3,86.9,3335.5,87,3335.8z"
				/>
			<path class="st1" d="M82.1,3335.6c-0.1-0.1-0.3-0.2-0.4-0.2c0,0-0.1,0-0.1,0c-0.5,0-0.7,0.2-0.8,0.5c-0.1,0.3-0.1,0.6,0.1,0.9
				c0.5,0.6,1,1,1.5,1.5c0.4,0.3,0.9,0.3,1.2,0c0.3-0.3,0.3-0.8,0-1.2C83.1,3336.5,82.6,3336,82.1,3335.6z"/>
			<path class="st1" d="M94.8,3336.3C94.9,3336.3,94.9,3336.3,94.8,3336.3c0-0.7-0.2-0.8-0.5-0.9c-0.1-0.1-0.2-0.1-0.4-0.1
				c-0.2,0-0.4,0.1-0.5,0.2c-0.5,0.5-1,0.9-1.4,1.4c-0.4,0.4-0.4,0.9-0.1,1.2c0.3,0.3,0.8,0.3,1.2,0l0.1-0.1
				c0.4-0.4,0.9-0.8,1.3-1.3C94.7,3336.6,94.8,3336.5,94.8,3336.3z"/>
			<path class="st1" d="M73.1,3362.3c-0.4,0-0.8,0.4-0.8,0.8c0,0.5,0.3,0.8,0.8,0.8c0,0,0,0,0,0c0.4,0,0.8-0.4,0.8-0.8
				c0-0.2-0.1-0.4-0.2-0.6C73.6,3362.3,73.4,3362.2,73.1,3362.3z"/>
		</g>
	</g>
</g>
</svg>
