<svg xmlns="http://www.w3.org/2000/svg" width="387.763" height="118.56" viewBox="0 0 387.763 118.56"><g transform="translate(-525.972 -798.656)"><path d="M879.887,798.67c.616-.089.7.25.7,1.343V831a3.167,3.167,0,0,0,.22,1.508c2.806-4.1,5.531-8.07,8.248-12.051,1.147-1.682,2.265-3.378,3.412-5.057a1.734,1.734,0,0,1,1.573-.828c4.775.037,9.554.02,14.329.02.408,0,.925-.129,1.1.383a1.311,1.311,0,0,1-.252,1.283q-7.533,10.24-15.007,20.523a1.183,1.183,0,0,0,0,1.649q7.664,10.074,15.2,20.239c.311.418.922.885.531,1.548-.351.6-1,.321-1.52.321-4.525.025-9.047,0-13.57.025a1.637,1.637,0,0,1-1.523-.8c-4.132-5.773-8.32-11.505-12.559-17.335a2.5,2.5,0,0,0-.168,1.369c0,5.144-.034,10.287.018,15.427,0,1.073-.354,1.365-1.385,1.353q-5.961-.07-11.928,0c-1.063,0-1.365-.332-1.362-1.375q.04-27.379,0-54.759a1.438,1.438,0,0,1,1.191-1.6c3.994-1.266,7.965-2.633,11.946-3.948A5.162,5.162,0,0,1,879.887,798.67Zm-309.746.02c.566-.072.653.227.653,1.2q.011,10.689.005,21.361v19.724a21.286,21.286,0,0,1-4.468,13.471,19.581,19.581,0,0,1-9.846,6.59,29.527,29.527,0,0,1-10.657,1.268c-6.525-.393-12.3-2.534-16.7-7.593a22.252,22.252,0,0,1-2.911-4.333c-.44-.84-.331-1.347.69-1.659,4.444-1.357,8.879-2.762,13.293-4.181.594-.19.91.062,1.333.391,3.279,2.584,8.09,2.9,11.268.8a5.155,5.155,0,0,0,2.354-4.564q.028-18.082,0-36.16c0-1.832.069-1.808,1.874-2.342,4.141-1.206,8.263-2.509,12.375-3.783A4.927,4.927,0,0,1,570.141,798.69Zm189.173.005c.522.1.512.709.515,1.3,0,3.548.047,7.082-.025,10.62-.025,1.14.27,1.521,1.451,1.469,2.54-.094,5.077-.042,7.614-.027,1.394,0,1.634.348,1.08,1.555-1.595,3.469-3.229,6.926-4.821,10.392a1.707,1.707,0,0,1-1.852,1.138c-1.081-.055-2.5-.48-3.18.173-.742.719-.252,2.159-.252,3.276q-.03,14.985,0,29.963c0,1.986,0,1.986-2.03,1.986-3.806,0-7.614-.042-11.419.025-1.147.019-1.451-.431-1.446-1.472.014-5.471,0-10.951,0-16.43,0-5.435-.025-10.872.024-16.307,0-1.014-.279-1.281-1.268-1.269-2.658.067-5.329.033-7.984.02-1.2,0-1.42-.351-.913-1.444,1.605-3.466,3.23-6.926,4.819-10.4a1.759,1.759,0,0,1,1.907-1.246c1.08.064,2.505.487,3.177-.178.73-.724.2-2.156.238-3.281.046-1.429.034-2.863,0-4.307a1.212,1.212,0,0,1,.986-1.358c4.226-1.33,8.444-2.72,12.66-4.112A1.525,1.525,0,0,1,759.314,798.7Zm-41.147,13.369c5.074.017,10.151,0,15.224,0,1.669,0,1.917.448,1.2,1.963-1.558,3.3-3.11,6.617-4.606,9.95a1.643,1.643,0,0,1-1.761,1.18c-3.553-.065-7.106-.02-10.657-.028a5.2,5.2,0,0,0-2.745.72,1.239,1.239,0,0,0-.032,2.193c1.944,1.306,4.248,1.612,6.434,2.218,3.553.977,7.055,2.028,9.982,4.342,3.254,2.582,5.289,5.754,5.329,10.14s-1.1,8.158-4.362,11.154a18.5,18.5,0,0,1-10.014,4.412c-3.726.578-7.418.066-10.437.242-3.806,0-6.938-.017-10.066,0-1,0-1.321-.277-.853-1.269q2.585-5.448,5.106-10.931a1.357,1.357,0,0,1,1.454-.875c3.807.039,7.613.017,11.418.022a2.8,2.8,0,0,0,2.26-.858c.759-.875.653-1.481-.366-2.085-2.082-1.228-4.448-1.582-6.723-2.2-4.438-1.206-8.627-2.823-11.824-6.359-2.688-2.982-3.39-6.545-3.022-10.353a13.358,13.358,0,0,1,2.4-6.592,16.213,16.213,0,0,1,9.824-6.2A28.519,28.519,0,0,1,718.167,812.064Zm123.33,1.278a26.419,26.419,0,0,1,9.727,1.65,22.668,22.668,0,0,1,8.148,5.182,16.394,16.394,0,0,1,3.481,4.54c.319.668.349,1.091-.415,1.523-3.724,2.112-7.418,4.278-11.112,6.446-.643.379-.893.141-1.234-.435-2.962-4.987-9.591-5.551-13.627-2.561a9.079,9.079,0,0,0-3.622,6.164,9.8,9.8,0,0,0,1.617,7.571,8.586,8.586,0,0,0,7.1,3.83c3.739.1,6.706-1.1,8.627-4.433.391-.683.9-.465,1.382-.188,3.642,2.094,7.26,4.226,10.912,6.285.8.45.717.937.356,1.521a22.423,22.423,0,0,1-4.594,5.536,24.248,24.248,0,0,1-10.121,5.19,17.931,17.931,0,0,1-5.318.673c-5.932-.02-10.934-1.459-15.276-4.664a22.928,22.928,0,0,1-9.018-14.482,25.926,25.926,0,0,1,.571-12.6,22.93,22.93,0,0,1,4.567-8.365,24.843,24.843,0,0,1,17.845-8.378Zm-246.669.018a18.6,18.6,0,0,1,11.945,3.207,9.285,9.285,0,0,0,1.61,1.236c.027-.321.052-.524.054-.727.057-2.487.057-2.487,2.616-2.487,3.509,0,7.02.037,10.529-.025,1.093-.017,1.5.331,1.5,1.422q-.03,21.571-.015,43.14c0,1.461-.254,1.634-1.654,1.194l-11.285-3.548c-.465-.149-.841-.312-1.33.173a16.941,16.941,0,0,1-9.868,4.653A20.588,20.588,0,0,1,583.38,857.9a23.025,23.025,0,0,1-8.924-13.622,26.646,26.646,0,0,1,.761-15.864c2.713-7.309,7.646-12.464,15.393-14.386A24.131,24.131,0,0,1,594.828,813.36Zm58.752.039a13.5,13.5,0,0,1,10.479,4.748c.44.447.682.415,1.085-.02a15.076,15.076,0,0,1,9.96-4.6,18.208,18.208,0,0,1,13.736,3.608,16.093,16.093,0,0,1,5.511,9.008,25.192,25.192,0,0,1,.791,6.683c-.049,4.513,0,9.025-.032,13.538,0,.885.238,1.187,1.135,1.132,1.18-.071,2.366-.029,3.551,0s1.464.438.944,1.575c-1.088,2.384-2.208,4.753-3.3,7.129-.542,1.17-1.1,2.334-1.588,3.521a1.33,1.33,0,0,1-1.466.853c-4.188-.03-8.375-.052-12.561,0-1.107.015-1.337-.4-1.335-1.4.035-8.6.079-17.207-.012-25.807-.032-3.2-1.153-5.215-3.823-6.085a6.15,6.15,0,0,0-8.165,5.714c-.573,8.664-.123,17.34-.212,26.012-.013,1.3-.354,1.595-1.605,1.568q-5.77-.126-11.545,0c-1.271.024-1.545-.408-1.538-1.593.045-8.6.07-17.2,0-25.8-.034-3.946-1.777-5.761-5.481-6.268-2.654-.364-5.428,1.775-6.209,4.755a9.559,9.559,0,0,0-.317,2.467c.023,8.308,0,16.616.035,24.922,0,1.142-.277,1.54-1.481,1.521-3.974-.075-7.95-.062-11.926,0-.989.014-1.268-.255-1.268-1.254.037-7.255.017-14.507.017-21.762v-21.63c0-1.427.094-1.486,1.407-1.081q5.707,1.762,11.419,3.514a1.188,1.188,0,0,0,1.409-.383,14.008,14.008,0,0,1,9.361-4.451A20.239,20.239,0,0,1,653.58,813.4Zm135.171.005a19.931,19.931,0,0,1,8.756,2.238c.966.512,1.854,1.222,2.954,1.951.025-.4.052-.643.052-.885,0-2.354-.252-2.112,2.226-2.119,3.724,0,7.442.022,11.166-.018.917,0,1.269.255,1.269,1.217q-.042,21.816,0,43.634c0,1.083-.356,1.269-1.4.933-3.823-1.249-7.685-2.389-11.522-3.6a1.265,1.265,0,0,0-1.521.342,15.916,15.916,0,0,1-9.643,4.5,21.094,21.094,0,0,1-12.321-1.81,21.431,21.431,0,0,1-9.666-9.28,26.331,26.331,0,0,1-3.123-11.05,25.349,25.349,0,0,1,3.862-15.914c3.687-5.712,8.835-9.248,15.8-10A23.649,23.649,0,0,1,788.751,813.4Zm2.221,13.966c-6.236-.245-10.655,4.312-10.336,10.311A9.444,9.444,0,0,0,790.6,847.9c5.808-.143,9.663-3.58,9.9-10.1A9.7,9.7,0,0,0,790.972,827.37Zm-192.3.007c-6.1-.232-10.338,4.3-10.368,10.182.24,6.758,4.115,10.3,9.943,10.321,6.27.027,10.024-3.956,10.1-10.311C608.413,831.833,604.822,827.61,598.673,827.377Z" fill="#fff" fill-rule="evenodd"/><text transform="translate(749.735 905.216)" fill="#fff" font-size="44.507" font-family="Gilroy-ExtraBold, Gilroy" font-weight="800"><tspan x="0" y="0" letter-spacing="0.052em">ON</tspan><tspan y="0" letter-spacing="0.054em">L</tspan><tspan y="0" letter-spacing="0.053em">I</tspan><tspan y="0" letter-spacing="0.052em">N</tspan><tspan y="0">E</tspan></text></g></svg>