<?xml version="1.0" encoding="utf-8"?>
<!-- Generator: Adobe Illustrator 26.2.1, SVG Export Plug-In . SVG Version: 6.00 Build 0)  -->
<svg version="1.1" id="Слой_1" xmlns="http://www.w3.org/2000/svg" xmlns:xlink="http://www.w3.org/1999/xlink" x="0px" y="0px"
	 viewBox="0 0 387.8 118.6" style="enable-background:new 0 0 387.8 118.6;" xml:space="preserve">
<style type="text/css">
	.st0{fill-rule:evenodd;clip-rule:evenodd;fill:#FFFFFF;}
	.st1{enable-background:new    ;}
	.st2{fill:#FFFFFF;}
</style>
<g transform="translate(-525.972 -798.656)">
	<path class="st0" d="M879.9,798.7c0.6-0.1,0.7,0.2,0.7,1.3v31c-0.1,0.5,0,1,0.2,1.5c2.8-4.1,5.5-8.1,8.2-12.1
		c1.1-1.7,2.3-3.4,3.4-5.1c0.3-0.5,0.9-0.9,1.6-0.8c4.8,0,9.6,0,14.3,0c0.4,0,0.9-0.1,1.1,0.4c0.2,0.4,0.1,0.9-0.3,1.3
		c-5,6.8-10,13.7-15,20.5c-0.4,0.5-0.4,1.2,0,1.6c5.1,6.7,10.2,13.5,15.2,20.2c0.3,0.4,0.9,0.9,0.5,1.5c-0.4,0.6-1,0.3-1.5,0.3
		c-4.5,0-9,0-13.6,0c-0.6,0-1.2-0.3-1.5-0.8c-4.1-5.8-8.3-11.5-12.6-17.3c-0.2,0.4-0.2,0.9-0.2,1.4c0,5.1,0,10.3,0,15.4
		c0,1.1-0.4,1.4-1.4,1.4c-4,0-7.9,0-11.9,0c-1.1,0-1.4-0.3-1.4-1.4c0-18.3,0-36.5,0-54.8c-0.1-0.8,0.4-1.5,1.2-1.6
		c4-1.3,8-2.6,11.9-3.9C879.3,798.8,879.6,798.7,879.9,798.7z M570.1,798.7c0.6-0.1,0.7,0.2,0.7,1.2c0,7.1,0,14.2,0,21.4V841
		c0.1,4.9-1.5,9.6-4.5,13.5c-2.5,3.2-6,5.5-9.8,6.6c-3.4,1.1-7.1,1.5-10.7,1.3c-6.5-0.4-12.3-2.5-16.7-7.6c-1.1-1.3-2.1-2.8-2.9-4.3
		c-0.4-0.8-0.3-1.3,0.7-1.7c4.4-1.4,8.9-2.8,13.3-4.2c0.6-0.2,0.9,0.1,1.3,0.4c3.3,2.6,8.1,2.9,11.3,0.8c1.5-1,2.4-2.7,2.4-4.6
		c0-12.1,0-24.1,0-36.2c0-1.8,0.1-1.8,1.9-2.3c4.1-1.2,8.3-2.5,12.4-3.8C569.6,798.8,569.9,798.7,570.1,798.7z M759.3,798.7
		c0.5,0.1,0.5,0.7,0.5,1.3c0,3.5,0,7.1,0,10.6c0,1.1,0.3,1.5,1.5,1.5c2.5-0.1,5.1,0,7.6,0c1.4,0,1.6,0.3,1.1,1.6
		c-1.6,3.5-3.2,6.9-4.8,10.4c-0.3,0.8-1,1.3-1.9,1.1c-1.1-0.1-2.5-0.5-3.2,0.2c-0.7,0.7-0.3,2.2-0.3,3.3c0,10,0,20,0,30c0,2,0,2-2,2
		c-3.8,0-7.6,0-11.4,0c-1.1,0-1.5-0.4-1.4-1.5c0-5.5,0-11,0-16.4c0-5.4,0-10.9,0-16.3c0-1-0.3-1.3-1.3-1.3c-2.7,0.1-5.3,0-8,0
		c-1.2,0-1.4-0.4-0.9-1.4c1.6-3.5,3.2-6.9,4.8-10.4c0.2-0.8,1.1-1.4,1.9-1.2c1.1,0.1,2.5,0.5,3.2-0.2c0.7-0.7,0.2-2.2,0.2-3.3
		c0-1.4,0-2.9,0-4.3c-0.1-0.6,0.3-1.2,1-1.4c4.2-1.3,8.4-2.7,12.7-4.1C758.8,798.7,759.1,798.7,759.3,798.7L759.3,798.7z
		 M718.2,812.1c5.1,0,10.2,0,15.2,0c1.7,0,1.9,0.4,1.2,2c-1.6,3.3-3.1,6.6-4.6,10c-0.2,0.8-1,1.3-1.8,1.2c-3.6-0.1-7.1,0-10.7,0
		c-1,0-1.9,0.2-2.7,0.7c-0.6,0.3-0.9,1.1-0.5,1.7c0.1,0.2,0.3,0.4,0.5,0.5c1.9,1.3,4.2,1.6,6.4,2.2c3.6,1,7.1,2,10,4.3
		c3.3,2.6,5.3,5.8,5.3,10.1s-1.1,8.2-4.4,11.2c-2.8,2.4-6.3,4-10,4.4c-3.7,0.6-7.4,0.1-10.4,0.2c-3.8,0-6.9,0-10.1,0
		c-1,0-1.3-0.3-0.9-1.3c1.7-3.6,3.4-7.3,5.1-10.9c0.2-0.6,0.8-1,1.5-0.9c3.8,0,7.6,0,11.4,0c0.8,0.1,1.7-0.2,2.3-0.9
		c0.8-0.9,0.7-1.5-0.4-2.1c-2.1-1.2-4.4-1.6-6.7-2.2c-4.4-1.2-8.6-2.8-11.8-6.4c-2.7-3-3.4-6.5-3-10.4c0.2-2.4,1-4.6,2.4-6.6
		c2.4-3.2,5.9-5.4,9.8-6.2C713.6,812.3,715.9,812,718.2,812.1z M841.5,813.3c3.3-0.1,6.6,0.5,9.7,1.7c3.1,1.1,5.8,2.9,8.1,5.2
		c1.4,1.3,2.6,2.8,3.5,4.5c0.3,0.7,0.3,1.1-0.4,1.5c-3.7,2.1-7.4,4.3-11.1,6.4c-0.6,0.4-0.9,0.1-1.2-0.4c-3-5-9.6-5.6-13.6-2.6
		c-2,1.5-3.3,3.7-3.6,6.2c-0.5,2.6,0.1,5.4,1.6,7.6c1.6,2.4,4.2,3.8,7.1,3.8c3.7,0.1,6.7-1.1,8.6-4.4c0.4-0.7,0.9-0.5,1.4-0.2
		c3.6,2.1,7.3,4.2,10.9,6.3c0.8,0.5,0.7,0.9,0.4,1.5c-1.2,2.1-2.8,3.9-4.6,5.5c-2.9,2.5-6.4,4.3-10.1,5.2c-1.7,0.5-3.5,0.7-5.3,0.7
		c-5.9,0-10.9-1.5-15.3-4.7c-4.8-3.5-8-8.7-9-14.5c-0.8-4.2-0.7-8.5,0.6-12.6c0.9-3.1,2.5-5.9,4.6-8.4
		C828.2,816.6,834.6,813.6,841.5,813.3L841.5,813.3z M594.8,813.4c4.2-0.3,8.4,0.8,11.9,3.2c0.5,0.5,1,0.9,1.6,1.2
		c0-0.3,0.1-0.5,0.1-0.7c0.1-2.5,0.1-2.5,2.6-2.5c3.5,0,7,0,10.5,0c1.1,0,1.5,0.3,1.5,1.4c0,14.4,0,28.8,0,43.1
		c0,1.5-0.3,1.6-1.7,1.2l-11.3-3.5c-0.5-0.1-0.8-0.3-1.3,0.2c-2.7,2.6-6.2,4.2-9.9,4.7c-5.5,0.9-11.1-0.4-15.6-3.7
		c-4.5-3.3-7.7-8.1-8.9-13.6c-1.4-5.2-1.1-10.8,0.8-15.9c2.7-7.3,7.6-12.5,15.4-14.4C592,813.7,593.4,813.5,594.8,813.4L594.8,813.4
		z M653.6,813.4c4-0.1,7.9,1.7,10.5,4.7c0.4,0.4,0.7,0.4,1.1,0c2.6-2.7,6.2-4.4,10-4.6c4.9-0.7,9.8,0.6,13.7,3.6
		c2.8,2.3,4.7,5.5,5.5,9c0.6,2.2,0.8,4.4,0.8,6.7c0,4.5,0,9,0,13.5c0,0.9,0.2,1.2,1.1,1.1c1.2-0.1,2.4,0,3.6,0s1.5,0.4,0.9,1.6
		c-1.1,2.4-2.2,4.8-3.3,7.1c-0.5,1.2-1.1,2.3-1.6,3.5c-0.2,0.6-0.8,1-1.5,0.9c-4.2,0-8.4-0.1-12.6,0c-1.1,0-1.3-0.4-1.3-1.4
		c0-8.6,0.1-17.2,0-25.8c0-3.2-1.2-5.2-3.8-6.1c-3.2-1.1-6.7,0.6-7.8,3.8c-0.2,0.6-0.3,1.3-0.3,1.9c-0.6,8.7-0.1,17.3-0.2,26
		c0,1.3-0.4,1.6-1.6,1.6c-3.8-0.1-7.7-0.1-11.5,0c-1.3,0-1.5-0.4-1.5-1.6c0-8.6,0.1-17.2,0-25.8c0-3.9-1.8-5.8-5.5-6.3
		c-2.7-0.4-5.4,1.8-6.2,4.8c-0.2,0.8-0.3,1.6-0.3,2.5c0,8.3,0,16.6,0,24.9c0,1.1-0.3,1.5-1.5,1.5c-4-0.1-8-0.1-11.9,0
		c-1,0-1.3-0.3-1.3-1.3c0-7.3,0-14.5,0-21.8v-21.6c0-1.4,0.1-1.5,1.4-1.1c3.8,1.2,7.6,2.3,11.4,3.5c0.5,0.2,1.1,0.1,1.4-0.4
		c2.4-2.6,5.8-4.2,9.4-4.5C651.6,813.4,652.6,813.4,653.6,813.4L653.6,813.4z M788.8,813.4c3.1,0.1,6,0.8,8.8,2.2c1,0.5,1.9,1.2,3,2
		c0-0.4,0.1-0.6,0.1-0.9c0-2.4-0.3-2.1,2.2-2.1c3.7,0,7.4,0,11.2,0c0.9,0,1.3,0.3,1.3,1.2c0,14.5,0,29.1,0,43.6
		c0,1.1-0.4,1.3-1.4,0.9c-3.8-1.2-7.7-2.4-11.5-3.6c-0.5-0.2-1.2-0.1-1.5,0.3c-2.6,2.6-6,4.2-9.6,4.5c-4.2,0.7-8.5,0-12.3-1.8
		c-4.1-2-7.5-5.2-9.7-9.3c-1.8-3.4-2.9-7.2-3.1-11c-0.5-5.6,0.8-11.2,3.9-15.9c3.7-5.7,8.8-9.2,15.8-10
		C786.7,813.4,787.7,813.4,788.8,813.4L788.8,813.4z M791,827.4c-6.2-0.2-10.7,4.3-10.3,10.3c-0.4,5.2,3.4,9.8,8.6,10.2
		c0.4,0,0.9,0,1.3,0c5.8-0.1,9.7-3.6,9.9-10.1c0.4-5.3-3.6-10-8.9-10.4C791.4,827.4,791.2,827.4,791,827.4L791,827.4z M598.7,827.4
		c-6.1-0.2-10.3,4.3-10.4,10.2c0.2,6.8,4.1,10.3,9.9,10.3c6.3,0,10-4,10.1-10.3C608.4,831.8,604.8,827.6,598.7,827.4L598.7,827.4z"
		/>
	<g class="st1">
		<path class="st2" d="M751.1,889.6c0-9.2,7.3-16.2,16.2-16.2s16.2,7,16.2,16.2s-7.3,16.2-16.2,16.2S751.1,898.8,751.1,889.6z
			 M776.4,889.6c0-5.6-4-9.3-9.1-9.3s-9.1,3.7-9.1,9.3c0,5.6,4,9.3,9.1,9.3S776.4,895.2,776.4,889.6z"/>
		<path class="st2" d="M814.3,874.1v31.2h-5.3l-12-16.9v16.9h-7.1v-31.2h5.3l12,16.9v-16.9H814.3z"/>
	</g>
	<g class="st1">
		<path class="st2" d="M840.2,898.4v6.9h-18.2v-31.2h7.1v24.3H840.2z"/>
	</g>
	<g class="st1">
		<path class="st2" d="M852.8,874.1v31.2h-7.1v-31.2H852.8z"/>
	</g>
	<g class="st1">
		<path class="st2" d="M885,874.1v31.2h-5.3l-12-16.9v16.9h-7.1v-31.2h5.3l12,16.9v-16.9H885z"/>
	</g>
	<g class="st1">
		<path class="st2" d="M912.2,898.4v6.9h-19.6v-31.2H912v6.9h-12.2v5.2h11.1v6.8h-11.1v5.5H912.2z"/>
	</g>
</g>
</svg>
