<svg xmlns="http://www.w3.org/2000/svg" width="135.748" height="19.374" viewBox="0 0 135.748 19.374"><g transform="translate(-125.944 -3645.779)"><path d="M241.841,3664.365l-4.97-6.663,4.836-6.662a.165.165,0,0,0-.133-.262h-4.72a.164.164,0,0,0-.136.071l-3.743,5.482v-10.223a.17.17,0,0,0-.068-.135.165.165,0,0,0-.149-.023l-4.045,1.331a.167.167,0,0,0-.113.158v17.025a.165.165,0,0,0,.165.166h4.045a.165.165,0,0,0,.165-.166V3659l4.015,5.562a.166.166,0,0,0,.134.069h4.584a.166.166,0,0,0,.133-.265Z" fill="#fff"/><path d="M227.609,3661.21l-3.532-2.028a.16.16,0,0,0-.133-.014.166.166,0,0,0-.1.089,2.614,2.614,0,0,1-2.465,1.418,2.973,2.973,0,0,1,0-5.943,2.635,2.635,0,0,1,2.467,1.422.166.166,0,0,0,.1.086.16.16,0,0,0,.131-.016l3.532-2.055a.165.165,0,0,0,.061-.224,7.318,7.318,0,1,0,0,7.489A.167.167,0,0,0,227.609,3661.21Z" fill="#fff"/><path d="M213.048,3650.778H209a.165.165,0,0,0-.165.165v.856a5.313,5.313,0,0,0-3.853-1.4c-3.706,0-6.609,3.209-6.609,7.305s2.9,7.3,6.609,7.3a5.237,5.237,0,0,0,4.071-1.625l3.943,1.239a.164.164,0,0,0,.147-.024.168.168,0,0,0,.067-.134v-13.521A.164.164,0,0,0,213.048,3650.778Zm-7.254,10.059a3.135,3.135,0,1,1,3.044-3.133A2.925,2.925,0,0,1,205.794,3660.837Z" fill="#fff"/><path d="M199.628,3650.1a.165.165,0,0,0-.139-.077h-3.017v-3.912a.168.168,0,0,0-.069-.135.163.163,0,0,0-.148-.023l-4.045,1.331a.166.166,0,0,0-.114.158v2.581h-1.357a.165.165,0,0,0-.15.1l-1.66,3.57a.164.164,0,0,0,.15.235H192.1v10.543a.165.165,0,0,0,.165.166h4.045a.166.166,0,0,0,.166-.166v-10.543h1.357a.166.166,0,0,0,.15-.1l1.659-3.57A.164.164,0,0,0,199.628,3650.1Z" fill="#fff"/><path d="M188.293,3657.205l-.02-.015a7.873,7.873,0,0,0-3.769-1.777c-.971-.257-1.809-.478-1.809-.9,0-.533.677-.591.967-.591H187.2a.163.163,0,0,0,.149-.1l1.658-3.57a.165.165,0,0,0-.149-.235h-5.2c-2.713,0-5.45,1.422-5.45,4.6a3.605,3.605,0,0,0,1.194,2.821l.017.013a7.869,7.869,0,0,0,3.772,1.779c.97.256,1.809.477,1.809.9,0,.534-.677.591-.968.591a.169.169,0,0,0-.032,0h-3.5a.165.165,0,0,0-.149.1l-1.66,3.57a.167.167,0,0,0,.011.159.164.164,0,0,0,.139.077h5.2a.159.159,0,0,0,.031,0c2.7-.011,5.419-1.435,5.419-4.6A3.6,3.6,0,0,0,188.293,3657.205Z" fill="#fff"/><path d="M178.751,3660.8a.165.165,0,0,0-.139-.077h-1.636v-4.566c0-3.5-2.076-5.763-5.288-5.763a4.67,4.67,0,0,0-3.907,1.667,4.2,4.2,0,0,0-3.537-1.667,4.363,4.363,0,0,0-3.679,1.595l-3.93-1.209a.165.165,0,0,0-.214.158v13.521a.165.165,0,0,0,.165.166h4.046a.165.165,0,0,0,.165-.166v-7.626c0-1.532.688-2.377,1.938-2.377,1.145,0,1.776.729,1.776,2.053v7.95a.165.165,0,0,0,.165.166h4.045a.166.166,0,0,0,.166-.166v-7.626c0-1.51.706-2.377,1.938-2.377,1.145,0,1.776.729,1.776,2.053v7.95a.174.174,0,0,0,.175.166h4.177a.165.165,0,0,0,.149-.1l1.659-3.57A.167.167,0,0,0,178.751,3660.8Z" fill="#fff"/><path d="M155.039,3650.778h-4.045a.165.165,0,0,0-.165.165v.856a5.315,5.315,0,0,0-3.853-1.4c-3.706,0-6.61,3.209-6.61,7.305s2.9,7.3,6.61,7.3a5.238,5.238,0,0,0,4.071-1.625l3.943,1.239a.164.164,0,0,0,.147-.024.168.168,0,0,0,.067-.134v-13.521A.165.165,0,0,0,155.039,3650.778Zm-7.254,10.059a3.135,3.135,0,1,1,3.044-3.133A2.925,2.925,0,0,1,147.785,3660.837Z" fill="#fff"/><path d="M139.391,3645.975a.16.16,0,0,0-.146-.026l-4.315,1.331a.166.166,0,0,0-.116.159v11.085c0,.948-.4,2.079-2.289,2.079a2.423,2.423,0,0,1-1.985-.755.166.166,0,0,0-.172-.047l-4.308,1.354a.165.165,0,0,0-.1.234,6.8,6.8,0,0,0,6.535,3.764c4.229,0,6.961-2.6,6.961-6.629v-12.416A.163.163,0,0,0,139.391,3645.975Z" fill="#fff"/><path d="M249.314,3661.33l6.111-6.345c1.066-1.092,1.846-2.159,1.846-3.225a1.809,1.809,0,0,0-1.95-1.924,2.928,2.928,0,0,0-2.679,1.976l-3.51-2.054a6.492,6.492,0,0,1,6.137-3.979c3.25,0,6.163,2.133,6.163,5.8a8.2,8.2,0,0,1-2.835,5.721l-3.016,3.043h6.111v4H249.314Z" fill="#fff"/></g></svg>