<svg xmlns="http://www.w3.org/2000/svg" xmlns:xlink="http://www.w3.org/1999/xlink" width="110.192" height="55.221" viewBox="0 0 110.192 55.221"><defs><linearGradient id="a" x1="1.163" y1="0.957" x2="0.129" y2="0.18" gradientUnits="objectBoundingBox"><stop offset="0" stop-color="#e27e4e"/><stop offset="0.498" stop-color="#dc6a3e"/><stop offset="1" stop-color="#d03319"/></linearGradient></defs><g transform="translate(-2779.75 -3619)"><path d="M283.85,1940.91c-5.533-5.725,1.335-29.648,5.132-38.588,5.961-14.035,20.406-21.64,37.749-3.694h0c17.4,18,9.285,31.538-4.521,37.646C313.576,1940.094,289.776,1947.042,283.85,1940.91Z" transform="translate(2553.31 1730.88)" fill="url(#a)"/><g transform="translate(2553.31 1266.088)"><path d="M284.774,2356.589a8.334,8.334,0,1,1-8.457,8.339A8.434,8.434,0,0,1,284.774,2356.589Z" fill="#c6f731"/><path d="M284.031,2368.543l-3.46-2.727,1.238-1.571,1.99,1.569,3.733-4.139,1.485,1.34Z"/><path d="M312.181,2375.765h.355c1.716,0,3.432-.006,5.147,0a2.655,2.655,0,0,1,2.687,2.132,2.6,2.6,0,0,1-.258,1.767c-.041.079-.085.156-.142.258a2.672,2.672,0,0,1-.005,4.56,2.7,2.7,0,0,1,.368,2.186,2.594,2.594,0,0,1-1.326,1.671,8.965,8.965,0,0,1,.3,1.263,2.6,2.6,0,0,1-2.5,2.813c-2.85.005-5.7.134-8.548-.1a23.741,23.741,0,0,1-6.379-1.462,2.245,2.245,0,0,0-.751-.139c-1.546-.013-3.092-.006-4.638-.007-.684,0-.962-.277-.962-.958q0-5.4,0-10.8c0-.665.279-.942.946-.942,1.555,0,3.11,0,4.665-.007a.923.923,0,0,0,.485-.161,21.368,21.368,0,0,0,3.987-3.482,7.682,7.682,0,0,0,1.435-2.4q.674-1.836,1.4-3.653a2.347,2.347,0,0,1,1.789-1.571,2.144,2.144,0,0,1,2.392,1.329,6.5,6.5,0,0,1,.289,2.514,28.552,28.552,0,0,1-.678,4.877C312.218,2375.536,312.206,2375.623,312.181,2375.765Zm-9.778,8.518v4.879c0,.13-.026.256.155.322a22.049,22.049,0,0,0,6.052,1.328c1.318.089,2.643.084,3.965.1s2.645,0,3.967,0a1.152,1.152,0,0,0,1.166-.7,1.118,1.118,0,0,0-.982-1.563c-.533-.066-.829-.368-.8-.817s.357-.713.9-.717c.348,0,.7.011,1.045-.012a1.119,1.119,0,0,0,1.035-1.208,1.173,1.173,0,0,0-1.132-1.049.735.735,0,0,1-.749-.8.771.771,0,0,1,.816-.719c.233-.006.465,0,.7,0a1.125,1.125,0,0,0,1.192-1.113,1.145,1.145,0,0,0-1.195-1.145c-.259-.005-.519.006-.777-.005a.744.744,0,0,1-.733-.712.753.753,0,0,1,.676-.794c.107-.014.214-.021.319-.043a1.125,1.125,0,0,0-.348-2.219q-3.1,0-6.193,0a2.186,2.186,0,0,1-.373-.021.746.746,0,0,1-.634-.875c.025-.167.067-.333.106-.5a27.258,27.258,0,0,0,.813-5.423,12.344,12.344,0,0,0-.144-1.754.544.544,0,0,0-.473-.482.613.613,0,0,0-.666.234,2.316,2.316,0,0,0-.3.531c-.456,1.174-.91,2.348-1.346,3.53a8.879,8.879,0,0,1-1.637,2.746,22.936,22.936,0,0,1-4.2,3.729.452.452,0,0,0-.218.416C302.406,2381.048,302.4,2382.665,302.4,2384.283Zm-5.329-4.748v9.626h3.784v-9.626Z" fill="#fff"/><path d="M46,1H44V-1h2ZM42,1H40V-1h2ZM38,1H36V-1h2ZM34,1H32V-1h2ZM30,1H28V-1h2ZM26,1H24V-1h2ZM22,1H20V-1h2ZM18,1H16V-1h2ZM14,1H12V-1h2ZM10,1H8V-1h2ZM6,1H4V-1H6ZM2,1H0V-1H2Z" transform="translate(226.44 2382.677)" fill="#fff" opacity="0.23"/></g></g></svg>