<svg xmlns="http://www.w3.org/2000/svg" xmlns:xlink="http://www.w3.org/1999/xlink" width="111.719" height="55.221" viewBox="0 0 111.719 55.221"><defs><linearGradient id="a" x1="1.163" y1="0.957" x2="0.129" y2="0.18" gradientUnits="objectBoundingBox"><stop offset="0" stop-color="#e27e4e"/><stop offset="0.498" stop-color="#dc6a3e"/><stop offset="1" stop-color="#d03319"/></linearGradient></defs><g transform="translate(-224.912 -1888.12)"><path d="M46,1H44V-1h2ZM42,1H40V-1h2ZM38,1H36V-1h2ZM34,1H32V-1h2ZM30,1H28V-1h2ZM26,1H24V-1h2ZM22,1H20V-1h2ZM18,1H16V-1h2ZM14,1H12V-1h2ZM10,1H8V-1h2ZM6,1H4V-1H6ZM2,1H0V-1H2Z" transform="translate(224.912 1917.585)" fill="#fff" opacity="0.23"/><path d="M283.85,1940.91c-5.533-5.725,1.335-29.648,5.132-38.588,5.961-14.035,20.406-21.64,37.749-3.694h0c17.4,18,9.285,31.538-4.521,37.646C313.576,1940.094,289.776,1947.042,283.85,1940.91Z" fill="url(#a)"/><path d="M284.774,1892.445a8.334,8.334,0,1,1-8.457,8.338A8.433,8.433,0,0,1,284.774,1892.445Z" fill="#c6f731"/><path d="M284.031,1904.4l-3.46-2.727,1.238-1.571,1.99,1.569,3.733-4.138,1.485,1.34Z"/><path d="M294.645,1913.587a.811.811,0,0,0-.812-.815h-.209a.815.815,0,0,0-.814.771.3.3,0,0,0,0,.042L292.8,1922a.816.816,0,0,0,.814.816h.209a.8.8,0,0,0,.814-.812Z" fill="#fff"/><path d="M325.483,1913.583a.813.813,0,0,0-.816-.812h-.208a.816.816,0,0,0-.812.774c0,.013,0,.028,0,.042l.024,8.418a.815.815,0,0,0,.817.812h.208a.8.8,0,0,0,.811-.816Z" fill="#fff"/><path d="M305.508,1921.7l8.208.01h.574l6.351.008.01-7.793-22.787-.029-.01,7.793,6.579.009Zm-7.24-7.4,21.978.027-.009,6.983-5.947-.007h-.573l-8.208-.01h-1.075l-6.175-.008Z" fill="#fff"/><path d="M321.14,1922.223l-23.787-.03.011-8.793,23.787.03Zm-22.381-1.433,20.978.026.008-5.983-20.978-.026Z" fill="#fff"/><rect width="1.835" height="2.94" transform="translate(307.749 1910.111) rotate(-89.929)" fill="#fff"/><rect width="1.835" height="2.94" transform="translate(317.263 1910.123) rotate(-89.927)" fill="#fff"/><rect width="1.835" height="2.94" transform="translate(298.236 1910.099) rotate(-89.929)" fill="#fff"/><path d="M312.219,1925.624l13.16.016a3.483,3.483,0,0,0,3.483-3.473l.012-8.5a3.481,3.481,0,0,0-3.474-3.483l-32.361-.041a3.484,3.484,0,0,0-3.478,3.291c0,.061,0,.122-.005.184l-.01,8.5a3.482,3.482,0,0,0,3.472,3.483l13.248.016Zm-21.351-3.505.01-8.5a2.151,2.151,0,0,1,2.158-2.154l32.361.041a2.159,2.159,0,0,1,2.155,2.159l-.011,8.5q0,.057,0,.114a2.16,2.16,0,0,1-2.156,2.04l-32.361-.041A2.158,2.158,0,0,1,290.868,1922.119Z" fill="#fff"/><path d="M325.385,1925.79h-.006l-32.361-.04a3.633,3.633,0,0,1-3.622-3.633l.01-8.5c0-.066,0-.129.005-.191a3.628,3.628,0,0,1,3.624-3.434l32.365.041a3.631,3.631,0,0,1,3.624,3.633l-.012,8.5A3.624,3.624,0,0,1,325.385,1925.79ZM293.039,1910.3a3.329,3.329,0,0,0-3.328,3.149c0,.059,0,.118,0,.178l-.01,8.494a3.333,3.333,0,0,0,3.322,3.333l32.366.04a3.326,3.326,0,0,0,3.328-3.325l.012-8.495a3.331,3.331,0,0,0-3.324-3.333Zm32.345,14.173-32.363-.041a2.308,2.308,0,0,1-2.3-2.309l.01-8.5a2.25,2.25,0,0,1,.659-1.615,2.3,2.3,0,0,1,1.645-.688h0l32.361.041a2.309,2.309,0,0,1,2.3,2.309l-.011,8.5q0,.061,0,.122A2.306,2.306,0,0,1,325.384,1924.469Zm-32.352-13v.15a2,2,0,0,0-1.432.6,1.953,1.953,0,0,0-.573,1.4l-.01,8.5a2.007,2.007,0,0,0,2,2.009l32.361.041a2.007,2.007,0,0,0,2.006-1.9c0-.035,0-.071,0-.106l.011-8.5a2.009,2.009,0,0,0-2.005-2.009l-32.361-.041Z" fill="#fff"/></g></svg>