<svg xmlns="http://www.w3.org/2000/svg" xmlns:xlink="http://www.w3.org/1999/xlink" width="110.192" height="55.221" viewBox="0 0 110.192 55.221"><defs><linearGradient id="a" x1="1.163" y1="0.957" x2="0.129" y2="0.18" gradientUnits="objectBoundingBox"><stop offset="0" stop-color="#e27e4e"/><stop offset="0.498" stop-color="#dc6a3e"/><stop offset="1" stop-color="#d03319"/></linearGradient></defs><g transform="translate(-2779.75 -3538)"><path d="M283.85,1940.91c-5.533-5.725,1.335-29.648,5.132-38.588,5.961-14.035,20.406-21.64,37.749-3.694h0c17.4,18,9.285,31.538-4.521,37.646C313.576,1940.094,289.776,1947.042,283.85,1940.91Z" transform="translate(2553.31 1649.88)" fill="url(#a)"/><g transform="translate(2553.31 1261.88)"><path d="M284.774,2279.294a8.334,8.334,0,1,1-8.457,8.339A8.434,8.434,0,0,1,284.774,2279.294Z" fill="#c6f731"/><path d="M284.031,2291.248l-3.46-2.727,1.238-1.571,1.99,1.569,3.733-4.139,1.485,1.34Z"/><path d="M308.025,2319.015h13.384c.636,0,.895-.257.895-.889v-16.1a3.281,3.281,0,0,0-3.378-3.388q-1.727-.008-3.451,0h-.005a.441.441,0,0,1-.467-.324c-.2-.535-.427-1.073-.666-1.595a.413.413,0,0,1,.1-.538c.235-.218.457-.447.664-.662a.707.707,0,0,0,0-1.07q-1.182-1.192-2.378-2.372a.7.7,0,0,0-1.048,0c-.267.253-.477.464-.66.663a.43.43,0,0,1-.566.1c-.545-.249-1.081-.473-1.593-.666a.411.411,0,0,1-.307-.452c.01-.333.008-.667,0-1a.7.7,0,0,0-.737-.741c-1.13-.007-2.26-.009-3.39,0a.692.692,0,0,0-.721.723c-.01.383-.009.7,0,1a.44.44,0,0,1-.324.477c-.509.194-1.031.413-1.592.669a.415.415,0,0,1-.541-.1c-.167-.183-.346-.357-.524-.532l-.094-.091a.731.731,0,0,0-1.157,0c-.76.753-1.513,1.509-2.267,2.269a.732.732,0,0,0,.016,1.2c.174.173.353.341.516.495l.281.266-.254.646c-.187.479-.365.933-.552,1.383a.47.47,0,0,1-.377.246c-.191.011-.382.012-.576.008-.145,0-.291,0-.436,0a.694.694,0,0,0-.718.727q-.012,1.695,0,3.39a.712.712,0,0,0,.745.735c.314.008.629.009.94,0a.423.423,0,0,1,.455.306c.188.5.41,1.027.676,1.622a.393.393,0,0,1-.094.512c-.219.206-.444.431-.686.685a.7.7,0,0,0,0,1.045q1.178,1.2,2.372,2.378a.709.709,0,0,0,1.071,0l.063-.06c.187-.179.38-.365.549-.559a.489.489,0,0,1,.372-.2.63.63,0,0,1,.309.1,6.458,6.458,0,0,0,.688.322l.156.066a2.868,2.868,0,0,0,.286.095,1.065,1.065,0,0,1,.617.331,1.142,1.142,0,0,1,.09.736c-.007.093-.015.185-.014.272,0,.725.227.946.96.946h2.478v6.033C307.139,2318.764,307.387,2319.015,308.025,2319.015Zm10.868-18.916.139-.011a1.66,1.66,0,0,1,1.239.455,1.864,1.864,0,0,1,.6,1.367v.15h-1.976Zm-1.44-.019v1.113c0,.509,0,1.019,0,1.529a.7.7,0,0,0,.768.767c.6,0,1.2,0,1.8,0h.842v14.1h-12.29V2300.08Zm-10.332,10.563h-2v-.406c0-.21,0-.417,0-.625a.737.737,0,0,0-.672-.848,8.092,8.092,0,0,1-2.57-1.073.742.742,0,0,0-1.075.121c-.142.141-.276.291-.406.434l-.28.307-1.495-1.488.116-.106c.067-.061.138-.124.209-.187.152-.136.311-.277.461-.427a.7.7,0,0,0,.111-1,8.193,8.193,0,0,1-1.11-2.653.708.708,0,0,0-.8-.62c-.215,0-.432,0-.653,0h-.425v-2.017h1.014a.753.753,0,0,0,.87-.688,8.171,8.171,0,0,1,1.081-2.567.7.7,0,0,0-.112-1.043c-.144-.143-.3-.274-.455-.406-.073-.063-.146-.125-.218-.189l-.121-.1,1.484-1.468.293.291c.146.147.3.3.455.452a.712.712,0,0,0,1.024.113,8.157,8.157,0,0,1,2.566-1.085.756.756,0,0,0,.7-.888v-1.056h2.016v.453c0,.233,0,.464,0,.7a.707.707,0,0,0,.607.776,8.262,8.262,0,0,1,2.682,1.121.692.692,0,0,0,.974-.112c.154-.154.3-.314.446-.471l.294-.318,1.475,1.506-.265.23c-.115.1-.242.207-.36.324-.506.5-.53.687-.164,1.317.179.31.341.63.511.97.081.162.165.328.254.5l.114.22h-.724c-.466,0-.893,0-1.317-.011-.177-.005-.311-.221-.348-.288a5.856,5.856,0,0,0-4.219-3.055,5.86,5.86,0,0,0-2,11.547,8.722,8.722,0,0,0,1.261.09c.205,0,.411.01.618.022l.143.008Zm-.395-5.178a4.487,4.487,0,0,1-.662.05,4.394,4.394,0,0,1-4.332-3.738,4.546,4.546,0,0,1,.881-3.438,4.29,4.29,0,0,1,2.892-1.68,4.353,4.353,0,0,1,3.968,1.485c.032.035.063.073.11.134l.279.356h-1.813c-.671,0-.91.236-.91.9v.837c0,1.534,0,3.067.005,4.6A.424.424,0,0,1,306.726,2305.465Z" fill="#fff"/><path d="M318.867,2308.379c.02-.558.02-1.149,0-1.76a.73.73,0,0,0-.279-.548.622.622,0,0,0-.514-.128c-.583.121-1.2.276-1.881.474a.624.624,0,0,0-.454.6.673.673,0,0,0,.354.678l.152.087.221.125-1.881,2.814-.129-.136c-.109-.113-.211-.223-.311-.331-.214-.23-.416-.446-.627-.653a.687.687,0,0,0-1.02-.013c-.556.539-1.109,1.1-1.644,1.642l-.06.061a.669.669,0,0,0-.2.669.706.706,0,0,0,1.2.336c.255-.244.5-.5.736-.757.106-.113.212-.226.317-.336l.083-.087.177.1a.312.312,0,0,1,.074.051l.374.373.6.595a.72.72,0,0,0,1.215-.124q.587-.876,1.17-1.752l.744-1.118c.044-.065.09-.13.137-.2l.128-.179.323.138a.755.755,0,0,0,.689-.058A.7.7,0,0,0,318.867,2308.379Z" fill="#fff"/><path d="M46,1H44V-1h2ZM42,1H40V-1h2ZM38,1H36V-1h2ZM34,1H32V-1h2ZM30,1H28V-1h2ZM26,1H24V-1h2ZM22,1H20V-1h2ZM18,1H16V-1h2ZM14,1H12V-1h2ZM10,1H8V-1h2ZM6,1H4V-1H6ZM2,1H0V-1H2Z" transform="translate(226.44 2304.414)" fill="#fff" opacity="0.23"/></g></g></svg>