<svg xmlns="http://www.w3.org/2000/svg" xmlns:xlink="http://www.w3.org/1999/xlink" width="110.192" height="55.221" viewBox="0 0 110.192 55.221"><defs><linearGradient id="a" x1="1.163" y1="0.957" x2="0.129" y2="0.18" gradientUnits="objectBoundingBox"><stop offset="0" stop-color="#e27e4e"/><stop offset="0.498" stop-color="#dc6a3e"/><stop offset="1" stop-color="#d03319"/></linearGradient></defs><g transform="translate(-2779.75 -3705)"><path d="M283.85,1940.91c-5.533-5.725,1.335-29.648,5.132-38.588,5.961-14.035,20.406-21.64,37.749-3.694h0c17.4,18,9.285,31.538-4.521,37.646C313.576,1940.094,289.776,1947.042,283.85,1940.91Z" transform="translate(2553.31 1816.88)" fill="url(#a)"/><g transform="translate(2553.31 1273.88)"><path d="M284.774,2434.062a8.334,8.334,0,1,1-8.457,8.338A8.433,8.433,0,0,1,284.774,2434.062Z" fill="#c6f731"/><path d="M284.031,2446.016l-3.46-2.727,1.238-1.571,1.99,1.569,3.733-4.139,1.485,1.34Z"/><path d="M308.6,2448.568q5.5,0,11,0a1.759,1.759,0,0,1,1.85,1.485,2.217,2.217,0,0,1,.025.4q0,6.919,0,13.839a1.767,1.767,0,0,1-1.882,1.88q-3.486.006-6.973-.005c-.276,0-.353.073-.341.343.022.473.015.948,0,1.421a.3.3,0,0,0,.244.343c1.892.651,3.781,1.312,5.671,1.969.581.2.825.574.67,1.027s-.574.609-1.154.407c-2.606-.909-5.214-1.812-7.816-2.733a3.7,3.7,0,0,0-2.567-.005c-2.619.927-5.245,1.834-7.868,2.749-.05.018-.1.037-.152.052a.756.756,0,1,1-.474-1.435c1.07-.377,2.143-.746,3.215-1.118.844-.293,1.684-.6,2.534-.872a.415.415,0,0,0,.34-.5c-.025-.454-.018-.912,0-1.367.008-.228-.072-.284-.29-.283-2.333.007-4.667,0-7,.006a1.862,1.862,0,0,1-1.228-.382,1.7,1.7,0,0,1-.674-1.372q-.006-7.053,0-14.107a1.738,1.738,0,0,1,1.716-1.742c.527-.016,1.055,0,1.582,0Zm-.007,1.514H297.7c-.439,0-.479.039-.479.469v13.62c0,.452.036.489.487.489h21.77c.439,0,.48-.04.48-.47v-13.62c0-.454-.034-.488-.487-.488Zm2.153,17.587v-1.475h-4.3v1.475A5.053,5.053,0,0,1,310.742,2467.669Z" fill="#fff"/><path d="M309.486,2460.667a.767.767,0,0,1-.861.252.729.729,0,0,1-.506-.69c-.014-.3,0-.607-.007-.911q-.012-2.786-.026-5.571a.748.748,0,0,1,.429-.741.647.647,0,0,1,.793.112.965.965,0,0,1,.275.578c.029,2.169.036,4.338.035,6.508A1.48,1.48,0,0,1,309.486,2460.667Z" fill="#fff"/><path d="M305.138,2457.555a.769.769,0,0,1-.252-.862.728.728,0,0,1,.69-.505c.3-.014.607-.006.911-.007l5.571-.026a.747.747,0,0,1,.741.429.647.647,0,0,1-.112.793.971.971,0,0,1-.578.275c-2.169.029-4.339.036-6.508.035A1.5,1.5,0,0,1,305.138,2457.555Z" fill="#fff"/><path d="M46,1H44V-1h2ZM42,1H40V-1h2ZM38,1H36V-1h2ZM34,1H32V-1h2ZM30,1H28V-1h2ZM26,1H24V-1h2ZM22,1H20V-1h2ZM18,1H16V-1h2ZM14,1H12V-1h2ZM10,1H8V-1h2ZM6,1H4V-1H6ZM2,1H0V-1H2Z" transform="translate(226.44 2458.233)" fill="#fff" opacity="0.23"/></g></g></svg>