<svg xmlns="http://www.w3.org/2000/svg" xmlns:xlink="http://www.w3.org/1999/xlink" width="108.872" height="55.221" viewBox="0 0 108.872 55.221"><defs><linearGradient id="a" x1="1.163" y1="0.957" x2="0.129" y2="0.18" gradientUnits="objectBoundingBox"><stop offset="0" stop-color="#e27e4e"/><stop offset="0.498" stop-color="#dc6a3e"/><stop offset="1" stop-color="#d03319"/></linearGradient></defs><g transform="translate(-2781.069 -3388)"><path d="M283.85,1940.91c-5.533-5.725,1.335-29.648,5.132-38.588,5.961-14.035,20.406-21.64,37.749-3.694h0c17.4,18,9.285,31.538-4.521,37.646C313.576,1940.094,289.776,1947.042,283.85,1940.91Z" transform="translate(2553.31 1499.88)" fill="url(#a)"/><g transform="translate(2553.31 1267.88)"><path d="M284.774,2123.7a8.334,8.334,0,1,1-8.457,8.338A8.434,8.434,0,0,1,284.774,2123.7Z" fill="#c6f731"/><path d="M284.031,2135.654l-3.46-2.727,1.238-1.571,1.99,1.569,3.733-4.139,1.485,1.34Z"/><path d="M298.944,2155.4q0,2.884,0,5.771a2.7,2.7,0,0,0,2.879,2.882q4.638,0,9.276,0h3.71a2.8,2.8,0,0,0,1.8-.572,2.84,2.84,0,0,0,1.063-2.395q-.006-8.909,0-17.819v-7.956c0-.085,0-.17,0-.254a2.693,2.693,0,0,0-2.793-2.671q-6.576-.016-13.151,0a2.7,2.7,0,0,0-1.708.56,2.814,2.814,0,0,0-1.077,2.387q.009,5.156,0,10.309v9.758Zm17.091,6.131a.993.993,0,0,1-.9.9,3.328,3.328,0,0,1-.452.022H301.962c-1.028,0-1.411-.38-1.411-1.4,0-.462,0-.924.006-1.386v-.346a.259.259,0,0,1,.023-.1l.05-.148h15.415v.15c0,.23,0,.459,0,.687C316.055,2160.442,316.06,2160.993,316.035,2161.533Zm-15.484-26.271a1.125,1.125,0,0,1,1.273-1.273h9.57q1.672,0,3.345,0c.915,0,1.325.407,1.33,1.314,0,.373,0,.746,0,1.129v.742h-3.257q-5.855,0-11.711.008h-.007a.587.587,0,0,1-.441-.136.551.551,0,0,1-.109-.427c.019-.295.014-.6.011-.892C300.552,2135.572,300.55,2135.416,300.551,2135.262Zm.512,3.5q5.54.012,11.077.008h3.407c.074,0,.149,0,.232.009l.272.012v18.628H300.578l-.015-.254c-.006-.079-.012-.154-.012-.229v-2.715q0-7.467-.007-14.932C300.544,2138.911,300.689,2138.763,301.063,2138.763Z" fill="#fff"/><path d="M308.327,2142.985a5.265,5.265,0,0,0-5.254,5.212,5.248,5.248,0,0,0,5.237,5.26,5.236,5.236,0,0,0,.017-10.472Zm2.776,8a3.928,3.928,0,1,1,1.142-2.782A3.923,3.923,0,0,1,311.1,2150.989Z" fill="#fff"/><path d="M309.194,2160.169c-.284,0-.575-.006-.877-.006-.282,0-.573,0-.879,0a.6.6,0,1,0-.008,1.191c.192.007.384,0,.574,0h1.2a.6.6,0,1,0-.007-1.192Z" fill="#fff"/><path d="M306.35,2148.8c.311.324.63.642.946.945a.653.653,0,0,0,.975.014c.693-.675,1.368-1.339,2.006-2.02a.97.97,0,0,0,.2-.573.569.569,0,0,0-.4-.536.617.617,0,0,0-.714.147c-.328.33-.65.665-1,1.029l-.6.626-.089-.113c-.054-.07-.1-.134-.145-.193a2.253,2.253,0,0,0-.223-.271.767.767,0,0,0-.531-.238.638.638,0,0,0-.462.2A.671.671,0,0,0,306.35,2148.8Z" fill="#fff"/><path d="M46,1H44V-1h2ZM42,1H40V-1h2ZM38,1H36V-1h2ZM34,1H32V-1h2ZM30,1H28V-1h2ZM26,1H24V-1h2ZM22,1H20V-1h2ZM18,1H16V-1h2ZM14,1H12V-1h2ZM10,1H8V-1h2ZM6,1H4V-1H6ZM2,1H0V-1H2Z" transform="translate(227.76 2148.038)" fill="#fff" opacity="0.23"/></g></g></svg>