<svg xmlns="http://www.w3.org/2000/svg" xmlns:xlink="http://www.w3.org/1999/xlink" width="110.192" height="55.221" viewBox="0 0 110.192 55.221"><defs><linearGradient id="a" x1="1.163" y1="0.957" x2="0.129" y2="0.18" gradientUnits="objectBoundingBox"><stop offset="0" stop-color="#e27e4e"/><stop offset="0.498" stop-color="#dc6a3e"/><stop offset="1" stop-color="#d03319"/></linearGradient></defs><g transform="translate(-2779.75 -3463)"><path d="M283.85,1940.91c-5.533-5.725,1.335-29.648,5.132-38.588,5.961-14.035,20.406-21.64,37.749-3.694h0c17.4,18,9.285,31.538-4.521,37.646C313.576,1940.094,289.776,1947.042,283.85,1940.91Z" transform="translate(2553.31 1574.88)" fill="url(#a)"/><g transform="translate(2553.31 1262.88)"><path d="M284.774,2202.91a8.334,8.334,0,1,1-8.457,8.338A8.433,8.433,0,0,1,284.774,2202.91Z" fill="#c6f731"/><path d="M284.031,2214.864l-3.46-2.727,1.238-1.571,1.99,1.569,3.733-4.139,1.485,1.34Z"/><path d="M322.037,2224.683q-.856-1.6-1.7-3.2a2.286,2.286,0,0,0-2.186-1.312h-.013c-2.156.008-4.313.005-6.47.006h-4.836c-2.148,0-4.291,0-6.438-.006h-.016a2.278,2.278,0,0,0-2.2,1.332c-.639,1.22-1.289,2.431-1.94,3.644l-.65,1.212a2.17,2.17,0,0,0,.341,2.725q5.8,6.354,11.608,12.706a3.018,3.018,0,0,0,.514.465,2.179,2.179,0,0,0,2.934-.454q1.029-1.122,2.053-2.246l3.949-4.325q2.826-3.092,5.647-6.186a2.158,2.158,0,0,0,.326-2.646Zm-4.441-2.929-3.391,4.636-3.39-4.636Zm-4.959,5.15H305.88l3.377-4.624Zm-4.949-5.139-3.379,4.625-3.384-4.625Zm-8.225.658,3.281,4.486h-5.679Zm7.82,16.46-.093.21-9.636-10.55.453-.03c.093-.006.162-.011.229-.011h1.531q1.787,0,3.573,0h.01a.479.479,0,0,1,.528.341q1.4,4.041,2.819,8.076l.6,1.71A.322.322,0,0,1,307.283,2238.883Zm2.117.172h-.287l-3.693-10.535h7.672Zm1.993-.038-.213-.12-.006-.143.175-.507q.306-.885.615-1.768l.615-1.755q1.018-2.9,2.031-5.81a.533.533,0,0,1,.576-.419h.01c1.269.01,2.537.01,3.8.007h1.267c.065,0,.129.005.216.01l.485.023Zm4.371-12.1,3.286-4.5,2.4,4.5Z" fill="#fff"/><path d="M302.2,2211.089a.837.837,0,0,0-.7.372.749.749,0,0,0-.057.714c.786,1.825,1.57,3.6,2.232,5.094a.762.762,0,0,0,1.015.427.774.774,0,0,0,.415-1.042q-1.1-2.553-2.231-5.095A.754.754,0,0,0,302.2,2211.089Z" fill="#fff"/><path d="M315.615,2211.608l-.637,1.452q-.778,1.776-1.55,3.554a1.022,1.022,0,0,0-.073.5.764.764,0,0,0,.668.642.79.79,0,0,0,.822-.5q.637-1.431,1.263-2.867l.447-1.016c.173-.391.347-.782.509-1.177a.786.786,0,0,0-.067-.748.83.83,0,0,0-.7-.353h0A.792.792,0,0,0,315.615,2211.608Z" fill="#fff"/><path d="M308.477,2216.9a.79.79,0,0,0,.771.857h.009a.746.746,0,0,0,.532-.209.915.915,0,0,0,.247-.659q0-2.454,0-4.908a.8.8,0,0,0-.772-.89h-.01a.727.727,0,0,0-.521.2.972.972,0,0,0-.257.7c0,.539,0,1.076,0,1.614v1.553Q308.473,2216.028,308.477,2216.9Z" fill="#fff"/><path d="M46,1H44V-1h2ZM42,1H40V-1h2ZM38,1H36V-1h2ZM34,1H32V-1h2ZM30,1H28V-1h2ZM26,1H24V-1h2ZM22,1H20V-1h2ZM18,1H16V-1h2ZM14,1H12V-1h2ZM10,1H8V-1h2ZM6,1H4V-1H6ZM2,1H0V-1H2Z" transform="translate(226.44 2228.247)" fill="#fff" opacity="0.23"/></g></g></svg>