<svg xmlns="http://www.w3.org/2000/svg" xmlns:xlink="http://www.w3.org/1999/xlink" width="111.719" height="55.221" viewBox="0 0 111.719 55.221"><defs><linearGradient id="a" x1="1.163" y1="0.957" x2="0.129" y2="0.18" gradientUnits="objectBoundingBox"><stop offset="0" stop-color="#e27e4e"/><stop offset="0.498" stop-color="#dc6a3e"/><stop offset="1" stop-color="#d03319"/></linearGradient></defs><g transform="translate(-2778.222 -3235)"><path d="M283.85,1940.91c-5.533-5.725,1.335-29.648,5.132-38.588,5.961-14.035,20.406-21.64,37.749-3.694h0c17.4,18,9.285,31.538-4.521,37.646C313.576,1940.094,289.776,1947.042,283.85,1940.91Z" transform="translate(2553.31 1346.88)" fill="url(#a)"/><g transform="translate(2553.31 1270.88)"><path d="M284.774,1966.682a8.334,8.334,0,1,1-8.457,8.339A8.434,8.434,0,0,1,284.774,1966.682Z" fill="#c6f731"/><path d="M284.031,1978.636l-3.46-2.728,1.238-1.571,1.99,1.569,3.733-4.139,1.485,1.34Z"/><path d="M324.155,2001.294H295.013a.781.781,0,0,0-.9.892q0,1.7,0,3.394a.8.8,0,0,0,.912.914h29.208a.8.8,0,0,0,.915-.911q0-1.648,0-3.3C325.15,2001.554,324.89,2001.294,324.155,2001.294Zm-.545,3.643H295.666v-2.079H323.61Z" fill="#fff"/><path d="M306.049,1999.307c-.542,0-1.085,0-1.628,0a.925.925,0,1,1-.009-1.842q1.662-.009,3.323,0a.924.924,0,1,1,.008,1.843h-1.694Z" fill="#fff"/><path d="M313.222,1984.618c-.543,0-1.086,0-1.629,0a.927.927,0,1,1,0-1.842q1.646-.008,3.291,0a.925.925,0,1,1,0,1.842C314.33,1984.623,313.776,1984.618,313.222,1984.618Z" fill="#fff"/><path d="M313.208,1999.307c-.543,0-1.086.005-1.629,0a.925.925,0,1,1,0-1.842q1.66-.009,3.323,0a.923.923,0,1,1,0,1.841C314.338,1999.313,313.773,1999.307,313.208,1999.307Z" fill="#fff"/><path d="M298.881,1984.618c-.544,0-1.088.005-1.632,0a.923.923,0,1,1-.01-1.841q1.663-.01,3.328,0a.924.924,0,1,1,.011,1.843h-1.7Z" fill="#fff"/><path d="M298.894,1999.307c-.544,0-1.088,0-1.632,0a.925.925,0,1,1,0-1.842q1.648-.009,3.3,0a.925.925,0,1,1,0,1.844h-1.664Z" fill="#fff"/><path d="M320.4,1984.618c-.555,0-1.11.005-1.664,0a.923.923,0,1,1-.013-1.841q1.665-.01,3.329,0a.923.923,0,1,1,.012,1.842C321.508,1984.624,320.953,1984.618,320.4,1984.618Z" fill="#fff"/><path d="M320.4,1999.307c-.555,0-1.11,0-1.664,0a.926.926,0,1,1,.008-1.843q1.648-.006,3.3,0a.925.925,0,1,1-.008,1.843H320.4Z" fill="#fff"/><path d="M313.22,1988.292c-.553,0-1.107.005-1.66,0a.95.95,0,0,1-.995-.941.93.93,0,0,1,1-.893q1.661-.006,3.321,0a.915.915,0,0,1,1.005.916.937.937,0,0,1-1.012.919C314.328,1988.3,313.774,1988.292,313.22,1988.292Z" fill="#fff"/><path d="M313.236,1995.625c-.564,0-1.129,0-1.693,0a.929.929,0,0,1-.978-.917.945.945,0,0,1,.986-.916q1.677-.009,3.355,0a.929.929,0,0,1,.987.941.916.916,0,0,1-1,.893C314.343,1995.628,313.79,1995.625,313.236,1995.625Z" fill="#fff"/><path d="M320.4,1980.936c-.566,0-1.131.005-1.7,0a.916.916,0,0,1-.973-.92.933.933,0,0,1,.986-.914q1.68-.008,3.36,0a.918.918,0,0,1,.969.926.907.907,0,0,1-.981.907C321.511,1980.94,320.956,1980.936,320.4,1980.936Z" fill="#fff"/><path d="M313.222,1990.125c.566,0,1.132-.005,1.7,0a.917.917,0,1,1-.013,1.829q-1.68.006-3.361,0a.917.917,0,1,1,.013-1.829C312.113,1990.121,312.667,1990.125,313.222,1990.125Z" fill="#fff"/><path d="M306.079,1995.625c-.564,0-1.129,0-1.693,0a.914.914,0,0,1-.977-.911.931.931,0,0,1,.974-.922q1.693-.009,3.387,0a.921.921,0,0,1,.958.935.9.9,0,0,1-.956.9C307.208,1995.63,306.644,1995.625,306.079,1995.625Z" fill="#fff"/><path d="M320.383,1995.625c-.555,0-1.109,0-1.664,0a.919.919,0,0,1-.987-.907.93.93,0,0,1,.972-.927q1.682-.009,3.361,0a.92.92,0,0,1,.982.913.909.909,0,0,1-.968.922h-1.7Z" fill="#fff"/><path d="M320.38,1986.456c.565,0,1.131-.005,1.7,0a.9.9,0,0,1,.971.917.921.921,0,0,1-.979.917q-1.68.008-3.36,0a.929.929,0,0,1-.976-.924.917.917,0,0,1,.984-.909C319.27,1986.452,319.825,1986.456,320.38,1986.456Z" fill="#fff"/><path d="M298.907,1980.936c-.554,0-1.109,0-1.663,0a.917.917,0,0,1-.994-.9.932.932,0,0,1,1-.936q1.664-.008,3.327,0a.919.919,0,0,1,.989.938.9.9,0,0,1-.991.9C300.016,1980.94,299.462,1980.936,298.907,1980.936Z" fill="#fff"/><path d="M320.437,1990.125c.544,0,1.087,0,1.631,0a.916.916,0,1,1,.007,1.828q-1.68.008-3.359,0a.917.917,0,1,1-.007-1.829C319.285,1990.12,319.861,1990.125,320.437,1990.125Z" fill="#fff"/><path d="M298.919,1995.625c-.565,0-1.13,0-1.7,0a.912.912,0,0,1-.973-.918.929.929,0,0,1,.984-.915q1.68-.009,3.36,0a.914.914,0,0,1,.968.925.9.9,0,0,1-.979.909C300.029,1995.629,299.474,1995.625,298.919,1995.625Z" fill="#fff"/><path d="M298.9,1986.456c.565,0,1.131-.005,1.7,0a.9.9,0,0,1,.965.889.912.912,0,0,1-.95.944q-1.7.012-3.393,0a.925.925,0,0,1-.969-.929.916.916,0,0,1,.987-.9C297.792,1986.452,298.346,1986.456,298.9,1986.456Z" fill="#fff"/><path d="M298.913,1975.436c.554,0,1.108,0,1.663,0a.918.918,0,1,1-.009,1.83q-1.662,0-3.326,0a.918.918,0,1,1,.009-1.829C297.8,1975.433,298.358,1975.436,298.913,1975.436Z" fill="#fff"/><path d="M298.915,1991.956c-.554,0-1.109,0-1.663,0a.918.918,0,1,1-.013-1.829q1.678-.006,3.358,0a.916.916,0,1,1,.014,1.83h-1.7Z" fill="#fff"/><path d="M306.074,1990.124c.555,0,1.11,0,1.664,0a.918.918,0,1,1-.009,1.83q-1.664.006-3.328,0a.918.918,0,1,1,.009-1.83C304.965,1990.121,305.52,1990.124,306.074,1990.124Z" fill="#fff"/><path d="M46,1H44V-1h2ZM42,1H40V-1h2ZM38,1H36V-1h2ZM34,1H32V-1h2ZM30,1H28V-1h2ZM26,1H24V-1h2ZM22,1H20V-1h2ZM18,1H16V-1h2ZM14,1H12V-1h2ZM10,1H8V-1h2ZM6,1H4V-1H6ZM2,1H0V-1H2Z" transform="translate(224.912 1990.77)" fill="#fff" opacity="0.23"/></g></g></svg>