<svg xmlns="http://www.w3.org/2000/svg" xmlns:xlink="http://www.w3.org/1999/xlink" width="111.719" height="55.221" viewBox="0 0 111.719 55.221"><defs><linearGradient id="a" x1="1.163" y1="0.957" x2="0.129" y2="0.18" gradientUnits="objectBoundingBox"><stop offset="0" stop-color="#e27e4e"/><stop offset="0.498" stop-color="#dc6a3e"/><stop offset="1" stop-color="#d03319"/></linearGradient></defs><g transform="translate(-2778.222 -3307)"><path d="M283.85,1940.91c-5.533-5.725,1.335-29.648,5.132-38.588,5.961-14.035,20.406-21.64,37.749-3.694h0c17.4,18,9.285,31.538-4.521,37.646C313.576,1940.094,289.776,1947.042,283.85,1940.91Z" transform="translate(2553.31 1418.88)" fill="url(#a)"/><g transform="translate(2553.31 1269.88)"><path d="M284.774,2038.89a8.334,8.334,0,1,1-8.457,8.339A8.435,8.435,0,0,1,284.774,2038.89Z" fill="#c6f731"/><path d="M284.031,2050.845l-3.46-2.728,1.238-1.571,1.99,1.569,3.733-4.139,1.485,1.34Z"/><path d="M323.215,2051.587h-28.54c-.735,0-1,.26-1,1V2075.7c0,.738.259,1,.992,1H323.21c.736,0,1-.26,1-1v-23.114C324.207,2051.848,323.947,2051.587,323.215,2051.587Zm-.536,23.586H295.207v-22.055h27.472Z" fill="#fff"/><path d="M302.213,2064.92a.779.779,0,0,0,.86-.877q0-2.312,0-4.622a.779.779,0,0,0-.86-.876c-.214,0-.426,0-.654,0l-.487,0v-.535c0-.273,0-.534,0-.8,0-.086,0-.172,0-.258a4.609,4.609,0,0,0-.039-.742.724.724,0,0,0-.771-.588.751.751,0,0,0-.687.7c-.011.155-.009.312-.008.468v1.748h-1.024c-.73,0-.988.258-.988.975q0,2.216,0,4.43c0,.717.258.971.989.973h1.023v2q0,2.46,0,4.919a.759.759,0,0,0,.744.821.778.778,0,0,0,.758-.824c0-.058,0-.118,0-.176v-6.737h.483C301.786,2064.924,302,2064.926,302.213,2064.92Zm-3.122-1.536v-3.31h2.466v3.31Z" fill="#fff"/><path d="M310.868,2069.736a.756.756,0,0,0,.824-.84q.006-2.344,0-4.688a.761.761,0,0,0-.849-.846c-.214-.006-.429,0-.659,0l-.491,0v-2.131q0-2.373,0-4.744a.773.773,0,0,0-.436-.783.706.706,0,0,0-.692.023.85.85,0,0,0-.373.735q0,2.385,0,4.768v2.132l-.5,0c-.23,0-.444,0-.659,0a.762.762,0,0,0-.842.854q0,2.328,0,4.656a.768.768,0,0,0,.863.865c.214.006.431,0,.658,0h.478v.992c0,.381,0,.762,0,1.144a.755.755,0,0,0,.746.783h.005a.759.759,0,0,0,.747-.792c.005-.183,0-.365,0-.548v-1.579l.485,0C310.418,2069.74,310.643,2069.744,310.868,2069.736Zm-.7-1.524h-2.449v-3.32h2.449Z" fill="#fff"/><path d="M320.33,2061.819a.777.777,0,0,0-.867-.868l-.123,0c-.2,0-.4,0-.606,0a.4.4,0,0,1-.314-.093.423.423,0,0,1-.1-.318c.008-.431.006-.863.005-1.293l0-.407v-.707c0-.6,0-1.2-.01-1.794a.729.729,0,0,0-.693-.716.766.766,0,0,0-.774.6,1.871,1.871,0,0,0-.028.382l0,3.82c0,.081-.006.162-.012.254l-.015.266h-.463c-.228,0-.445,0-.664,0a.774.774,0,0,0-.846.855q0,2.328,0,4.655a.775.775,0,0,0,.866.869c.219,0,.438,0,.67,0h.465v1.518q0,1.469,0,2.938a.791.791,0,0,0,.413.776.71.71,0,0,0,.713,0,.806.806,0,0,0,.376-.706c.009-.939.007-1.879.006-2.818l0-1.707.515,0c.238,0,.46,0,.681,0a.763.763,0,0,0,.815-.8c.006-.127.005-.255,0-.382v-1.385C320.334,2063.782,320.335,2062.8,320.33,2061.819Zm-1.536,3.979h-2.453v-3.32h2.453Z" fill="#fff"/><path d="M46,1H44V-1h2ZM42,1H40V-1h2ZM38,1H36V-1h2ZM34,1H32V-1h2ZM30,1H28V-1h2ZM26,1H24V-1h2ZM22,1H20V-1h2ZM18,1H16V-1h2ZM14,1H12V-1h2ZM10,1H8V-1h2ZM6,1H4V-1H6ZM2,1H0V-1H2Z" transform="translate(224.912 2064.09)" fill="#fff" opacity="0.23"/></g></g></svg>